<?xml version="1.0" encoding="utf-8"?>
<!-- Generator: Adobe Illustrator 27.3.0, SVG Export Plug-In . SVG Version: 6.00 Build 0)  -->
<svg version="1.1" id="Livello_1" xmlns="http://www.w3.org/2000/svg" xmlns:xlink="http://www.w3.org/1999/xlink" x="0px" y="0px"
	 viewBox="0 0 353.3 66.7" style="enable-background:new 0 0 353.3 66.7;" xml:space="preserve">
<style type="text/css">
	.st0{enable-background:new    ;}
	.st1{fill:#226CE0;}
	.st2{fill:#009245;}
	.st3{fill:#FF0000;}
	.st4{fill:#FFFFFF;}
</style>
<g class="st0">
	<path d="M78.9,17.2h4.2l8.5,22.5h-3.5l-1.9-5.2H75.9L74,39.7h-3.5L78.9,17.2z M85.2,32l-4.1-11.3h-0.2L76.8,32H85.2z"/>
	<path d="M92.7,34.7h2.9c0.3,2.1,2,2.8,4.1,2.8s3.7-0.7,3.7-2.5c0-1.4-0.9-1.9-2.5-2.3L97.8,32c-3.2-0.7-4.6-2.4-4.6-4.6
		c0-3.1,2.6-4.8,6.5-4.8c4,0,6.4,1.8,6.6,5.3h-2.7c-0.3-2.1-1.7-2.7-3.8-2.7c-2.2,0-3.4,0.7-3.4,2.2c0,1.2,0.7,1.9,2.5,2.3l3.2,0.7
		c2.7,0.6,4.7,1.7,4.7,4.6c0,3.7-3.4,5.1-7,5.1C95.7,40,92.8,38.4,92.7,34.7z"/>
	<path d="M111,35.5v-9.9h-2.7V23h2.7v-4.2h3.3V23h3.3v2.6h-3.3V35c0,1.6,0.5,2.4,2.4,2.4c0.4,0,0.7,0,1.2-0.1v2.4
		c-0.6,0.2-1.3,0.3-2.1,0.3C112.9,39.9,111,38.8,111,35.5z"/>
	<path d="M119.5,35.3c0-3.2,2.4-4.5,5.3-4.9l4.2-0.5c1.5-0.2,2.1-0.5,2.1-1v-0.5c0-2.7-1.4-3.4-3.7-3.4c-2.4,0-3.8,0.7-3.8,2.8v0.4
		h-3.1v-0.7c0-3.4,2.4-5,7-5c4.7,0,6.9,1.8,6.9,5.8v11.2h-3.1v-2.7h-0.2c-0.3,0.6-1.9,3-6,3C121.9,40,119.5,38.7,119.5,35.3z
		 M125.9,37.5c3.5,0,5.2-2.2,5.2-4v-1.8c-0.2,0.4-0.6,0.6-2.3,0.8l-3.2,0.4c-2.1,0.3-2.9,1-2.9,2.3
		C122.7,36.8,123.8,37.5,125.9,37.5z"/>
	<path d="M136.9,31c0-5.9,3.6-8.3,7.3-8.3c2.4,0,4.5,1,5.6,2.8v-2.4h3.3v16.4c0,5.8-4.7,7.1-8.2,7.1c-3.3,0-7.4-1.2-7.4-5.4h2.9
		c0.1,1.9,2.2,2.9,4.5,2.9c2.8,0,5-1.3,5-4.5v-2.8c-1.1,1.7-3.2,2.8-5.6,2.8C140.5,39.3,136.9,36.9,136.9,31z M144.9,36.6
		c2.6,0,5-1.8,5-5.6s-2.4-5.6-5-5.6s-5,1.8-5,5.6S142.3,36.6,144.9,36.6z"/>
	<path d="M158.2,16.2c1,0,1.9,0.9,1.9,1.9c0,1.1-0.9,1.9-1.9,1.9s-1.9-0.8-1.9-1.9C156.3,17.1,157.2,16.2,158.2,16.2z M156.6,23h3.3
		v16.8h-3.3V23z"/>
	<path d="M170.7,37.3c2.6,0,4.5-1.6,4.5-4.6V23h3.3v16.8h-3.4v-3.3H175c-0.3,1.3-1.9,3.7-5.6,3.7c-3.3,0-5.9-1.9-5.9-6.6V23.2h3.3
		v9.7C166.7,35.7,168,37.3,170.7,37.3z"/>
	<path d="M181.2,31.3c0-6.1,3.7-8.7,7.5-8.7c2.5,0,4.6,1.1,5.6,3v-8.4h3.3v22.5h-3.3v-2.6c-1,1.8-3.1,3-5.6,3
		C184.9,40,181.2,37.4,181.2,31.3z M189.3,37.3c2.6,0,5.1-1.9,5.1-6s-2.5-6-5.1-6s-5.1,1.9-5.1,6S186.7,37.3,189.3,37.3z"/>
	<path d="M202.7,16.2c1,0,1.9,0.9,1.9,1.9c0,1.1-0.9,1.9-1.9,1.9s-1.9-0.8-1.9-1.9C200.8,17.1,201.7,16.2,202.7,16.2z M201.1,23h3.3
		v16.8h-3.3V23z"/>
	<path d="M207.5,37l9.7-11.2h-9.4V23H221v2.8L211.3,37h9.7v2.8h-13.6V37H207.5z"/>
	<path d="M225.7,16.2c1,0,1.9,0.9,1.9,1.9c0,1.1-0.9,1.9-1.9,1.9s-1.9-0.8-1.9-1.9C223.8,17.1,224.7,16.2,225.7,16.2z M224.1,23h3.3
		v16.8h-3.3V23z"/>
	<path d="M230.2,35.3c0-3.2,2.4-4.5,5.3-4.9l4.2-0.5c1.5-0.2,2.1-0.5,2.1-1v-0.5c0-2.7-1.4-3.4-3.7-3.4c-2.4,0-3.8,0.7-3.8,2.8v0.4
		h-3.2v-0.7c0-3.4,2.4-5,7-5c4.7,0,6.9,1.8,6.9,5.8v11.2h-3.1v-2.7h-0.1c-0.3,0.6-1.9,3-6,3C232.7,40,230.2,38.7,230.2,35.3z
		 M236.6,37.5c3.5,0,5.2-2.2,5.2-4v-1.8c-0.2,0.4-0.6,0.6-2.3,0.8l-3.2,0.4c-2.1,0.3-2.9,1-2.9,2.3
		C233.4,36.8,234.6,37.5,236.6,37.5z"/>
	<path d="M252,39.7h-3.3V22.9h3.3v3.9h0.1c0.5-2,2.1-4,5.2-4c0.4,0,0.9,0,1.3,0.2v2.7c-0.4-0.1-0.8-0.1-1.2-0.1
		c-3.1,0-5.2,2-5.2,5.7v8.4H252z"/>
	<path d="M262.5,16.2c1,0,1.9,0.9,1.9,1.9c0,1.1-0.9,1.9-1.9,1.9s-1.9-0.8-1.9-1.9C260.6,17.1,261.5,16.2,262.5,16.2z M260.9,23h3.3
		v16.8h-3.3V23z"/>
	<path d="M267,35.3c0-3.2,2.4-4.5,5.3-4.9l4.2-0.5c1.5-0.2,2.1-0.5,2.1-1v-0.5c0-2.7-1.4-3.4-3.7-3.4c-2.4,0-3.8,0.7-3.8,2.8v0.4
		H268v-0.7c0-3.4,2.4-5,7-5c4.7,0,6.9,1.8,6.9,5.8v11.2h-3.1v-2.7h-0.1c-0.3,0.6-1.9,3-6,3C269.5,40,267,38.7,267,35.3z M273.4,37.5
		c3.5,0,5.2-2.2,5.2-4v-1.8c-0.2,0.4-0.6,0.6-2.3,0.8l-3.2,0.4c-2.1,0.3-2.9,1-2.9,2.3C270.2,36.8,271.4,37.5,273.4,37.5z"/>
	<path d="M284.9,37.9c0-1.2,1-2.1,2.1-2.1c1.2,0,2.2,1,2.2,2.1c0,1.2-1,2.1-2.2,2.1C285.9,40,284.9,39.1,284.9,37.9z"/>
	<path d="M291.5,31.4c0-6.1,4-8.7,8.2-8.7c3,0,6.7,1.3,7.3,6.3h-3c-0.5-2.6-2.3-3.5-4.4-3.5c-3.1,0-5.1,2.2-5.1,6s2,5.9,5.1,5.9
		c2.1,0,3.9-1,4.4-3.6h3c-0.5,5.1-4.3,6.3-7.3,6.3C295.5,40,291.5,37.4,291.5,31.4z"/>
	<path d="M308.8,31.3c0-6,4-8.7,8.1-8.7c4.2,0,8.2,2.7,8.2,8.7s-4,8.7-8.2,8.7C312.8,40,308.8,37.3,308.8,31.3z M316.9,37.3
		c2.7,0,5.1-1.8,5.1-6s-2.4-6-5.1-6s-5.1,1.8-5.1,6S314.2,37.3,316.9,37.3z"/>
	<path d="M346,25.4c-2.4,0-4,1.6-4,4.6v9.7h-3.3V30c0-3-1.2-4.6-3.6-4.6s-4,1.6-4,4.6v9.7h-3.3V22.9h3.3v3.3h0.1
		c0.3-1.3,1.9-3.7,5.2-3.7c2.4,0,4.4,1.1,5.2,3.8c0.4-1.4,2-3.8,5.5-3.8c3.3,0,5.7,1.9,5.7,6.6v10.4h-3.3v-9.7
		C349.6,27,348.5,25.4,346,25.4z"/>
</g>
<g>
	<polygon class="st1" points="38.9,0.6 25,0.6 30.3,14.9 43.5,53.5 47.8,66.1 47.8,65.9 47.9,66.1 62.6,66.1 	"/>
	<polygon class="st1" points="37.4,46.9 22.4,41.5 27,28.7 13.8,24 0.6,60.6 13.8,65.4 18.9,51.4 41.6,59.5 	"/>
</g>
<g>
	<rect x="182.2" y="45.9" class="st2" width="20.8" height="3.8"/>
	<rect x="222.2" y="45.9" class="st3" width="19.8" height="3.8"/>
	<rect x="202.5" y="45.9" class="st4" width="19.8" height="3.8"/>
</g>
</svg>
