<svg xmlns="http://www.w3.org/2000/svg" xmlns:xlink="http://www.w3.org/1999/xlink" data-name="layer 1" viewBox="0 0 1159 771"><defs><linearGradient id="a" x1="1561.556" x2="1561.556" y1="51.419" y2="-94.744" gradientTransform="matrix(-1 0 0 1 2344.741 0)" gradientUnits="userSpaceOnUse"><stop offset="0" stop-color="#9ed1de"/><stop offset="1" stop-color="#fff" stop-opacity="0"/></linearGradient><linearGradient id="c" x1="1976.205" x2="1976.205" y1="51.419" y2="-94.744" xlink:href="#a"/><clipPath id="b"><rect width="1159" height="771" fill="none"/></clipPath></defs><g clip-path="url(#b)"><rect width="1159" height="771" fill="#ebfbff"/><polygon fill="#c5e6ed" points="733.719 265.736 732.982 664.347 768.384 664.442 769.185 250.274 733.384 265.735 733.719 265.736"/><polygon fill="#d7f2f9" points="639.207 664.09 732.982 664.347 733.719 265.736 639.207 265.478 639.207 664.09"/><polygon fill="#fcfcfe" points="733.719 265.736 698.447 95.378 639.207 265.478 733.719 265.736" opacity=".46"/><polygon fill="#d7f2f9" points="698.447 95.378 769.185 250.274 733.719 265.736 698.447 95.378"/><path fill="#fcfcfe" d="M962.2109,89.4775h-.1987A39.79724,39.79724,0,0,0,924.6626,82.04c1.23-3.9482,3.1831-7.6435,1.4609-11.8564-1.7592-4.3028-6.5512-6.8125-10.7651-7.9912-7.707-2.1553-16.00294-1.1329-22.03224,3.6181-2.1958-10.4013-11.00776-19.2353-22.38276-18.7187-12.0484.5478-20.398,11.3935-20.7002,22.7051-6.3267-1.7305-13.3262-2.4258-19.5655-.2959-5.3969,1.8418-6.854,7.2578-10.8364,9.0097-5.397,2.374-11.625-1.8017-16.3994,3.3057a7.27929,7.27929,0,0,0-1.8677,7.2998,15.83894,15.83894,0,0,0,4.3662,5.0889H960.4736a2.41934,2.41934,0,0,0,3.0122-.4112C965.1284,92.6728,964.729,89.4775,962.2109,89.4775Z"/><path fill="#fcfcfe" d="M755.9258,53.7412h-.1153a23.03412,23.03412,0,0,0-21.6196-4.3057c.7119-2.2861,1.8428-4.4248.8457-6.8633-1.0185-2.4912-3.7925-3.9433-6.2314-4.6259a14.339,14.339,0,0,0-12.753,2.0947c-1.271-6.0205-6.372-11.1348-12.9565-10.8359-6.9741.3173-11.8071,6.5957-11.9824,13.1435-3.6621-1.0019-7.7139-1.4043-11.3252-.1719-3.124,1.0664-3.9678,4.2012-6.273,5.2159-3.124,1.374-6.729-1.043-9.4926,1.913a4.21415,4.21415,0,0,0-1.0811,4.2256,9.15932,9.15932,0,0,0,2.5273,2.9453h89.4512a1.39919,1.39919,0,0,0,1.7437-.2373A1.37436,1.37436,0,0,0,755.9258,53.7412Z"/><path fill="#fcfcfe" d="M109.7515,176.7627h-.1026a20.57271,20.57271,0,0,0-19.3071-3.8448c.6357-2.041,1.6455-3.9511.7554-6.1289-.9097-2.2246-3.3868-3.5214-5.565-4.1308a12.802,12.802,0,0,0-11.3887,1.8701c-1.1352-5.377-5.6904-9.9434-11.5703-9.6768-6.2285.2832-10.5444,5.8897-10.7006,11.7373a17.46673,17.46673,0,0,0-10.1138-.1523c-2.7901.9512-3.5435,3.752-5.6021,4.6572-2.7895,1.2266-6.0092-.9316-8.477,1.708a3.76323,3.76323,0,0,0-.9654,3.7735,8.19235,8.19235,0,0,0,2.2569,2.6308h79.8823a1.24966,1.24966,0,0,0,1.5571-.2129A1.22714,1.22714,0,0,0,109.7515,176.7627Z"/><path fill="#fcfcfe" d="M177.8188,74.3252h-.1215a24.4163,24.4163,0,0,0-22.9146-4.5635c.7544-2.4219,1.9531-4.6895.896-7.2744-1.0791-2.6397-4.0195-4.1797-6.6045-4.9024-4.728-1.3222-9.8179-.6953-13.5171,2.2198-1.3471-6.3819-6.7534-11.8018-13.7319-11.4844-7.3921.3359-12.5147,6.9902-12.7002,13.9297-3.8814-1.0615-8.1758-1.4873-12.0034-.1807-3.3115,1.1299-4.2051,4.4531-6.6485,5.5274-3.311,1.456-7.1323-1.1055-10.061,2.0283a4.46387,4.46387,0,0,0-1.146,4.4775,9.7119,9.7119,0,0,0,2.6787,3.1221h94.8081a1.4829,1.4829,0,0,0,1.8482-.252A1.45651,1.45651,0,0,0,177.8188,74.3252Z"/><path fill="#fcfcfe" d="M608.5801,103.2314h-.166a33.27629,33.27629,0,0,0-31.2276-6.2187c1.0278-3.3008,2.6611-6.3907,1.2212-9.9131-1.4712-3.5977-5.4775-5.6963-9.001-6.6807-6.4433-1.8027-13.3799-.9472-18.4209,3.0244-1.8354-8.6963-9.2036-16.083-18.7143-15.6504-10.0733.4581-17.0547,9.5264-17.3076,18.9834-5.2896-1.4472-11.1416-2.0273-16.3584-.247-4.5122,1.54-5.7305,6.0683-9.0606,7.5332-4.5122,1.9844-9.7192-1.5069-13.7109,2.7636a6.086,6.086,0,0,0-1.562,6.1036,13.23372,13.23372,0,0,0,3.6508,4.2539H607.1274a2.02266,2.02266,0,0,0,2.5186-.3428C611.02,105.9033,610.6855,103.2314,608.5801,103.2314Z"/><polygon fill="#c5e6ed" points="179.206 82.938 180.046 620.106 217.192 620.023 216.417 191.889 216.768 191.888 179.206 82.938"/><polygon fill="#d7f2f9" points="315.585 191.665 315.585 619.802 217.192 620.023 216.417 191.889 315.585 191.665"/><polygon fill="#fcfcfe" points="216.417 191.889 179.246 82.938 280.366 82.938 315.585 191.438 315.585 191.579 216.417 191.889"/><rect width="196.452" height="415.31" x="-47.609" y="253.468" fill="#c5e6ed"/><rect width="224.47" height="20.199" x="-61.618" y="243.368" fill="#d7f2f9"/><rect width="196.452" height="415.31" x="27.933" y="253.468" fill="#d7f2f9"/><rect width="196.452" height="8.638" x="27.933" y="315.201" fill="#fff"/><rect width="196.452" height="8.637" x="27.933" y="385.572" fill="#fff"/><rect width="196.452" height="8.637" x="27.933" y="455.943" fill="#fff"/><rect width="196.452" height="8.637" x="27.933" y="526.314" fill="#fff"/><rect width="196.452" height="8.637" x="27.933" y="596.686" fill="#fff"/><rect width="415.31" height="8.637" x="-117.798" y="456.804" fill="#fff" transform="rotate(90 89.856 461.123)"/><rect width="415.31" height="8.637" x="-45.193" y="456.804" fill="#fff" transform="rotate(90 162.461 461.123)"/><rect width="224.47" height="20.199" x="13.924" y="243.368" fill="#c5e6ed"/><rect width="69.752" height="551.917" x="1004.612" y="65.791" fill="#d7f2f9"/><polygon fill="#c5e6ed" points="1092.923 65.791 1074.365 65.791 1074.365 617.708 1214.377 617.708 1214.377 117.543 1092.923 65.791"/><rect width="103.875" height="27.168" x="1074.365" y="139.239" fill="#ebfbff"/><rect width="103.875" height="27.169" x="1110.118" y="213.522" fill="#ebfbff"/><rect width="43.03" height="15.548" x="1013.519" y="252.148" fill="#ebfbff"/><rect width="43.03" height="15.548" x="1013.519" y="450.441" fill="#ebfbff"/><rect width="51.938" height="27.168" x="1021.588" y="94.508" fill="#ebfbff"/><rect width="51.938" height="27.169" x="1021.588" y="309.76" fill="#ebfbff"/><rect width="51.938" height="27.168" x="1150.939" y="452.405" fill="#ebfbff"/><rect width="103.875" height="27.168" x="1073.033" y="347.696" fill="#ebfbff"/><rect width="56.855" height="449.869" x="467.9" y="169.739" fill="#d7f2f9"/><polygon fill="#fcfcfe" points="452.773 169.739 467.9 169.739 467.9 619.608 353.775 619.608 353.775 211.922 452.773 169.739"/><rect width="84.669" height="22.145" x="383.231" y="229.606" fill="#ebfbff" transform="rotate(180 425.565 240.679)"/><rect width="84.669" height="22.145" x="354.088" y="290.156" fill="#ebfbff" transform="rotate(180 396.423 301.228)"/><rect width="35.074" height="12.674" x="482.421" y="321.64" fill="#ebfbff" transform="rotate(180 499.958 327.977)"/><rect width="35.074" height="12.673" x="482.421" y="483.269" fill="#ebfbff" transform="rotate(180 499.958 489.606)"/><rect width="42.334" height="22.145" x="468.584" y="193.147" fill="#ebfbff" transform="rotate(180 489.751 204.219)"/><rect width="42.334" height="22.145" x="468.584" y="368.6" fill="#ebfbff" transform="rotate(180 489.751 379.672)"/><rect width="42.334" height="22.145" x="363.149" y="484.87" fill="#ebfbff" transform="rotate(180 384.316 495.942)"/><rect width="84.669" height="22.145" x="384.316" y="399.521" fill="#ebfbff" transform="rotate(180 426.65 410.593)"/><polygon fill="#fcfcfe" points="340.012 606.29 239.269 606.29 63.795 0 164.539 0 340.012 606.29" opacity=".46"/><polygon fill="#fcfcfe" points="443.221 606.29 399.408 606.29 223.935 0 267.748 0 443.221 606.29" opacity=".46"/><polygon fill="#fcfcfe" points="690.415 606.29 589.671 606.29 414.197 0 514.941 0 690.415 606.29" opacity=".46"/><polygon fill="#fcfcfe" points="1159.696 606.29 1058.953 606.29 883.479 0 984.223 0 1159.696 606.29" opacity=".46"/><polygon fill="#fcfcfe" points="793.624 606.29 749.811 606.29 574.337 0 618.15 0 793.624 606.29" opacity=".46"/><polygon fill="#d7f2f9" points="916.299 251.013 915.384 649.622 959.278 649.719 960.27 235.55 915.883 251.012 916.299 251.013"/><polygon fill="#c5e6ed" points="799.117 649.366 915.384 649.622 916.299 251.013 799.117 250.755 799.117 649.366"/><polygon fill="#fff" points="799.117 250.491 799.117 250.656 916.299 251.013 960.223 235.55 840.734 235.55 799.117 250.491"/><rect width="1159" height="139.327" y="631.673" fill="#d7f2f9"/><path fill="#c5e6ed" d="M1142.8345,700.749c0,12.335-289.0215,22.335-606.854,22.335-317.8321,0-575.4859-10-575.4859-22.335,0-12.3359,257.6538-22.3359,575.4859-22.3359C853.813,678.4131,1142.8345,688.4131,1142.8345,700.749Z"/><rect width="1159" height="26.417" y="605.256" fill="#c5e6ed"/><rect width="1159" height="5.213" y="626.46" fill="#add6db"/><rect width="22.352" height="606.29" x="260.201" fill="#c5e6ed"/><rect width="7.064" height="606.29" x="275.489" fill="#add6db"/><rect width="22.352" height="606.29" x="568.324" fill="#c5e6ed"/><rect width="7.064" height="606.29" x="583.612" fill="#add6db"/><rect width="22.352" height="606.29" x="876.447" fill="#c5e6ed"/><rect width="7.064" height="606.29" x="891.734" fill="#add6db"/><path fill="#d7f2f9" d="M765.4766,99.333a16.33885,16.33885,0,1,1,16.3388,16.3389A16.34,16.34,0,0,1,765.4766,99.333Z"/><path fill="#fff" d="M781.5933,109.5566c3.8676-.6982,9.1835-3.7392,10.1821-7.8271.3564-1.459,2.6079-.8409,2.251.6211-1.191,4.874-7.1382,8.6132-11.8125,9.457C780.7451,112.0732,780.1142,109.8242,781.5933,109.5566Z"/><path fill="url(#a)" d="M779.0737,43.9453V-94.7442h8.2232V43.9453C795.1435,53.9092,771.227,53.9101,779.0737,43.9453Z"/><path fill="#c5e6ed" d="M719.2988,100.8437c32.5952-24.5586,51.9282-46.9336,59.7749-56.8984h8.2232c7.8466,9.9639,27.1787,32.3398,59.7749,56.8984Z"/><path fill="#d7f2f9" d="M350.8276,99.333a16.3389,16.3389,0,1,1,16.3389,16.3389A16.34011,16.34011,0,0,1,350.8276,99.333Z"/><path fill="#fff" d="M366.9443,109.5566c3.8677-.6982,9.1836-3.7392,10.1826-7.8271.356-1.459,2.6075-.8409,2.2505.6211-1.1909,4.874-7.1382,8.6132-11.813,9.457C366.0962,112.0732,365.4658,109.8242,366.9443,109.5566Z"/><path fill="url(#c)" d="M364.4248,43.9453V-94.7442h8.2231V43.9453C380.4946,53.9092,356.5781,53.9101,364.4248,43.9453Z"/><path fill="#c5e6ed" d="M304.6499,100.8437c32.5952-24.5586,51.9282-46.9336,59.7749-56.8984h8.2231c7.8467,9.9639,27.1788,32.3398,59.7749,56.8984Z"/><path fill="#669fad" d="M1104.66009,644.1865c-6.3959-30.5879-10.40029-61.5859-8.61709-93.0322a.85092.85092,0,0,0-1.7007-.0606c-1.7925,31.5987,2.23479,62.752,8.66549,93.4912C1103.55709,644.4463,1104.10939,644.3203,1104.66009,644.1865Z"/><path fill="#669fad" d="M1119.89889,582.25c-5.208,6.2178-9.7568,12.3896-10.9438,20.7265-1.4331,10.0635-1.0113,20.6846-.7681,30.8252.0806,3.336.2241,6.669.39651,10q.83564-.1626,1.67189-.3193c-.1065-2.1025-.2027-4.2051-.2725-6.3096-.3003-9.0781-.2905-18.1797.1138-27.2549.23-5.1406.6972-10.3134,2.9341-14.997,2.0234-4.2383,5.0693-7.8545,8.0454-11.4073C1121.78319,582.6689,1120.61569,581.3945,1119.89889,582.25Z"/><path fill="#9cc6d4" d="M1115.16159,502.0205a18.27344,18.27344,0,0,0,10.583-3.586,95.37233,95.37233,0,0,1-1.5727,19.9825c-4.1577,6.8886-15.6949,19.5605-14.9151,19.4873a36.52168,36.52168,0,0,0,9.2598-2.2178,71.33532,71.33532,0,0,1-7.0547,11.8525c-5.5962,7.6719-13.5698,13.8057-16.59959,23.169a.58535.58535,0,0,1-.3491.4101c-.0635.5176-.6338.9356-1.0928.4961-15.0557-14.6914-17.7471-37.0117-19.9575-57.1357-.105-.9561-.208-1.8945-.2959-2.8516a60.63545,60.63545,0,0,0,13.8774,11.1319c.73.4082-9.4272-16.295-14.3989-23.9903a46.3034,46.3034,0,0,1,2.5913-14.291c3.5239-9.7012,9.5645-18.7793,15.4287-27.1328.2359-.3447.5078-.6758.7442-1.0195a46.68159,46.68159,0,0,0,6.479,12.0605c.4819.6485-1.0679-12.2129-2.02049-18.0869,1.47159-1.8779,2.9433-3.7549,4.47359-5.5693,2.0102-2.4336,4.4858-6.5567,8.0908-6.0078,3.4981.5097,11.4678,15.2314,12.478,19.4433.4375,1.7969.8277,3.6348,1.1841,5.4766.1719.79.313,1.6006.4512,2.3945,1.3257,7.3955,2.1074,14.9785,2.68361,22.4092-.24711.3984-.49511.7969-.77781,1.1807C1121.52729,493.7148,1114.44239,502.0166,1115.16159,502.0205Z"/><path fill="#669fad" d="M1118.98289,482.2549c-5.1103,4.6611-10.4351,9.3203-17.3628,10.5332,1.5806-11.3662,3.4209-22.6953,5.5908-33.9678a.85156.85156,0,0,0-1.6811-.2725q-4.31475,22.40925-7.0425,45.0684a75.72445,75.72445,0,0,1-9.83249-20.3096c-.335-1.0713-1.9141-.418-1.5801.6514a77.299,77.299,0,0,0,10.5498,21.4482.748.748,0,0,0,.61619.3448q-.58665,4.95405-1.0913,9.914a47.37088,47.37088,0,0,1-7.29689-13.123c-.3823-1.0537-1.9624-.4053-1.5796.6513a48.86485,48.86485,0,0,0,8.294,14.5508.84058.84058,0,0,0,.3491.25q-2.63744,26.3628-3.18549,52.9082c-.022,1.1211,1.6689.9141,1.6909-.1963q.1758-9.0468.6133-18.0781a.7793.7793,0,0,0,.75439-.0986,28.73314,28.73314,0,0,0,7.7827-8.1826c.5923-.9366-.7329-2.0352-1.3306-1.0899a27.50778,27.50778,0,0,1-7.12109,7.5986q1.42018-28.2333,5.24949-56.2509c.0254-.002.0445.0078.0713.0039,7.4277-1.1543,13.1035-5.9746,18.5601-10.9522C1120.814,482.915,1119.80419,481.5049,1118.98289,482.2549Z"/><path fill="#669fad" d="M1091.5078,648.4844c-3.2119-25.1436-8.5718-49.7872-18.9785-72.8116-.3726-.8242,1.0576-1.4424,1.4282-.6201,10.458,23.1358,15.8423,47.9043,19.0669,73.1729C1092.5185,648.3076,1092.0132,648.3994,1091.5078,648.4844Z"/><path fill="#76b1c1" d="M1042.3857,545.2158a18.01879,18.01879,0,0,1-10.0097.8818,67.08505,67.08505,0,0,0,6.9863,14.4815c5.4819,3.7715,18.8721,9.3945,18.1885,9.6035a36.90911,36.90911,0,0,1-8.499,1.4619,54.84146,54.84146,0,0,0,9.3486,6.5225c6.9258,3.873,15.4385,5.7881,20.6611,11.7988a.4805.4805,0,0,0,.4126.1895.6058.6058,0,0,0,1.0689.0039c8.645-16.125,4.6215-33.8047.8105-49.6719-.1807-.7539-.3584-1.4932-.5547-2.2422a56.277,56.277,0,0,1-8.6489,13.0527c-.5049.5528,3.4067-15.4287,5.457-22.8906a32.79457,32.79457,0,0,0-6.2436-9.8623c-5.7378-6.0986-13.4395-10.8779-20.7862-15.1729-.2978-.1796-.6225-.3359-.9209-.5146a37.16854,37.16854,0,0,1-2.0971,11.251c-.2266.6504-2.5454-9.5371-3.3965-14.2715-1.7817-.9141-3.564-1.8281-5.3775-2.6738-2.3969-1.1495-5.6669-3.4112-8.5761-1.7803-2.8291,1.5644-5.4419,15.3183-5.1099,18.8242.1362,1.499.3247,3.0117.5425,4.5156.0767.6514.1865,1.3077.293,1.9512a162.2107,162.2107,0,0,0,4.0547,17.7441c.3227.2159.6459.4307.9951.625C1034.626,541.126,1042.9956,544.9697,1042.3857,545.2158Z"/><path fill="#669fad" d="M1033.5488,531.6553c5.6621,1.7763,11.5059,3.4785,17.7373,2.0488q-6.83565-12.00885-14.3564-23.6328c-.4942-.7598.8603-1.5293,1.352-.7735q10.00425,15.38085,18.729,31.4825a59.3409,59.3409,0,0,0,2.6162-18.5811c-.0185-.918,1.5088-.9609,1.5264-.0449a60.7139,60.7139,0,0,1-2.9028,19.6806.72954.72954,0,0,1-.4263.4668q1.8984,3.52305,3.731,7.0801a37.93845,37.93845,0,0,0,2.4922-12.3252c.0263-.9209,1.5532-.9678,1.5263-.0439a39.27523,39.27523,0,0,1-2.936,13.7343.80881.80881,0,0,1-.2261.3067q9.69585,18.91545,17.6665,38.6758c.336.8349-1.1601,1.2509-1.4927.4238q-2.70765-6.7368-5.6328-13.376a.78885.78885,0,0,1-.6689.1807,24.024,24.024,0,0,1-8.9292-3.5176c-.7686-.5039.0478-1.7773.8227-1.2695a22.94339,22.94339,0,0,0,8.2022,3.3037q-9.1905-20.73345-20.3667-40.4912a.54937.54937,0,0,1-.0596.0273c-6.6401,1.6426-12.8276-.0625-18.8735-1.958A.73749.73749,0,0,1,1033.5488,531.6553Z"/><path fill="#669fad" d="M1025.9346,520.6738a40.20533,40.20533,0,0,0,12.4643,4.7588c.9536.1836,1.4165-1.207.4785-1.3945a38.37768,38.37768,0,0,1-13.2358-5.3155C1025.7183,519.374,1025.8281,520.0303,1025.9346,520.6738Z"/><path fill="#76b1c1" d="M1182.48139,537.1474c-.0908,6.2959-14.2588,9.3448-18.7573,11.0547-9.95359,3.7871-19.6738,7.6104-27.03859,15.8438-8.67721,9.708-16.16061,20.9072-23.64891,31.6094a1.7344,1.7344,0,0,1-1.7685.7792,29.48534,29.48534,0,0,1-2.0621-4.6015c-2.58-6.5361-6.5312-18.5-5.5507-25.3194a42.02843,42.02843,0,0,1,4.5146-13.5947,12.34173,12.34173,0,0,0,2.8345,5.7569c.3574.372,1.1255-8.5987,1.6362-12.6709.6533-.8262,1.31791-1.628,2.0191-2.4014a44.22734,44.22734,0,0,1,5.2363-4.9561c.3974-.3281.7954-.6552,1.2046-.957a54.28243,54.28243,0,0,1,4.7705-3.2539q.6489-.394,1.3345-.7861c1.5366-.878,3.1323-1.6905,4.7627-2.4258a33.89926,33.89926,0,0,0,2.6313,8.9746c.27391.5986.94091-7.0889,1.04-10.4893,1.5376-.5986,3.10891-1.0937,4.7032-1.5615a26.27315,26.27315,0,0,0,1.9521,5.7959c.2178.4424,2.3247-4.7607,3.086-7.0498a59.79676,59.79676,0,0,1,15.1748-1.2197c.4336.0176.8671.0361,1.2871.0791,1.3613.0957,2.7075.2549,4.0268.4639,4.8823.7802,16.38191,3.957,16.607,10.7382A1.0471,1.0471,0,0,1,1182.48139,537.1474Z"/><path fill="#669fad" d="M1127.9785,553.6924c-14.123,14.3242-16.82321,42.7373-16.71191,42.7421a1.73372,1.73372,0,0,0,1.7685-.7792c7.4883-10.7022,14.9722-21.9024,23.6495-31.6094,7.3647-8.2334,17.0844-12.0567,27.0385-15.8438,4.4981-1.7109,18.6661-4.7597,18.7569-11.0547C1163.603,539.4101,1141.8315,539.6416,1127.9785,553.6924Z"/><path fill="#669fad" d="M1126.24759,547.9824a42.47356,42.47356,0,0,1-.3765-13.5459q.6489-.394,1.3345-.7861a41.442,41.442,0,0,0,.2568,14.0517C1127.6045,548.499,1126.40139,548.7929,1126.24759,547.9824Z"/><path fill="#669fad" d="M1121.64259,550.5049a55.414,55.414,0,0,1-1.7466-11.8575c.3974-.3281.7954-.6552,1.2046-.957a54.536,54.536,0,0,0,1.7573,12.5215A.62517.62517,0,0,1,1121.64259,550.5049Z"/><path fill="#474d63" d="M1129.27929,658.3457a78.71854,78.71854,0,0,1-4.44679,23.6416v.0263a76.6428,76.6428,0,0,1-9.84131,18.9239H1082.4575c-26.624-37.5498-8.1606-78.9756-7.4829-80.4942l.0273-.0537h47.44539A90.891,90.891,0,0,1,1129.27929,658.3457Z"/><path fill="#2e3248" d="M1124.8325,681.9873v.0263a76.6428,76.6428,0,0,1-9.84131,18.9239H1082.4575c-26.624-37.5498-8.1606-78.9756-7.4829-80.4942l.0273-.0537S1077.7402,704.4619,1124.8325,681.9873Z"/><path fill="#474d63" d="M1118.09759,703.2422H1079.3511a2.31588,2.31588,0,0,1-2.316-2.3155h0a2.31607,2.31607,0,0,1,2.316-2.3164h38.74649a2.31607,2.31607,0,0,1,2.316,2.3164h0A2.31588,2.31588,0,0,1,1118.09759,703.2422Z"/></g><path fill="#76b1c1" d="M967.1206,562.6465a.47289.47289,0,0,1,0,.2558l.5127-.2558ZM630.4551,557.539c-36.584,37.5635-80.8384,84.709-135.7017,84.8955l.4663,56.1465a5.24487,5.24487,0,0,1-.5835.0938v1.4219l.5835-1.1202v1.2832c75.5449-2.0752,125.6055-54.9336,173.8237-103.1748Z"/><path fill="#76b1c1" d="M780.4258,450.9599l-9.3028,48.3125c-3.0317,2.168-5.9926,4.4063-8.9306,6.7383-19.9356,15.668-38.0288,34.5772-54.5371,51.5283l-38.6119-39.5439c24.669-24.669,49.8272-50.5508,78.5997-70.2295q7.02975-4.8267,14.3862-9.0928Z"/><path fill="#f4a300" d="M757.1328,657.7529l10.0264,22.4307c-37.2832-20.751-69.0171-54.001-98.1158-83.0987L630.4551,557.539c-36.6304-33.8086-75.1026-82.2597-128.7539-84.7783l-11.961-15.2949,21.3809-42.0859c60.2734,5.7822,107.1626,51.6689,148.3159,92.9853q4.8618,4.8603,9.6064,9.6299l28.9825,29.6816,9.6294,9.8623c22.2671,20.5889,45.2343,46.5635,71.9077,64.3301Z"/><path fill="#f4a300" d="M986.4268,553.3896l-18.7935,9.2569h-.5127a.47289.47289,0,0,1,0,.2558l-30.1714,14.876-12.4741-5.9922v-.0234a84.42829,84.42829,0,0,0,1.2124-14.2237c0-1.166-.0234-2.331-.0698-3.4736-1.586-47.4023-35.79105-81.4209-81.9341-81.4209-26.5576,0-50.6431,11.0283-72.5606,26.6279l9.3028-48.3125-18.3965-12.2871c25.042-14.5263,52.9282-23.9228,85.5015-23.9228,78.5532,0,134.1162,54.9101,138.6396,132.4599C986.2866,549.2627,986.3799,551.3144,986.4268,553.3896Z"/><path fill="#f4a300" d="M494.6362,700.0967l.5835-1.1202v1.2832c-1.539.0459-3.0781.0704-4.6401.0704-74.1001,0-128.8467-49.9913-137.6836-121.9922l60.0395-30.126a88.35663,88.35663,0,0,0-.5127,9.3271c0,49.1983,34.7413,84.8955,82.0039,84.8955h.3267l.4663,56.1465a5.24487,5.24487,0,0,1-.5835.0938Z"/><path fill="#76b1c1" d="M489.7402,457.4658l11.961,15.2949c-1.4453-.0928-2.9146-.1162-4.3833-.1162-44.9073,0-79.7652,34.252-84.3824,75.5674l-60.0395,30.126a168.3339,168.3339,0,0,1-1.2593-20.7989c0-76.2207,61.7417-142.789,146.6607-142.789,4.3369,0,8.6269.2099,12.8237.6299Z"/><path fill="#e5c7e7" d="M495.4292,698.5566l-.2095.4199-.5835,1.1202v-1.4219a5.24487,5.24487,0,0,0,.5835-.0938A.61746.61746,0,0,0,495.4292,698.5566Z"/><path fill="#e5c7e7" d="M906.2412,562.6465h.04688v.0224Z"/><path fill="#e5c7e7" d="M967.6333,562.6465l-.5127.2558a.47289.47289,0,0,0,0-.2558Z"/><path fill="#76b1c1" d="M986.4736,557.539c0,76.2217-61.7656,142.7911-146.6606,142.7911-20.7285,0-39.9175-4.8038-57.8247-12.7549-5.0362-2.2149-9.9566-4.6866-14.8062-7.3916h-.0229l-10.0264-22.4307,22.4302-35.8838c2.2153,1.4922,4.477,2.9151,6.7617,4.291,16.5083,9.8389,34.439,16.2744,54.4673,16.2744,43.1123,0,76.9448-31.5703,83.6831-70.6484l12.4741,5.9922,30.1714-14.876.5127-.2558,18.7935-9.2569C986.4502,554.7646,986.4736,556.1406,986.4736,557.539Z"/><path fill="#e5c7e7" d="M967.1206,562.6465h.5127l-.5127.2558A.47289.47289,0,0,0,967.1206,562.6465Z"/><path fill="#ffba31" d="M757.1328,657.7529l17.3013,34.4854c-49.105-17.3233-88.8594-59.3868-124.627-95.1534L611.2187,557.539c-30.1015-27.7929-61.4389-65.4716-101.4502-79.415-.1865-.0703-.3725-.1172-.5356-.1875l-14.5967-30.4512,15.1094-29.1689h.0229c56.3331,13.1514,100.6343,60.2734,140.0386,99.6787l38.6123,39.5439c26.1607,24.1797,53.2779,55.7969,86.2012,72.8174Z"/><path fill="#9cc6d4" d="M967.1206,562.9023c-2.7979,73.96-63.65381,137.4278-146.5439,137.4278a137.48952,137.48952,0,0,1-46.1426-8.0918l-17.3013-34.4854,17.4878-27.3965c14.4092,7.4385,29.9145,12.0781,46.9355,12.0781,46.4229,0,82.09721-36.6064,84.732-79.7656l30.66112,15.1094Z"/><path fill="#ffba31" d="M967.2373,557.539c0,1.7022-.0234,3.4053-.1167,5.1075a.47289.47289,0,0,1,0,.2558l-30.1714,14.876-30.66112-15.1094v-.0224c.1167-1.7022.16308-3.4053.16308-5.1075,0-49.1972-34.74166-84.8945-82.00386-84.8945-18.1167,0-35.0909,5.1299-51.0162,13.3604l6.9947-35.045-25.7412-18.6533c21.9174-10.8418,46.0966-17.5566,73.6098-17.5566C910.2983,414.75,967.2373,474.5801,967.2373,557.539Z"/><path fill="#9cc6d4" d="M649.8071,597.0849c-43.9516,43.9737-89.4414,91.7725-154.3779,101.4717l14.3393-27.6758-14.6191-30.498c45.9102-9.5127,83.9624-49.874,116.0693-82.8438Z"/><path fill="#9cc6d4" d="M780.4258,450.9599l-6.9947,35.045c-28.2363,14.5957-53.1845,38.9384-75.4052,61.6718l-28.9825-29.6816q-4.75695-4.75635-9.6064-9.6299c12.8242-12.8476,25.9043-25.7646,39.6616-37.6797,17.1841-14.9697,35.4405-28.3994,55.586-38.3789Z"/><path fill="#ffba31" d="M509.7685,670.8808l-14.3393,27.6758c-.2564.0469-.5361.0713-.793.1182a164.03906,164.03906,0,0,1-23.2925,1.6553c-81.0483,0-138.9433-59.8077-138.9433-142.7911l29.2158,15.1563L393.187,557.539c0,49.1983,34.7412,84.8955,82.0034,84.8955a97.64565,97.64565,0,0,0,19.4458-1.9589,3.46077,3.46077,0,0,1,.5132-.0928Z"/><path fill="#9cc6d4" d="M494.6362,447.4853l14.5967,30.4512a95.7158,95.7158,0,0,0-31.1509-5.292c-48.2422,0-84.895,39.544-84.895,84.8945l-31.5708,15.1563L332.4004,557.539c0-76.2207,61.7422-142.789,146.6606-142.789a133.86744,133.86744,0,0,1,30.6846,3.5664Z"/><path fill="#f4a300" d="M263.6426,257.7275l93.7861-.2519a19.21328,19.21328,0,0,1,19.2583,19.1718l.0718,32.6661a19.2143,19.2143,0,0,1-19.1729,19.2578l-64.4424.1884-24.6108,19.9248h-8.4648L272.52,328.8056l-8.7202.0186a19.21663,19.21663,0,0,1-19.2588-19.1729l-.0713-32.666A19.21616,19.21616,0,0,1,263.6426,257.7275Z"/><path fill="#ffba31" d="M255.1777,257.7275l93.7862-.2519a19.21522,19.21522,0,0,1,19.2587,19.1718l.0713,32.6661a19.214,19.214,0,0,1-19.1723,19.2578l-64.4424.1884-24.6113,19.9248,3.9878-19.8789-8.7203.0186a19.217,19.217,0,0,1-19.2592-19.1729l-.0713-32.666A19.21633,19.21633,0,0,1,255.1777,257.7275Z"/><path fill="#fff" d="M275.4346,294.9795l4.3115,1.3691a9.66,9.66,0,0,1-3.2979,5.3555,10.382,10.382,0,0,1-13.0644-1.2451q-2.8242-2.99865-2.8237-8.1973,0-5.4975,2.8398-8.543a9.73536,9.73536,0,0,1,7.4663-3.042,9.16207,9.16207,0,0,1,6.5654,2.3887,8.69369,8.69369,0,0,1,2.2544,4.0586l-4.4023,1.0508a4.55445,4.55445,0,0,0-4.6421-3.6973,5.01138,5.01138,0,0,0-3.9736,1.7588q-1.52565,1.75635-1.5254,5.6934,0,4.17915,1.5024,5.9521a4.874,4.874,0,0,0,3.9063,1.7715,4.45128,4.45128,0,0,0,3.0503-1.1279A6.54371,6.54371,0,0,0,275.4346,294.9795Z"/><path fill="#fff" d="M282.6611,292.2021a14.01185,14.01185,0,0,1,1.0069-5.6513,10.37143,10.37143,0,0,1,2.0507-3.0186,8.62668,8.62668,0,0,1,2.8467-1.9844,12.149,12.149,0,0,1,4.7486-.8711,10.3435,10.3435,0,0,1,7.7905,3.0215q2.9202,3.02055,2.9223,8.3985,0,5.3349-2.8999,8.3447a10.25282,10.25282,0,0,1-7.7524,3.0127,10.373,10.373,0,0,1-7.8135-2.9951Q282.6621,297.46035,282.6611,292.2021Zm4.5825-.1523a8.26532,8.26532,0,0,0,1.7271,5.6738,5.94294,5.94294,0,0,0,8.7529.0147q1.70445-1.9161,1.7051-5.7491,0-3.7836-1.6597-5.6474a6.14771,6.14771,0,0,0-8.8423.0234Q287.24445,288.2504,287.2436,292.0498Z"/><path fill="#fff" d="M307.4824,281.0527h8.1279a15.83137,15.83137,0,0,1,4.1914.4209,7.36762,7.36762,0,0,1,3.3209,2.0274,9.64683,9.64683,0,0,1,2.1035,3.5683,16.26914,16.26914,0,0,1,.7216,5.207,14.50943,14.50943,0,0,1-.6757,4.6885,9.733,9.733,0,0,1-2.3599,3.8916,7.81626,7.81626,0,0,1-3.125,1.7559,13.385,13.385,0,0,1-3.9365.4668h-8.3682Zm4.4478,3.7256v14.5889h3.3193a12.10538,12.10538,0,0,0,2.689-.209,4.11765,4.11765,0,0,0,1.7959-.916,4.67793,4.67793,0,0,0,1.164-2.128,14.34933,14.34933,0,0,0,.4512-4.0332,13.12716,13.12716,0,0,0-.4512-3.9199,5.01952,5.01952,0,0,0-1.2612-2.1338,4.224,4.224,0,0,0-2.0576-1.0371,20.19736,20.19736,0,0,0-3.6519-.2119Z"/><path fill="#fff" d="M329.7183,303.0791V281.0527h16.3315v3.7256H334.166v4.8828h11.0576v3.7119H334.166v5.9942h12.3052v3.7119Z"/><path fill="#e25a40" d="M741.5718,310.581l-98.5899-.2656a20.1991,20.1991,0,0,0-20.2451,20.1543l-.0757,34.3398a20.19869,20.19869,0,0,0,20.1548,20.2442l67.7437.1982,25.8711,20.9453h8.8984l-13.0899-20.8974,9.167.0195a20.19975,20.19975,0,0,0,20.2452-20.1543l.0752-34.3398A20.201,20.201,0,0,0,741.5718,310.581Z"/><path fill="#f06a4a" d="M750.4702,310.581l-98.5903-.2656a20.20089,20.20089,0,0,0-20.2451,20.1543l-.0752,34.3398a20.19794,20.19794,0,0,0,20.1543,20.2442l67.7436.1982,25.8716,20.9453-4.1919-20.8974,9.167.0195a20.19967,20.19967,0,0,0,20.2451-20.1543l.0752-34.3398A20.19986,20.19986,0,0,0,750.4702,310.581Z"/><path fill="#fff" d="M661.7065,358.2558V339.0176h-6.8701v-3.917h18.3999v3.917h-6.8554v19.2382Z"/><path fill="#fff" d="M676.2529,358.2558V335.1006h17.1685v3.917H680.9282v5.1337h11.6245v3.9024H680.9282v6.3008h12.9356v3.9013Z"/><path fill="#fff" d="M696.6426,350.7236l4.5493-.4433a5.549,5.549,0,0,0,1.6665,3.3632,5.03355,5.03355,0,0,0,3.3887,1.0743,5.20187,5.20187,0,0,0,3.4038-.9571,2.83747,2.83747,0,0,0,1.1435-2.2334,2.10294,2.10294,0,0,0-.4819-1.3974,3.8312,3.8312,0,0,0-1.6812-1.002q-.8217-.2841-3.7436-1.0117a12.66351,12.66351,0,0,1-5.2749-2.291,6.02588,6.02588,0,0,1-2.1328-4.6582,5.94221,5.94221,0,0,1,1.0034-3.3086,6.274,6.274,0,0,1,2.8906-2.3448,11.55039,11.55039,0,0,1,4.5567-.8066q4.35855,0,6.562,1.9111a6.74208,6.74208,0,0,1,2.3134,5.0997l-4.6738.208a3.96641,3.96641,0,0,0-1.2871-2.5674,4.71476,4.71476,0,0,0-2.9624-.7832,5.35087,5.35087,0,0,0-3.1904.8369,1.687,1.687,0,0,0-.7417,1.4394,1.7816,1.7816,0,0,0,.6938,1.4053,12.354,12.354,0,0,0,4.2964,1.5479,22.73071,22.73071,0,0,1,5.0474,1.665,6.50568,6.50568,0,0,1,2.5576,2.3545,7.28881,7.28881,0,0,1-.1807,7.415,6.62472,6.62472,0,0,1-3.1279,2.583,13.11235,13.11235,0,0,1-5.0386.8428q-4.3893,0-6.7441-2.0293A8.82439,8.82439,0,0,1,696.6426,350.7236Z"/><path fill="#fff" d="M724.6152,358.2558V339.0176h-6.8706v-3.917h18.3999v3.917h-6.8554v19.2382Z"/><path fill="#76b1c1" d="M821.9761,168.9804l-103.9151-.2802a21.29148,21.29148,0,0,0-21.3388,21.2431l-.0796,36.1944a21.29017,21.29017,0,0,0,21.2436,21.3379l71.4024.2089,27.2685,22.0762h9.3789l-13.7964-22.0254,9.6617.0205a21.29141,21.29141,0,0,0,21.3388-21.2431l.0791-36.1944A21.29167,21.29167,0,0,0,821.9761,168.9804Z"/><path fill="#9cc6d4" d="M831.3545,168.9804l-103.9151-.2802a21.29333,21.29333,0,0,0-21.3388,21.2431l-.0791,36.1944a21.28953,21.28953,0,0,0,21.2436,21.3379l71.4019.2089,27.269,22.0762-4.4179-22.0254,9.6621.0205a21.292,21.292,0,0,0,21.3388-21.2431l.0791-36.1944A21.29145,21.29145,0,0,0,831.3545,168.9804Z"/><path fill="#fff" d="M728.0425,194.8252h9.7549a28.41726,28.41726,0,0,1,4.3203.2412,6.359,6.359,0,0,1,2.5468,1.0088,6.29127,6.29127,0,0,1,1.8741,2.0371,5.55388,5.55388,0,0,1,.7485,2.8564,5.7846,5.7846,0,0,1-3.4302,5.293,6.43059,6.43059,0,0,1,3.4302,2.2148,5.88225,5.88225,0,0,1,1.1982,3.6778,7.25139,7.25139,0,0,1-.7744,3.2402,6.53536,6.53536,0,0,1-2.1133,2.5127,6.99306,6.99306,0,0,1-3.3056,1.1592q-1.232.13335-5.9429.165h-8.3066Zm4.9267,4.0615v5.6455h3.2305q2.87985,0,3.5796-.0859a3.24985,3.24985,0,0,0,1.9892-.8721,2.57668,2.57668,0,0,0,.7237-1.9072,2.67641,2.67641,0,0,0-.6236-1.8379,2.81953,2.81953,0,0,0-1.8559-.8565q-.7332-.0864-4.2129-.0859Zm0,9.707v6.5244h4.5616a22.6866,22.6866,0,0,0,3.3793-.1484,3.0481,3.0481,0,0,0,1.7901-.9746,3.00222,3.00222,0,0,0,.6919-2.0723,3.19134,3.19134,0,0,0-.5332-1.8662,3.02538,3.02538,0,0,0-1.5405-1.1133,16.6349,16.6349,0,0,0-4.3697-.3496Z"/><path fill="#fff" d="M752.6138,194.8252h4.9282v13.2207a27.45605,27.45605,0,0,0,.1821,4.0771,3.95753,3.95753,0,0,0,1.5073,2.4053,5.23884,5.23884,0,0,0,3.2544.9082,4.96927,4.96927,0,0,0,3.1636-.8574,3.39788,3.39788,0,0,0,1.2822-2.1074,27.69559,27.69559,0,0,0,.2159-4.1446V194.8252h4.9282v12.8203a32.93784,32.93784,0,0,1-.3999,6.2099,6.9016,6.9016,0,0,1-1.4741,3.0625,7.46451,7.46451,0,0,1-2.8721,1.9893,12.51851,12.51851,0,0,1-4.6934.7393,13.56184,13.56184,0,0,1-5.3022-.8057,7.59263,7.59263,0,0,1-2.856-2.0977,6.701,6.701,0,0,1-1.3804-2.707,29.57819,29.57819,0,0,1-.4838-6.1914Z"/><path fill="#fff" d="M777.1191,219.2314V194.8252h4.9283v24.4062Z"/><path fill="#fff" d="M786.8745,219.2314v-24.207h4.9277v20.0937h12.252v4.1133Z"/><path fill="#fff" d="M807.5493,194.8252h9.0059a17.54061,17.54061,0,0,1,4.6445.4668,8.16088,8.16088,0,0,1,3.6792,2.2461,10.68637,10.68637,0,0,1,2.3311,3.9541,18.03219,18.03219,0,0,1,.7993,5.7695,16.07507,16.07507,0,0,1-.7486,5.1943,10.79523,10.79523,0,0,1-2.6147,4.3125,8.67749,8.67749,0,0,1-3.4619,1.9453,14.85536,14.85536,0,0,1-4.3623.5176h-9.2725Zm4.9287,4.1289v16.164h3.6778a13.45367,13.45367,0,0,0,2.9799-.2314,4.54382,4.54382,0,0,0,1.9893-1.0156,5.177,5.177,0,0,0,1.29-2.3575,15.90194,15.90194,0,0,0,.5-4.4677,14.5593,14.5593,0,0,0-.5-4.3448,5.56148,5.56148,0,0,0-1.3979-2.3642,4.673,4.673,0,0,0-2.2798-1.1484,22.32575,22.32575,0,0,0-4.0464-.2344Z"/><polygon fill="#76b1c1" points="225.842 701.829 229.197 701.829 223.53 608.756 216.421 608.756 225.842 701.829"/><polygon fill="#76b1c1" points="186.7 701.829 190.055 701.829 184.388 608.756 177.279 608.756 186.7 701.829"/><polygon fill="#76b1c1" points="76.507 701.829 73.152 701.829 77.136 608.756 84.245 608.756 76.507 701.829"/><polygon fill="#76b1c1" points="115.649 701.829 112.293 701.829 116.278 608.756 123.387 608.756 115.649 701.829"/><path fill="#a2a54c" d="M228.3428,612.4248c-2.0147-10.5098-11.626-51.3154-39.3775-51.9375-27.7427-.5938-37.0097,41.331-38.9072,51.9375h-4.9644a123.089,123.089,0,0,1,7.9844-27.4014c8.5054-19.5849,20.937-29.7119,35.9966-29.4199,14.9805.3369,27.4541,10.7002,36.0718,29.9697a121.02749,121.02749,0,0,1,8.1709,26.8516Z"/><path fill="#9cc6d4" d="M66.2715,455.7041l5.8696,117.164,18.4478,26.0528,41.3383,3.1601c.6914,7.6621,1.2642,12.4424,1.2642,12.4424H234.9287s5.688-13.0146,0-26.4463c-3.8911-9.1445-34.7617-10.2109-54.0981-9.9345-9.0855.1181-15.6226.5136-15.6226.5136v-.3955c-.1582-5.9248-8.042-112.1875-20.5249-121.9844v-.039a8.10987,8.10987,0,0,0-1.521-.8106,2.03153,2.03153,0,0,0-.1973-.0781.35574.35574,0,0,0-.1381-.04c-6.1626-2.2315-23.6617-3.4561-41.1412-3.2002C88.0967,452.3261,74.4883,453.4326,66.2715,455.7041Z"/><path fill="#9cc6d4" d="M66.2715,455.7041l5.8696,117.164,18.4478,26.0528,41.3383,3.1601c.6914,7.6621,1.2642,12.4424,1.2642,12.4424h92.0195s5.708-13.0146,0-26.4463c-3.2588-7.7226-25.8144-9.6777-44.3803-9.9345-5.8462-.0987-11.2974-.0196-15.6226.1181-5.8857.1582-9.7178.3955-9.7178.3955s-7.4887-112.1494-20.5244-122.3799v-.039a4.59416,4.59416,0,0,0-.8491-.5137,4.12924,4.12924,0,0,0-.6719-.2969c-.0586-.0195-.1186-.0586-.1777-.0781a.44794.44794,0,0,0-.1582-.04c-4.9966-1.8174-17.5186-2.9825-31.4234-3.2002C88.0967,452.3261,74.4883,453.4326,66.2715,455.7041Z"/><path fill="#76b1c1" d="M75.4004,614.5234H177.1377s5.688-13.0146,0-26.4463c-5.689-13.4306-83.0137-.415-83.0137-.415S82.3296,454.5576,66.2715,455.7041c-4.2656.2959-7.169,3.2783-9.0454,8.0976C46.5806,491.2158,75.4004,614.5234,75.4004,614.5234Z"/><path fill="#669fad" d="M75.4004,614.5234h98.9912c.9482-5.0556-90.147-5.7676-90.147-5.7676S61.5561,543.25,57.2261,463.8017C46.5806,491.2158,75.4004,614.5234,75.4004,614.5234Z"/><polygon fill="#f5e9df" points="246.485 684.015 258.322 642.64 287.483 641.93 275.207 678.172 246.485 684.015"/><path fill="#76b1c1" d="M250.0088,670.7304l27.9131-.3476,31.8862,15.6601a11.6561,11.6561,0,0,1,7.0552,10.6358l.0049.7734a3.94165,3.94165,0,0,1-3.9165,3.9649l-66.0479.4121a4.05171,4.05171,0,0,1-4.0762-4.0254Z"/><path fill="#2e3248" d="M242.8276,697.8037l.9287-3.501,73.0977.9199.0142,2.2295a3.94165,3.94165,0,0,1-3.9165,3.9649l-66.0479.4121A4.05171,4.05171,0,0,1,242.8276,697.8037Z"/><polygon fill="#f5e9df" points="347.346 677.168 339.69 638.399 368.85 637.69 375.937 669.124 347.346 677.168"/><path fill="#9cc6d4" d="M344.9785,669.8437l30.3843-3.0234,40.1948,17.2637a11.65213,11.65213,0,0,1,7.0552,10.6357l.0049.7725a3.94121,3.94121,0,0,1-3.9165,3.9658l-66.0474.4111a4.0501,4.0501,0,0,1-4.0762-4.0254Z"/><path fill="#2e3248" d="M348.5776,695.8437l-.4531-3.2724,74.4795.6923.0137,2.2286a3.94121,3.94121,0,0,1-3.9165,3.9658l-66.0474.4111A4.0501,4.0501,0,0,1,348.5776,695.8437Z"/><path fill="#e25a40" d="M181.5386,505.3222c4.709.7725,134.0249,18.9385,134.0249,18.9385l-9.0484,60.4883s-98.5742-2.6064-133.2759-13.0098C145.8193,563.5195,167.3393,502.9951,181.5386,505.3222Z"/><path fill="#e25a40" d="M269.8613,519.9463c2.7871,1.7578,24.0347,3.1533,42.6089,4.0537a44.07338,44.07338,0,0,1,39.0234,28.3144l39.1949,102.6514-64.7325,2.4414Z"/><path fill="#f06a4a" d="M130.3784,513.331c4.7095.7715,144.4424,17.0899,144.4424,17.0899l-9.0483,60.4883s-98.5743-2.6065-133.2764-13.0098C105.0762,569.6797,116.1797,511.0039,130.3784,513.331Z"/><path fill="#f06a4a" d="M239.4639,526.2842c6.9619,1.3183,24.6337,2.7109,41.7563,3.6103a27.19542,27.19542,0,0,1,24.7544,34.4356l-6.8472,96.7959-64.7319,2.4414Z"/><path fill="#f5e9df" d="M192.5254,437.999l65.0752,46.7568,8.7578-33.3271-47.6016-43.7813c-.0962-.0888-.2002-.165-.2983-.25C215.1728,411.6299,197.8579,432.0107,192.5254,437.999Z"/><path fill="#f5e9df" d="M275.1733,479.7881l37.2613-67.8555-21.9771-17.1397-40.0942,59.9756,4.25,27.3672A12.35857,12.35857,0,0,0,275.1733,479.7881Z"/><path fill="#2e3248" d="M179.5747,398.6269c-7.4404,8.1992-8.1006,19.8194-1.4741,25.9541l24.8965,23.0489c1.5463,1.4316,8.8315-4.0547,16.2724-12.2539,7.4405-8.1993,12.2188-16.0059,10.6729-17.4375l-24.8965-23.0489C198.4189,388.7549,187.0156,390.4287,179.5747,398.6269Z"/><path fill="#3c4159" d="M233.7466,513.7392,113.8984,537.0566s3.6992-101.7627,9.4361-126.3779c3.2793-14.0713,13.8017-20.918,20.3628-20.918h43.7846c9.2788,0,20.8096,8.3828,24.9136,22.7295C218.3623,433.3486,233.7466,513.7392,233.7466,513.7392Z"/><path fill="#eadace" d="M164.5727,362.5556s1.3038,16.2637,1.8101,27.1973c2.228,5.5059,18.8115,6.6338,21.0645,2.7861L185.71,370.8691Z"/><path fill="#f5e9df" d="M197.7515,360.1455c0,11.9707-5.501,23.0674-13.9009,23.0674-6.9336,0-20.6353-11.2119-20.6353-23.1826s7.4893-21.6739,16.7281-21.6739C195.4951,338.3564,197.7515,348.1748,197.7515,360.1455Z"/><path fill="#2e3248" d="M183.8506,360.1455a1.60427,1.60427,0,1,1-1.5791-1.8887A1.755,1.755,0,0,1,183.8506,360.1455Z"/><path fill="#2e3248" d="M194.4653,359.0908a1.60412,1.60412,0,1,1-1.5791-1.8877A1.75491,1.75491,0,0,1,194.4653,359.0908Z"/><path fill="#2e3248" d="M187.1431,370.3154c-.9126,0-1.7373-.0732-2.0396-.1035l.0747-.7461c1.6055.1592,4.0615.165,4.5044-.3272a.09045.09045,0,0,0,.0254-.0957c-.2842-1.3681-1.5015-5.8144-1.5137-5.8593l.7237-.1973c.0503.1836,1.2353,4.5127,1.5244,5.9043a.82721.82721,0,0,1-.2022.749C189.751,370.1836,188.3677,370.3154,187.1431,370.3154Z"/><path fill="#2e3248" d="M186.7529,376.2353h-.0244a4.7395,4.7395,0,0,1-3.1572-1.5039l.5581-.501a4.03863,4.03863,0,0,0,2.6094,1.2549h.0131a3.3553,3.3553,0,0,0,2.4532-1.2578l.5517.5078A4.06947,4.06947,0,0,1,186.7529,376.2353Z"/><path fill="#2e3248" d="M179.0654,357.0195l-.6133-.4316a4.44184,4.44184,0,0,1,3.0411-2.0576,4.80737,4.80737,0,0,1,3.3833,1.0468l-.483.5733a4.14,4.14,0,0,0-2.811-.876A3.737,3.737,0,0,0,179.0654,357.0195Z"/><path fill="#2e3248" d="M190.3809,355.6103l-.5879-.4648a3.72431,3.72431,0,0,1,2.7295-1.6221,3.6649,3.6649,0,0,1,2.6362,1.1192l-.5454.5146a3.07319,3.07319,0,0,0-1.9698-.8867c-.0312,0-.0629.001-.0952.0019A3.02951,3.02951,0,0,0,190.3809,355.6103Z"/><path fill="#2e3248" d="M172.8047,345.5996s-6.9282,5.6426-7.3892,28.251c-21.9912-13.0664-13.7378-50.711,12.8687-43.3262,16.5283-3.709,13.3574,7.832,29.104,7.832C204.0215,351.3125,175.5469,350.0556,172.8047,345.5996Z"/><path fill="#f5e9df" d="M169.4111,360.9775c0,3.0254-1.1128,5.9424-3.791,5.9424-2.6777,0-5.3037-2.9775-5.9062-5.9424-.6065-2.9824,1.2002-5.9453,3.8784-5.9453A6.47614,6.47614,0,0,1,169.4111,360.9775Z"/><path fill="#f5e9df" d="M118.6582,415.3359,87.2026,497.3906l39.5664,1.2051,28.354-69.8369c.0469-.1143.0791-.2325.1226-.3477C150.2891,426.872,125.9077,418.124,118.6582,415.3359Z"/><path fill="#2e3248" d="M149.71,390.8955c-9.9766-3.9336-21.0992.3017-24.8433,9.4599l-14.3106,34.4375c-.8735,2.1377,6.7505,7.0293,16.7266,10.962,9.9766,3.9336,18.7725,5.3906,19.646,3.2539l14.0659-34.4092C164.7383,405.4414,159.686,394.8281,149.71,390.8955Z"/><path fill="#17171d" d="M143.9189,450.4951c-3.9404.001-10.5463-1.8027-16.8188-4.2764-8.8809-3.5009-15.8457-7.7324-16.938-10.289a1.68165,1.68165,0,0,1-.0688-1.3262.50012.50012,0,0,1,.9257.3789.73753.73753,0,0,0,.063.5547c.8399,1.9668,6.7378,5.9482,16.3853,9.7519,10.9067,4.2998,18.4165,4.9551,18.999,3.5284l14.0659-34.4073a16.4105,16.4105,0,0,0-.186-12.7422,19.51445,19.51445,0,0,0-10.8203-10.3085.49979.49979,0,1,1,.3672-.9297,20.51916,20.51916,0,0,1,11.373,10.8457,17.40687,17.40687,0,0,1,.1919,13.5136l-14.0659,34.4073C147.022,450.1006,145.7617,450.4951,143.9189,450.4951Z"/><path fill="#2e3248" d="M211.5376,440.7236c-2.9043-1.5683-6.0933-1.2383-9.1729-.4062a89.062,89.062,0,0,1-9.4448,2.3349c-6.501,1.0205-13.209,1.2002-19.3603,3.7705a2.09635,2.09635,0,0,0-1.2471,1.2715,1.66648,1.66648,0,0,0-.2725.9297,1.81038,1.81038,0,0,0,1.7969,1.7979c.896-.085,1.7881-.1905,2.6816-.2881,11.5074-1.1094,23.3521-.6778,34.087-5.5703a1.38874,1.38874,0,0,0,.6303-.6075A1.81387,1.81387,0,0,0,211.5376,440.7236Z"/><path fill="#f2f8ff" d="M184.2886,394.3369s-13.8404,1.8867-17.9058-4.584h-4.9346s10.8125,13.1865,19.0352,14.707Z"/><path fill="#f2f8ff" d="M184.2886,394.3369l8.2368,6.6475s-1.2842-9.6485-3.6919-11.2315a3.10888,3.10888,0,0,0-1.6094,0l.2232,2.7861A29.95113,29.95113,0,0,1,184.2886,394.3369Z"/><path fill="#2e3248" d="M174.6577,326.5283a11.91,11.91,0,0,1,3.7842,4.0469c.665-.668,1.3359-1.3321,2.0395-1.961a5.5776,5.5776,0,0,1,2.4864-1.5351c.6284-.1289.8969.8349.2661.9648a5.187,5.187,0,0,0-2.291,1.4981q-1.1646,1.05615-2.2574,2.1865a.50378.50378,0,0,1-.7851-.1016,10.89542,10.89542,0,0,0-3.7476-4.2353C173.6177,327.039,174.1182,326.1728,174.6577,326.5283Z"/><rect width="81.759" height="3.58" x="224.66" y="519.412" fill="#76b1c1" transform="rotate(-4.065 265.54 521.202)"/><polygon fill="#aad5e0" points="224.89 525.886 187.628 522.814 187.374 519.242 224.636 522.315 224.89 525.886"/><polygon fill="#76b1c1" points="187.374 519.242 279.724 509.955 306.189 516.519 224.636 522.315 187.374 519.242"/><path fill="#9cc6d4" d="M303.8906,516.6826l-81.2295,5.7725,7.1397-50.7725a3.06959,3.06959,0,0,1,2.7632-2.7051l73.1547-5.1992a4.75687,4.75687,0,0,1,4.8287,5.5654Z"/><path fill="#aad5e0" d="M305.8652,516.542l-81.2295,5.7734,7.1397-50.7734a3.06958,3.06958,0,0,1,2.7632-2.7051l74.6953-5.3086a3.46387,3.46387,0,0,1,3.5161,4.0527Z"/><path fill="#9cc6d4" d="M305.8652,516.542l-62.8462,4.4668,39.0308-55.5489,27.1841-1.9316a3.46387,3.46387,0,0,1,3.5161,4.0527Z"/><path fill="#f5e9df" d="M186.7681,531.7324l11.5908-22.6514L95.2529,483.8584l-6.206,9.8476a20.36237,20.36237,0,0,0,15.3252,31.1299Z"/><path fill="#f5e9df" d="M186.9639,510.1787a18.53428,18.53428,0,0,1,11.1464-1.0234c2.9585-.3536,5.9039-.8047,8.8262-1.4063,2.6885-.5527,6.6001-2.4854,8.6958.2275,2.6001,3.3663.0752,6.5772-3.2373,8.4034,2.2271,2.248,6.1592,8.0752,6.2144,12.206.6723,2.0733.6899,4.1309-1.6934,5.4434a5.80469,5.80469,0,0,1-5.251-.1846,3.59808,3.59808,0,0,1-2.0263,1.9356c-2.4522,1.0429-4.5201-.292-6.3653-1.8663-1.4316,1.7852-4.7275,1.6748-7.2983.1592a4.91149,4.91149,0,0,1-3.5249,2.0811c-3.9063.541-6.4497-2.6846-8.3682-5.583C179.4492,523.5703,177.9141,514.3613,186.9639,510.1787Z"/><path fill="#d07d73" d="M192.1313,537.0068a8.18566,8.18566,0,0,1-4.4355-1.6006c-2.1602-1.4375-4.8232-5.4599-4.9356-5.6299a.50012.50012,0,1,1,.835-.5507c.0264.04,2.6636,4.0234,4.6543,5.3486,1.877,1.248,3.5278,1.6855,4.9038,1.2939a4.04829,4.04829,0,0,0,2.3672-2.0019.50046.50046,0,0,1,.7305-.209c3.9975,2.6445,6.5522.0273,6.6582-.0859a.50225.50225,0,0,1,.6816-.044c1.7891,1.4688,3.4463,2.084,4.9248,1.8447a4.31261,4.31261,0,0,0,2.7241-1.789.5022.5022,0,0,1,.6592-.1797c2.2261,1.1768,4.2261,1.2705,5.3526.252,1.6518-1.4971,1.4614-5.1397-.5225-9.9932-4.0107-9.8164-15.0161-11.1436-15.127-11.1553a.50045.50045,0,0,1-.4423-.5517.49522.49522,0,0,1,.5512-.4424c.1167.0127,11.7041,1.3945,15.9439,11.7705,2.1841,5.3437,2.2793,9.291.268,11.1133-1.4003,1.2675-3.6103,1.2929-6.1054.0869a5.20648,5.20648,0,0,1-3.1226,1.872c-1.6826.2881-3.5-.3183-5.4062-1.79a6.021,6.021,0,0,1-7.1387.207,4.90991,4.90991,0,0,1-2.709,2.0537A4.70939,4.70939,0,0,1,192.1313,537.0068Z"/><path fill="#d07d73" d="M198.1909,529.9853a31.94565,31.94565,0,0,1-5.291-.4297.5.5,0,1,1,.165-.9863,36.15163,36.15163,0,0,0,17.2808-1.7129.49963.49963,0,1,1,.3711.9278A36.76693,36.76693,0,0,1,198.1909,529.9853Z"/><path fill="#f5e9df" d="M306.6816,417.6367s3.0899-4.8311,7.3653-4.6856a36.19279,36.19279,0,0,0,12.4917-2.0458,97.4721,97.4721,0,0,0,13.6391-7.6163l-8.7334-15.122-14.6611,5.5908s-15.4736-4.6738-20.1191-3.6846c-4.6451.9883-8.9273,10.1768-8.9273,10.1768Z"/><path fill="#f5e9df" d="M331.6973,388.4511s3.0151-.7617,3.7378.3682c.7226,1.1289-1.5987,2.9453-1.5987,2.9453s2.9737-.959,3.9536.3809c.9805,1.3398-1.3442,2.6973-1.3442,2.6973s3.3852-.6915,4.0688.83-1.9331,3.6094-1.9331,3.6094,1.8838-.5391,2.5957.3301c1.3614,1.6621-.9995,3.6767-.9995,3.6767l-5.6596-1.2451-8.233-8.5713Z"/><path fill="#d07d73" d="M306.6811,418.1367a.49948.49948,0,0,1-.3877-.8145c3.7374-4.6103,8.3179-4.9951,12.7471-5.3671,1.0498-.0879,2.1358-.1797,3.1865-.3272,3.4122-.4795,9.105-3.2627,16.9209-8.2715a4.263,4.263,0,0,0,1.6255-1.8183,1.58009,1.58009,0,0,0-.0009-1.6319c-.336-.4629-1.5264-.2959-2.0503-.1445a.49986.49986,0,0,1-.4527-.8701c.5996-.4795,2.2158-2.0635,1.7891-3.0127-.3926-.876-2.5371-.7461-3.5127-.5459a.50036.50036,0,0,1-.3525-.9219c.3032-.1777,1.1967-.8242,1.3237-1.4355a.64048.64048,0,0,0-.1309-.5352c-.6235-.8525-2.7138-.4189-3.397-.2002a.49982.49982,0,0,1-.4614-.8691c.6841-.5371,1.8223-1.7578,1.4859-2.2832-.3584-.5625-2.1187-.4219-3.1944-.1524a.49955.49955,0,1,1-.2446-.9687c.562-.1416,3.4087-.7813,4.2812.582a2.10206,2.10206,0,0,1-.4975,2.4033,3.05655,3.05655,0,0,1,2.8354.8985,1.63764,1.63764,0,0,1,.3018,1.33,2.40935,2.40935,0,0,1-.5098,1.002c1.1441-.0215,2.503.2129,2.9849,1.2861.4897,1.0899-.2412,2.293-.9727,3.1367a1.981,1.981,0,0,1,1.584.7129,2.49781,2.49781,0,0,1,.105,2.626,5.2543,5.2543,0,0,1-1.999,2.2539c-8.0503,5.1592-13.7163,7.9131-17.3223,8.4199-1.0781.1514-2.1777.2442-3.2412.333-4.415.3711-8.5854.7217-12.0547,5A.49846.49846,0,0,1,306.6811,418.1367Z"/><path fill="#d07d73" d="M320.1719,398.0859a.49987.49987,0,0,1-.1958-.9599l13.6645-5.8213a.49989.49989,0,1,1,.3916.9199l-13.6645,5.8213A.4975.4975,0,0,1,320.1719,398.0859Z"/><path fill="#d07d73" d="M322.6235,402.0664a.49974.49974,0,0,1-.2192-.9492l13.8227-6.7237a.49968.49968,0,1,1,.4375.8985l-13.8227,6.7236A.4989.4989,0,0,1,322.6235,402.0664Z"/><path fill="#d07d73" d="M324.5327,406.0722a.49974.49974,0,0,1-.2046-.956l14.0493-6.2901a.49968.49968,0,1,1,.4082.9122l-14.0493,6.29A.48686.48686,0,0,1,324.5327,406.0722Z"/><path fill="#f5e9df" d="M288.3384,397.8896s7.4028-11.9433,14.687-14.5556c2.6416-.9473,9.4429.0996,11.7993,2.1338s.2627,3.5029-3.0864,3.3515-7.1768,3.1055-7.8355,4.6045S288.3384,397.8896,288.3384,397.8896Z"/><path fill="#d07d73" d="M307.2222,400.2578a.49168.49168,0,0,1-.2613-.0742.49971.49971,0,0,1-.1645-.6875c2.5703-4.1846-1.0181-8.0977-1.0547-8.1367a.50023.50023,0,1,1,.7305-.6836c.0415.0449,4.1411,4.5166,1.1767,9.3437A.50131.50131,0,0,1,307.2222,400.2578Z"/><path fill="#76b1c1" d="M161.8442,609.9228c-2.7563-12.9394-12.7524-48.8506-38.8667-49.4355q-.3069-.00885-.6098-.0088c-22.0093,0-32.2788,26.831-36.4278,42.6826-1.0083-1.498-1.8969-3.4014-3.206-5.8105-.0239-.044-.0454-.0791-.0694-.1231a111.61354,111.61354,0,0,1,4.4253-12.2051c8.5059-19.5839,20.9405-29.7109,35.9971-29.4189,14.9805.3369,27.4541,10.6992,36.0713,29.9697a120.06859,120.06859,0,0,1,7.7319,24.8037Q164.3596,610.207,161.8442,609.9228Z"/><path fill="#76b1c1" d="M158.999,582.0498a49.20417,49.20417,0,0,1,11.1904,8.8193c2.8116,3.1104,5.4454,6.4414,9.4258,8.0645a37.10715,37.10715,0,0,1-.082,5.0683c-3.1919.1065-6.3882.1143-9.5767.0459-13.8305-.2949-27.9165-1.8769-41.1162-6.1748-7.6299-2.4834-15.8598-6.2754-21.4682-12.291C121.3076,583.6904,143.353,581.2314,158.999,582.0498Z"/><path fill="#f5e9df" d="M967.1103,641.4092a194.09677,194.09677,0,0,0,12.2969,17.7627s.0586-.002.0913.0849c4.9727,5.7666,6.5664,9.4463,7.6675,14.4443-11.7407-4.4921-18.4961-.9091-27.6714,9.6446-8.6328,9.915-22.271,22.9863-21.2724,20.8252,3.3271-8.2422,10.2094-13.8828,10.8403-24.1436a9.83,9.83,0,0,0-.0405-2.2773c-.1983-1.6221-5.8692-13.6387-9.8599-20.2041C940.374,656.5615,958.2915,645.7529,967.1103,641.4092Z"/><path fill="#ff5548" d="M988.6147,678.2304a2.07866,2.07866,0,0,1-.4121,1.459c-2.9477,2.3565-10.143-5.7871-11.5747-3.6699-19.2026,28.294-36.2646,37.6426-39.6362,37.3379a2.02459,2.02459,0,0,1-1.6323-.9541c-1.6543-2.6709.9301-9.8711,2.4829-12.3281,4.5439-7.9014,5.5083-7.2744,11.2075-20.1074,0,0,19.5103-4.043,30.3887-20.7862a.0584.0584,0,0,1,.0483.0684C986.29,666.3926,988.7446,674.8271,988.6147,678.2304Z"/><path fill="#ee1800" d="M988.2026,679.6894c-2.9477,2.3565-10.143-5.7871-11.5747-3.6699-19.2026,28.294-36.2646,37.6426-39.6362,37.3379a2.02459,2.02459,0,0,1-1.6323-.9541c15.5014-8.6055,21.6069-15.416,32.0376-28.9932,7.9199-10.3007,6.8589-13.1396,18.247-5.6992C986.1235,677.8867,988.4531,679.4638,988.2026,679.6894Z"/><path fill="#3c4159" d="M902.3164,477.8808c10.0405,20.1573,80.3955,163.5284,80.3955,163.5284l-51.2822,32.1181S874.9116,565.7168,860.602,540.1611c-.0722-.1308-.1499-.2598-.2236-.3896C869.2373,515.0166,901.42968,476.0986,902.3164,477.8808Z"/><path fill="#2e3248" d="M888.4253,592.4668l43.0044,81.0605s-15.2036-58.4717-13.0318-81.0605c2.1719-22.5879,10.8599-78.5401,10.8599-78.5401Z"/><path fill="#f5e9df" d="M873.3188,672.1621a193.82842,193.82842,0,0,0-4.8769,21.0459s.0405.042-.0025.125c-.9228,7.5586-2.5752,11.2129-5.5332,15.3887-4.5712-11.71-11.7661-14.3008-25.747-13.9942-13.1436.2783-31.9893-1.0254-29.7178-1.7392,8.3379-3.0811,17.1406-1.7803,25.1582-8.2139a9.79922,9.79922,0,0,0,1.6587-1.5615c1.0669-1.2373,6.1465-13.5147,8.3223-20.8838C844.1245,662.5635,864.1733,668.5556,873.3188,672.1621Z"/><path fill="#ff5548" d="M860.5278,712.8398a2.07856,2.07856,0,0,1-1.3569.6758c-3.7261-.5967-2.5376-11.3984-5.0674-11.0342-33.854,4.8145-52.2471-1.5254-54.2891-4.2265a2.02485,2.02485,0,0,1-.3916-1.8496c.8648-3.0206,7.9317-5.9502,10.794-6.4532,8.9033-1.9502,9.0879-.8144,22.4189-5.2265,0,0,16.1123,11.7207,35.8199,8.5127a.05756.05756,0,0,1-.0186.081C867.7261,703.1582,863.1338,710.6474,860.5278,712.8398Z"/><path fill="#ee1800" d="M859.1709,713.5156c-3.7261-.5967-2.5376-11.3984-5.0674-11.0342-33.854,4.8145-52.2471-1.5254-54.2891-4.2265a2.02485,2.02485,0,0,1-.3916-1.8496c16.794,5.6855,25.94,5.625,43.003,4.2148,12.9497-1.0664,14.3369-3.7607,16.4892,9.6709C859.1069,710.7646,859.5063,713.5498,859.1709,713.5156Z"/><path fill="#3c4159" d="M849.9009,529.0185c3.3989,24.6621,18.3066,71.7969,45.58005,71.8018,11.22607.0019,27.04545-97.6895,28.73335-120.2402,1.2735-17.0147-2.5444-35.6299-16.5898-46.7725-13.8916-11.0195-30.1577-6.7315-44.8813-.2598a2.24378,2.24378,0,0,0-3.857.5c-.2065.5342-.3877,1.0742-.5888,1.6094a1.629,1.629,0,0,0-.6587,1.8047C847.0371,466.8183,845.6523,498.2002,849.9009,529.0185Z"/><path fill="#3c4159" d="M882.8193,676.8467s68.771-211.3252,60.8853-228.461c-.5093-1.1074-43.52492-23.7549-57.6519-8.6855-7.5053,8.0058-60.2895,222.0996-60.2895,222.0996Z"/><rect width="195.655" height=".75" x="752.55" y="566.745" fill="#2e3248" transform="rotate(-75.371 850.377 567.12)"/><path fill="#2e3248" d="M883.1777,676.958l-.7168-.2227c.334-1.0781,33.5215-108.2412,44.147-146.4834,9.791-35.2363,16.7217-61.7343,16.7217-81.8662h.75c0,20.2266-6.9419,46.7725-16.749,82.0674C916.7021,568.7051,883.5117,675.8799,883.1777,676.958Z"/><path fill="#2e3248" d="M926.1103,319.1045c8.1963-.3028,14.3272-2.836,18.212-7.5274,5.747-6.9267,2.729-25.0078,2.6723-25.3886l-1.5039.2265c.0117.083,2.9644,17.8076-2.3481,24.2051-3.6001,4.334-9.3496,6.6768-17.0913,6.9629Z"/><path fill="#f5e9df" d="M895.481,379.5039,847.8345,409.2715l-18.292-25.5088,48.7583-32.0957c.1093-.0723.2231-.1319.3335-.2012C880.686,355.3271,891.94628,374.0029,895.481,379.5039Z"/><path fill="#f5e9df" d="M828.938,400.8369l-15.0796-75.9307,21.5854-5.8017,22.2437,83.8203-9.853,6.3467A12.35889,12.35889,0,0,1,828.938,400.8369Z"/><path fill="#d7f2f9" d="M916.562,345.9863a16.34827,16.34827,0,0,1-4.6548,22.6465l-28.3252,18.667c-1.7593,1.1592-7.2129-4.0127-12.1811-11.5528-4.9683-7.539-7.5699-14.5898-5.8111-15.749L893.915,341.331A16.34771,16.34771,0,0,1,916.562,345.9863Z"/><path fill="#fff" d="M854.2915,436.4189l97.6582,20.7578s8.5723-73.2246,9.7388-98.4726c.6469-14.0049-7.8487-21.0557-14.4097-21.0557H908.8359c-9.27878,0-15.93405,2.8975-22.6792,16.957C876.772,374.166,854.2915,436.4189,854.2915,436.4189Z"/><path fill="#eadace" d="M931.8076,310.501s-1.3037,16.2636-1.81,27.1972c-2.2281,5.5049-15.5967,7.0479-17.8492,3.2002l1.7368-21.6689Z"/><path fill="#f5e9df" d="M899.70849,307.9756c0,11.9697,4.88574,21.6738,13.28561,21.6738,6.9341,0,20.1709-9.7041,20.1709-21.6738,0-11.9707-7.4892-21.6739-16.728-21.6739S899.70849,296.0049,899.70849,307.9756Z"/><path fill="#2e3248" d="M912.5298,308.0908a1.60427,1.60427,0,1,0,1.5786-1.8887A1.75489,1.75489,0,0,0,912.5298,308.0908Z"/><path fill="#2e3248" d="M901.915,307.0371a1.60427,1.60427,0,1,0,1.5791-1.8887A1.75459,1.75459,0,0,0,901.915,307.0371Z"/><path fill="#2e3248" d="M909.2373,318.2607c-1.2251,0-2.60791-.1318-3.09717-.6758a.82738.82738,0,0,1-.20215-.749c.28906-1.3916,1.47412-5.7207,1.52441-5.9043l.72364.1973c-.01221.0449-1.22949,4.4912-1.51367,5.8594a.09051.09051,0,0,0,.02539.0957c.44189.4912,2.89945.4863,4.50435.3271l.0747.7461C910.9746,318.1875,910.1499,318.2607,909.2373,318.2607Z"/><path fill="#2e3248" d="M909.6274,324.1806a4.06843,4.06843,0,0,1-3.00387-1.5l.55176-.5078a3.35506,3.35506,0,0,0,2.45311,1.2578h.0181a4.01177,4.01177,0,0,0,2.604-1.2539l.5586.5a4.73956,4.73956,0,0,1-3.1573,1.5039Z"/><path fill="#2e3248" d="M917.3149,304.9648a3.7369,3.7369,0,0,0-2.5171-1.7451,4.14962,4.14962,0,0,0-2.811.876l-.4829-.5733a4.82545,4.82545,0,0,1,3.3833-1.0468,4.44147,4.44147,0,0,1,3.041,2.0576Z"/><path fill="#2e3248" d="M905.9995,303.5566a3.02236,3.02236,0,0,0-2.168-1.3379,2.91018,2.91018,0,0,0-2.06446.8838l-.54541-.5146a3.79532,3.79532,0,0,1,2.63623-1.1192,3.726,3.726,0,0,1,2.72949,1.6211Z"/><path fill="#2e3248" d="M868.6172,398.8545l-.6983-.2754c.1289-.3262,12.9351-32.8457,19.5054-47.2686a25.89546,25.89546,0,0,1,19.97462-15.3291l.0581.7481a25.13208,25.13208,0,0,0-19.35012,14.8916C881.5449,366.0263,868.7456,398.5273,868.6172,398.8545Z"/><path fill="#d7f2f9" d="M879.4385,388.6103c2.9043-1.5683,6.0932-1.2383,9.17282-.4052a89.06737,89.06737,0,0,0,9.44483,2.3349c6.50146,1.0205,13.20895,1.2002,19.36085,3.7705a2.09237,2.09237,0,0,1,1.2466,1.2715,1.66749,1.66749,0,0,1,.2729.9297,1.80986,1.80986,0,0,1-1.7973,1.7969c-.896-.084-1.7881-.1905-2.6817-.2871-11.50731-1.1104-23.352-.6787-34.0869-5.5713a1.39384,1.39384,0,0,1-.6304-.6065A1.81475,1.81475,0,0,1,879.4385,388.6103Z"/><path fill="#2e3248" d="M891.41747,290.1797a10.62506,10.62506,0,0,1,1.86084-4.458,7.262,7.262,0,0,1,3.68311-7.2432,14.71717,14.71717,0,0,1,9.14844-1.5068c27.71194-10.1934,42.01414,8.3349,38.27144,26.7421-1.2041,5.92-7.8613,16.2227-14.8632,10.2207-3.4825-2.9873-4.0889-9.8886-4.8462-14.0439a45.23536,45.23536,0,0,1-.7686-8.5225c-.7744.3438-3.5713,2.1895-4.6421,2.2872-3.5737.3261-6.7324-2.4708-7.5903-.1817a5.20259,5.20259,0,0,1-5.92677,3.3125c-2.07715-.5-1.55761-.7539-3.55761.3945C896.88036,300.2236,890.438,296.7842,891.41747,290.1797Z"/><path fill="#f5e9df" d="M926.9692,308.9228c0,3.0254,1.1128,5.9424,3.7906,5.9424,2.6782,0,5.3042-2.9775,5.9067-5.9424.6064-2.9824-1.2002-5.9463-3.8784-5.9463A6.47724,6.47724,0,0,0,926.9692,308.9228Z"/><rect width="81.759" height="3.58" x="805.252" y="426.357" fill="#76b1c1" transform="rotate(-178.611 846.131 428.147)"/><polygon fill="#aad5e0" points="886.955 430.928 924.033 426.119 924.12 422.54 887.042 427.349 886.955 430.928"/><polygon fill="#76b1c1" points="924.12 422.54 831.437 417.574 805.307 425.366 887.042 427.349 924.12 422.54"/><path fill="#9cc6d4" d="M807.6103,425.4219l81.41069,1.9746-9.502-50.3838a3.07085,3.07085,0,0,0-2.8867-2.5733l-73.3179-1.7783a4.75766,4.75766,0,0,0-4.5634,5.7852Z"/><path fill="#aad5e0" d="M805.6313,425.374l81.4107,1.9746-9.5025-50.3848a3.06787,3.06787,0,0,0-2.8862-2.5722l-74.8613-1.8164a3.46481,3.46481,0,0,0-3.3233,4.2129Z"/><path fill="#9cc6d4" d="M805.6313,425.374l62.9864,1.5273-41.5811-53.665-27.2446-.6611a3.46481,3.46481,0,0,0-3.3233,4.2129Z"/><path fill="#f5e9df" d="M970.5093,363.9599l24.8432,50.3897-27.2138,15.6445-27.0479-51.7295c-.0605-.1162-.1089-.2353-.1665-.3525C944.9722,376.2578,964.6816,366.9258,970.5093,363.9599Z"/><path fill="#f5e9df" d="M985.0664,432.3056l-77.05908,7.3946-5.99512-21.6377,88.0127-14.1514,5.3276,10.4385A12.35844,12.35844,0,0,1,985.0664,432.3056Z"/><path fill="#d7f2f9" d="M939.2729,339.626a16.34849,16.34849,0,0,1,22.066,6.9013l15.7343,30.0537c.9771,1.8662-4.7153,6.7744-12.7143,10.9619s-15.2759,6.0694-16.253,4.2032l-15.7338-30.0537A16.34885,16.34885,0,0,1,939.2729,339.626Z"/><path fill="#2e3248" d="M950.0913,392.8359c-1.1626,0-1.9849-.2803-2.3174-.916L932.04,361.8662a16.72145,16.72145,0,0,1,7.0591-22.5713l.3477.6641a15.97333,15.97333,0,0,0-6.7427,21.5595l15.7339,30.0537c.7544,1.4414,7.4072.0039,15.7471-4.3613a52.99314,52.99314,0,0,0,9.6523-6.3037c2.5791-2.2236,3.1909-3.6025,2.9038-4.1523l.6641-.3477c.7197,1.375-1.2769,3.5147-3.0782,5.0684a53.714,53.714,0,0,1-9.7944,6.3994C959.2432,390.6445,953.3398,392.8359,950.0913,392.8359Z"/><path fill="#f5e9df" d="M870.063,434.4238c-.1704-.0586-.3438-.0801-.5132-.1504-2.4961-1.0215-.792-5.7637,1.7134-4.7392.1728.0703.3584.0683.5327.125-.4712-1.3331.2544-3.5469,2.9624-3.3789.7827.0488,11.8735.873,20.31005-3.6573-2.13672-.4209-5.709-1.0703-8.20555-.7158-2.648.375-3.5029-3.7686-.8345-4.1152a41.46106,41.46106,0,0,1,4.3799-.3272,73.67614,73.67614,0,0,1,24.8599,3.6153c4.102,1.2773-4.6084,17.9912-4.709,17.9628-11.38919,3.1905-22.4732,6.0909-34.3399,5.2002-2.3945-.1796-2.7099-3.999-.7993-4.582.0147-.0215.0225-.0459.0376-.0664-.0356-.0019-.0718-.0117-.1064-.0137a30.241,30.241,0,0,1-4.8965-.8252C868.6196,438.1631,868.9092,435.331,870.063,434.4238Z"/><path fill="#d07d73" d="M895.229,428.372c.10058-.0371.1997-.0722.30029-.1093a.49.49,0,0,0-.34033-.919,2.19431,2.19431,0,0,0-.29688.1074c-9.93118,3.6114-22.89258,1.7442-23.02488,1.7237a.4886.4886,0,0,0-.5562.4131.49407.49407,0,0,0,.4131.5595C871.8564,430.164,885.0586,432.0693,895.229,428.372Z"/><path fill="#d07d73" d="M895.39306,434.0732c.28955-.1054.56836-.2187.84131-.3349a.49081.49081,0,1,0-.38867-.9014c-.25342.1084-.51221.2148-.78223.3125-8.40727,3.0576-24.76267.8144-24.93217.791a.49642.49642,0,0,0-.5532.417.49065.49065,0,0,0,.417.5537C870.6973,435.0097,886.7646,437.2099,895.39306,434.0732Z"/><path fill="#d07d73" d="M896.32421,438.3261a.49011.49011,0,0,0-.32764-.9238c-6.3833,2.1983-20.41947,1.7735-20.562,1.7676a.49094.49094,0,1,0-.0308.9814c.5825.0157,14.35938.4336,20.91309-1.8222Z"/><path fill="#2e3248" d="M932.0259,281.1035c1.5239,2.5869,4.4365,1.8408,6.8232,1.248.8086-.2011,1.5723-.3818,2.1675.3047a7.04322,7.04322,0,0,1,.8022,1.6153,7.45436,7.45436,0,0,0,2.0664,2.6435c1.8101,1.4492,4.0806,2.0703,6.2554,2.7559,2.2866.7217,4.6865,1.5742,5.77,3.9062,1.2037,2.5879.7354,5.6768.399,8.3994-.4063,3.294-.6338,6.5713.7944,9.6631a23.39646,23.39646,0,0,0,4.3296,5.8203,21.96546,21.96546,0,0,1,4.2724,5.543c1.2696,2.8203.2334,5.6065-1.2563,8.1152-1.7173,2.8926-3.6299,5.6641-5.3369,8.5655-1.7285,2.9365-3.687,5.9951-4.4673,9.3525a10.40264,10.40264,0,0,0,1.0811,7.9863c1.603,2.4551,4.2939,3.4522,7.06,3.9561,2.6734.4863,5.3931.7275,7.5733,2.5205,2.2172,1.8242,3.6474,4.4023,5.1694,6.7871,2.7754,4.3486,7.7012,9.9688,13.5508,7.7119,2.9184-1.126,3.5693-4.0625,5.4375-6.2236a11.61616,11.61616,0,0,1,5.6015-3.1621c4.4151-1.3506,9.5928-1.8779,12.9268-5.4297,4.2012-4.4746,3.2275-11.2022,1.8745-16.6289a27.64624,27.64624,0,0,0-3.6318-8.7979,26.502,26.502,0,0,0-6.7979-6.5527c-5.3681-3.8486-10.9682-7.5488-15.2744-12.6494-1.585-1.876-3.5337-4.791-2.6729-7.3789.5015-1.5088,1.9415-2.3721,3.1436-3.2774a20.45562,20.45562,0,0,0,3.0874-2.8144c3.6343-4.1397,5.6704-10.1934,2.4536-15.1953-2.9746-4.6241-8.4341-6.1944-13.1484-8.375a17.90268,17.90268,0,0,1-6.6167-4.6211,7.27523,7.27523,0,0,1-1.5176-3.1905,21.26947,21.26947,0,0,1,.0942-4.6435,8.31752,8.31752,0,0,0-3.7319-7.5039c-2.5752-1.7481-5.8301-2.0205-8.8501-1.7861-11.7676.913-24.7148,6.9023-28.0386,19.1025A1.50326,1.50326,0,0,0,932.0259,281.1035Z"/><path fill="#f5e9df" d="M814.9253,331.0371s-.4077-4.8555-3.6782-6.4404a30.7473,30.7473,0,0,1-8.5767-6.4883,82.79263,82.79263,0,0,1-7.2319-11.1289l12.5566-7.9043,8.8023,10.0127s13.4809,2.6201,16.58,5.2041,2.6758,11.1875,2.6758,11.1875Z"/><path fill="#f5e9df" d="M807.6924,299.1894s-1.9639-1.7675-2.9546-1.206c-.9907.5635.0337,2.8486.0337,2.8486s-1.8545-1.9004-3.1221-1.2812c-1.2681.6191-.0591,2.5595-.0591,2.5595s-2.27-1.8613-3.3867-.9883.0225,3.4786.0225,3.4786-1.2022-1.1514-2.0816-.7813c-1.6816.71-.706,3.1602-.706,3.1602l4.747,1.3066,9.584-3.1777Z"/><path fill="#d07d73" d="M814.9248,331.5371a.49986.49986,0,0,1-.4897-.4024c-.9053-4.5595-3.8873-6.4677-7.0445-8.4873-.7646-.4892-1.5552-.9951-2.3071-1.538-2.5186-1.8165-5.6924-6.1397-9.7026-13.2168a4.52474,4.52474,0,0,1-.6182-2.5274,2.19048,2.19048,0,0,1,1.1611-1.9941,1.67354,1.67354,0,0,1,1.4019.0322,2.62922,2.62922,0,0,1,.5698-2.6748,2.54073,2.54073,0,0,1,2.7007.1396,2.01252,2.01252,0,0,1,.0405-.8398,1.46333,1.46333,0,0,1,.7935-.9268,2.57218,2.57218,0,0,1,2.4199.3663,1.75914,1.75914,0,0,1,.6406-1.918c1.2427-.709,3.1636.9326,3.5361,1.2676a.50028.50028,0,0,1-.6689.7441c-.7124-.6396-1.9355-1.3926-2.373-1.1426-.3814.2168-.0987,1.4434.2431,2.209a.50012.50012,0,0,1-.8139.5537c-.4175-.4248-1.7803-1.5576-2.5455-1.1816a.46835.46835,0,0,0-.271.3047,2.50808,2.50808,0,0,0,.417,1.541.49989.49989,0,0,1-.7407.6513c-.6411-.5224-2.1601-1.4531-2.7627-.9804-.6098.4765-.147,2.1484.1734,2.8838a.5002.5002,0,0,1-.8067.5586c-.396-.3829-1.1499-.8604-1.5122-.6905-.1352.0664-.5459.2686-.605,1.1631a3.52731,3.52731,0,0,0,.4903,1.9678c3.8828,6.8535,7.0512,11.1924,9.4174,12.8994.7295.5264,1.5083,1.0244,2.2613,1.5059,3.1943,2.0439,6.4975,4.1572,7.4858,9.1347a.49935.49935,0,0,1-.393.5879A.47345.47345,0,0,1,814.9248,331.5371Z"/><path fill="#d07d73" d="M812.7344,311.122a.49965.49965,0,0,1-.3882-.1845l-7.9624-9.7901a.49979.49979,0,1,1,.7754-.6308l7.9624,9.79a.5.5,0,0,1-.3872.8154Z"/><path fill="#d07d73" d="M809.3149,313.1416a.49921.49921,0,0,1-.4038-.2041l-7.7241-10.5313a.50021.50021,0,0,1,.8066-.5918l7.7242,10.5313a.5.5,0,0,1-.4029.7959Z"/><path fill="#d07d73" d="M806.292,315.3955a.49881.49881,0,0,1-.3941-.1914l-8.0654-10.2949a.50012.50012,0,1,1,.7871-.6172l8.0655,10.2949a.5.5,0,0,1-.3931.8086Z"/><path fill="#f5e9df" d="M836.6079,323.4912s-2.4756-14.2442-5.3398-16.7852c-1.7842-1.582-7.1363-3.667-9.7134-3.0722-2.5767.5947-1.5855,2.5293.9912,3.7422,2.5771,1.2138,4.1631,5.1787,4.0635,6.5664C826.5107,315.3291,836.6079,323.4912,836.6079,323.4912Z"/><path fill="#d07d73" d="M821.604,317.8857a.50031.50031,0,0,1-.4985-.4668c-.3184-4.8594,4.5888-6.6142,4.6381-6.6318a.50033.50033,0,0,1,.3282.9453c-.1734.0605-4.2368,1.5303-3.9683,5.6201a.50041.50041,0,0,1-.4663.5322C821.626,317.8857,821.6152,317.8857,821.604,317.8857Z"/></svg>