<svg xmlns="http://www.w3.org/2000/svg" xmlns:xlink="http://www.w3.org/1999/xlink" data-name="Layer 1" viewBox="0 0 2000 2000"><defs><linearGradient id="a" x1="67.03" x2="2210.6" y1="1515.46" y2="720.56" gradientUnits="userSpaceOnUse"><stop offset="0" stop-color="#fff"/><stop offset="1" stop-color="#d4dbea"/></linearGradient><linearGradient id="d" x1="156.79" x2="2090.66" y1="1953.01" y2="923.29" xlink:href="#a"/><linearGradient id="f" x1="-18.19" x2="2865.17" y1="1051.86" y2="1051.86" xlink:href="#a"/><linearGradient id="b" x1="354.29" x2="515.73" y1="1440.09" y2="1440.09" gradientUnits="userSpaceOnUse"><stop offset="0" stop-color="#6669b0"/><stop offset="1" stop-color="#33308e"/></linearGradient><linearGradient id="g" x1="205.1" x2="324.33" y1="1620.02" y2="1620.02" xlink:href="#b"/><linearGradient id="h" x1="870.95" x2="1435.6" y1="1772.55" y2="1772.55" xlink:href="#a"/><linearGradient id="c" x1="-309.31" x2="-4.13" y1="1785.61" y2="1785.61" gradientTransform="matrix(-1 0 0 1 916.56 0)" gradientUnits="userSpaceOnUse"><stop offset="0" stop-color="#fbad18"/><stop offset="1" stop-color="#f47820"/></linearGradient><linearGradient id="i" x1="870.95" x2="1435.6" y1="1616.36" y2="1616.36" xlink:href="#a"/><linearGradient id="j" x1="-309.31" x2="-4.13" y1="1629.41" y2="1629.41" xlink:href="#c"/><linearGradient id="k" x1="870.95" x2="1435.6" y1="1460.16" y2="1460.16" xlink:href="#a"/><linearGradient id="l" x1="-309.31" x2="-4.13" y1="1473.21" y2="1473.21" xlink:href="#c"/><linearGradient id="m" x1="870.95" x2="1435.6" y1="1303.97" y2="1303.97" xlink:href="#a"/><linearGradient id="n" x1="-309.31" x2="-4.13" y1="1317.02" y2="1317.02" xlink:href="#c"/><linearGradient id="o" x1="870.95" x2="1435.6" y1="1147.68" y2="1147.68" xlink:href="#a"/><linearGradient id="p" x1="-309.31" x2="-4.13" y1="1160.74" y2="1160.74" xlink:href="#c"/><linearGradient id="q" x1="870.95" x2="1435.6" y1="991.49" y2="991.49" xlink:href="#a"/><linearGradient id="r" x1="-309.31" x2="-4.13" y1="1004.54" y2="1004.54" xlink:href="#c"/><linearGradient id="s" x1="870.95" x2="1435.6" y1="835.3" y2="835.3" xlink:href="#a"/><linearGradient id="t" x1="-309.31" x2="-4.13" y1="848.36" y2="848.36" xlink:href="#c"/><linearGradient id="u" x1="870.95" x2="1435.6" y1="679.21" y2="679.21" xlink:href="#a"/><linearGradient id="v" x1="-309.31" x2="-4.13" y1="692.26" y2="692.26" xlink:href="#c"/><linearGradient id="w" x1="1284.35" x2="1846.33" y1="327.63" y2="327.63" xlink:href="#c"/><linearGradient id="x" x1="855.11" x2="1309.4" y1="828.82" y2="374.53" gradientTransform="rotate(11.5 22.348 -1338.195)" xlink:href="#a"/><linearGradient id="y" x1="892.57" x2="1158.44" y1="875.08" y2="609.21" gradientTransform="rotate(11.5 22.348 -1338.195)" xlink:href="#c"/><linearGradient id="z" x1="1929.23" x2="2116.98" y1="9.82" y2="-177.93" gradientTransform="rotate(43.4 99.648 -1360.351)" xlink:href="#a"/><linearGradient id="A" x1="-785.03" x2="-460.5" y1="872.31" y2="872.31" gradientTransform="matrix(-1 0 0 1 -342.57 0)" xlink:href="#a"/><linearGradient id="B" x1="204.33" x2="466.31" y1="1609.45" y2="1609.45" gradientTransform="matrix(1 0 0 -1 1005.87 3219.08)" xlink:href="#a"/><linearGradient id="C" x1="173.73" x2="435.71" y1="1596.02" y2="1596.02" gradientTransform="matrix(-1 0 0 1 1675.65 0)" xlink:href="#a"/><linearGradient id="D" x1="74.25" x2="466.31" y1="1709.68" y2="1709.68" gradientTransform="matrix(-1 0 0 1 1675.65 0)" xlink:href="#c"/><linearGradient id="F" x1="-2250.97" x2="577.98" y1="965.5" y2="965.5" xlink:href="#a"/><clipPath id="e"><path fill="none" d="M182.87,1016.12c-51,266.56,138.6,494,544.84,492.29S876.14,1839,1215.34,1859.72s504.58-186.89,462.51-647.86S1628.34,210.09,929.3,381.27C488.37,489.25,230.67,766.4,182.87,1016.12Z"/></clipPath><clipPath id="E"><path fill="none" d="M-563.81,741.61c-173.53-52.69-323.13-127.14-492.64-333.73s-625.08-143-757.51,166.86-37.08,595.94,121.84,648.91,227.11,104.84,314.85,308.1c70.39,163,461.68,241.57,582.93,84.32,221.75-287.58,227.88-175.23,333.82-389.77S-385.58,795.71-563.81,741.61Z" data-name="SVGID"/></clipPath></defs><rect width="1384.68" height="10.52" x="226.8" y="1861.25" fill="#cbd3eb"/><path fill="url(#a)" d="M182.87,1016.12c-51,266.56,138.6,494,544.84,492.29S876.14,1839,1215.34,1859.72s504.58-186.89,462.51-647.86S1628.34,210.09,929.3,381.27C488.37,489.25,230.67,766.4,182.87,1016.12Z"/><path fill="url(#d)" d="M465.2,1578.92c125.93-30.61,373.48-56.37,452.75,61.22s.44,160.76-142.26,103.94S291.28,1621.2,465.2,1578.92Z"/><g clip-path="url(#e)"><polygon fill="#cbd3eb" points="580.63 763.97 580.63 707.41 674.45 707.41 674.45 437.07 700.3 437.07 700.3 707.41 801.37 707.41 801.37 763.97 855.49 763.97 855.49 1897.46 465.13 1897.46 465.13 763.97 580.63 763.97"/><rect width="54.12" height="1019.62" x="465.13" y="763.97" fill="#d6dcf0" transform="rotate(180 492.19 1273.78)"/><rect width="390.36" height="863.48" x="660.31" y="1033.98" fill="#cbd3eb" transform="rotate(180 855.495 1465.72)"/><rect width="54.12" height="863.48" x="660.31" y="1033.98" fill="#d6dcf0" transform="rotate(180 687.375 1465.72)"/><rect width="56.02" height="23.25" x="940.19" y="1070.76" fill="#d6dcf0" transform="rotate(180 968.2 1082.385)"/><rect width="56.02" height="23.25" x="845.88" y="1070.76" fill="#d6dcf0" transform="rotate(180 873.89 1082.385)"/><rect width="56.02" height="23.24" x="940.19" y="1155.41" fill="#d6dcf0" transform="rotate(180 968.2 1167.035)"/><rect width="56.02" height="23.24" x="845.88" y="1155.41" fill="#d6dcf0" transform="rotate(180 873.89 1167.035)"/><rect width="56.01" height="23.24" x="751.57" y="1155.41" fill="#d6dcf0" transform="rotate(180 779.58 1167.035)"/><rect width="56.02" height="23.25" x="940.19" y="1240.06" fill="#d6dcf0" transform="rotate(180 968.2 1251.685)"/><rect width="56.01" height="23.25" x="751.57" y="1240.06" fill="#d6dcf0" transform="rotate(180 779.58 1251.685)"/><rect width="56.02" height="23.24" x="845.88" y="1282.39" fill="#d6dcf0" transform="rotate(180 873.89 1294.01)"/><rect width="56.02" height="23.24" x="940.19" y="1324.71" fill="#d6dcf0" transform="rotate(180 968.2 1336.335)"/><rect width="56.02" height="23.25" x="845.88" y="1367.04" fill="#d6dcf0" transform="rotate(180 873.89 1378.66)"/><rect width="56.02" height="23.25" x="940.19" y="1409.36" fill="#d6dcf0" transform="rotate(180 968.2 1420.985)"/><rect width="56.01" height="23.25" x="751.57" y="1409.36" fill="#d6dcf0" transform="rotate(180 779.58 1420.985)"/><rect width="56.02" height="23.25" x="940.19" y="1487.58" fill="#d6dcf0" transform="rotate(180 968.2 1499.205)"/><rect width="56.02" height="23.25" x="845.88" y="1487.58" fill="#d6dcf0" transform="rotate(180 873.89 1499.205)"/><rect width="56.02" height="23.24" x="940.19" y="1572.23" fill="#d6dcf0" transform="rotate(180 968.2 1583.855)"/><rect width="56.02" height="23.24" x="845.88" y="1572.23" fill="#d6dcf0" transform="rotate(180 873.89 1583.855)"/><rect width="56.01" height="23.24" x="751.57" y="1572.23" fill="#d6dcf0" transform="rotate(180 779.58 1583.855)"/><rect width="56.02" height="23.25" x="940.19" y="1656.88" fill="#d6dcf0" transform="rotate(180 968.2 1668.505)"/><rect width="56.01" height="23.25" x="751.57" y="1656.88" fill="#d6dcf0" transform="rotate(180 779.58 1668.505)"/><rect width="56.02" height="23.25" x="845.88" y="1699.2" fill="#d6dcf0" transform="rotate(180 873.89 1710.825)"/><rect width="56.01" height="23.25" x="751.57" y="1699.2" fill="#d6dcf0" transform="rotate(180 779.58 1710.825)"/><rect width="56.02" height="23.25" x="940.19" y="1741.52" fill="#d6dcf0" transform="rotate(180 968.2 1753.15)"/><rect width="56.02" height="23.24" x="845.88" y="1783.85" fill="#d6dcf0" transform="rotate(180 873.89 1795.475)"/><rect width="56.02" height="23.25" x="940.19" y="1826.18" fill="#d6dcf0" transform="rotate(180 968.2 1837.805)"/><rect width="56.01" height="23.25" x="751.57" y="1826.18" fill="#d6dcf0" transform="rotate(180 779.58 1837.805)"/><rect width="390.36" height="863.48" x="1594.33" y="1033.98" fill="#cbd3eb" transform="rotate(180 1789.51 1465.72)"/><rect width="54.12" height="863.48" x="1594.33" y="1033.98" fill="#d6dcf0" transform="rotate(180 1621.39 1465.72)"/><rect width="523.75" height="1274.19" x="1039.81" y="623.27" fill="#cbd3eb" transform="rotate(180 1301.68 1260.365)"/><rect width="54.12" height="1274.19" x="1039.81" y="623.27" fill="#d6dcf0" transform="rotate(180 1066.87 1260.365)"/><rect width="81.8" height="33.95" x="1426.59" y="684.29" fill="#d6dcf0" transform="rotate(180 1467.49 701.27)"/><rect width="81.8" height="33.95" x="1288.87" y="684.29" fill="#d6dcf0" transform="rotate(180 1329.77 701.27)"/><rect width="81.8" height="33.95" x="1426.59" y="807.91" fill="#d6dcf0" transform="rotate(180 1467.49 824.88)"/><rect width="81.8" height="33.95" x="1288.87" y="807.91" fill="#d6dcf0" transform="rotate(180 1329.77 824.88)"/><rect width="81.8" height="33.95" x="1151.15" y="807.91" fill="#d6dcf0" transform="rotate(180 1192.05 824.88)"/><rect width="81.8" height="33.95" x="1426.59" y="931.52" fill="#d6dcf0" transform="rotate(180 1467.49 948.495)"/><rect width="81.8" height="33.95" x="1151.15" y="931.52" fill="#d6dcf0" transform="rotate(180 1192.05 948.495)"/><rect width="81.8" height="33.96" x="1288.87" y="993.32" fill="#d6dcf0" transform="rotate(180 1329.77 1010.295)"/><rect width="81.8" height="33.96" x="1426.59" y="1055.13" fill="#d6dcf0" transform="rotate(180 1467.49 1072.105)"/><rect width="81.8" height="33.95" x="1288.87" y="1116.93" fill="#d6dcf0" transform="rotate(180 1329.77 1133.905)"/><rect width="81.8" height="33.95" x="1426.59" y="1178.74" fill="#d6dcf0" transform="rotate(180 1467.49 1195.715)"/><rect width="81.8" height="33.95" x="1151.15" y="1178.74" fill="#d6dcf0" transform="rotate(180 1192.05 1195.715)"/><rect width="81.8" height="33.95" x="1426.59" y="1292.97" fill="#d6dcf0" transform="rotate(180 1467.49 1309.945)"/><rect width="81.8" height="33.95" x="1288.87" y="1292.97" fill="#d6dcf0" transform="rotate(180 1329.77 1309.945)"/><rect width="81.8" height="33.95" x="1426.59" y="1416.58" fill="#d6dcf0" transform="rotate(180 1467.49 1433.56)"/><rect width="81.8" height="33.95" x="1288.87" y="1416.58" fill="#d6dcf0" transform="rotate(180 1329.77 1433.56)"/><rect width="81.8" height="33.95" x="1151.15" y="1416.58" fill="#d6dcf0" transform="rotate(180 1192.05 1433.56)"/><rect width="81.8" height="33.95" x="1426.59" y="1540.19" fill="#d6dcf0" transform="rotate(180 1467.49 1557.165)"/><rect width="81.8" height="33.95" x="1151.15" y="1540.19" fill="#d6dcf0" transform="rotate(180 1192.05 1557.165)"/><rect width="81.8" height="33.95" x="1288.87" y="1602" fill="#d6dcf0" transform="rotate(180 1329.77 1618.97)"/><rect width="81.8" height="33.95" x="1151.15" y="1602" fill="#d6dcf0" transform="rotate(180 1192.05 1618.97)"/><rect width="81.8" height="33.95" x="1426.59" y="1663.8" fill="#d6dcf0" transform="rotate(180 1467.49 1680.78)"/><rect width="81.8" height="33.95" x="1288.87" y="1725.61" fill="#d6dcf0" transform="rotate(180 1329.77 1742.585)"/><rect width="81.8" height="33.95" x="1426.59" y="1787.42" fill="#d6dcf0" transform="rotate(180 1467.49 1804.39)"/><rect width="81.8" height="33.95" x="1151.15" y="1787.42" fill="#d6dcf0" transform="rotate(180 1192.05 1804.39)"/><rect width="513.34" height="1179.22" x="1863.26" y="718.24" fill="#cbd3eb" transform="rotate(180 2119.93 1307.85)"/><rect width="53.05" height="1179.22" x="1863.26" y="718.24" fill="#d6dcf0" transform="rotate(180 1889.785 1307.85)"/><rect width="80.17" height="31.43" x="1972.39" y="889.12" fill="#d6dcf0" transform="rotate(180 2012.48 904.83)"/><rect width="80.17" height="31.42" x="1972.39" y="1003.52" fill="#d6dcf0" transform="rotate(180 2012.48 1019.225)"/><rect width="80.17" height="31.42" x="1972.39" y="1232.31" fill="#d6dcf0" transform="rotate(180 2012.48 1248.02)"/><rect width="80.17" height="31.42" x="1972.39" y="1452.42" fill="#d6dcf0" transform="rotate(180 2012.48 1468.135)"/><rect width="80.17" height="31.42" x="1972.39" y="1566.83" fill="#d6dcf0" transform="rotate(180 2012.48 1582.535)"/><rect width="80.17" height="31.42" x="1972.39" y="1624.02" fill="#d6dcf0" transform="rotate(180 2012.48 1639.73)"/><rect width="80.17" height="31.43" x="1972.39" y="1795.61" fill="#d6dcf0" transform="rotate(180 2012.48 1811.325)"/><rect width="330.61" height="804.31" x="204.29" y="1093.15" fill="#cbd3eb" transform="rotate(180 369.6 1495.305)"/><rect width="34.17" height="804.31" x="204.29" y="1093.15" fill="#d6dcf0" transform="rotate(180 221.375 1495.305)"/><rect width="51.63" height="21.43" x="448.45" y="1131.67" fill="#d6dcf0" transform="rotate(180 474.265 1142.385)"/><rect width="51.63" height="21.43" x="361.52" y="1131.67" fill="#d6dcf0" transform="rotate(180 387.33 1142.385)"/><rect width="51.63" height="21.43" x="448.45" y="1209.7" fill="#d6dcf0" transform="rotate(180 474.265 1220.415)"/><rect width="51.63" height="21.43" x="361.52" y="1209.7" fill="#d6dcf0" transform="rotate(180 387.33 1220.415)"/><rect width="51.63" height="21.43" x="274.58" y="1209.7" fill="#d6dcf0" transform="rotate(180 300.395 1220.415)"/><rect width="51.63" height="21.43" x="448.45" y="1287.73" fill="#d6dcf0" transform="rotate(180 474.265 1298.445)"/><rect width="51.63" height="21.43" x="274.58" y="1287.73" fill="#d6dcf0" transform="rotate(180 300.395 1298.445)"/><rect width="51.63" height="21.43" x="361.52" y="1326.74" fill="#d6dcf0" transform="rotate(180 387.33 1337.455)"/><rect width="51.63" height="21.43" x="448.45" y="1365.76" fill="#d6dcf0" transform="rotate(180 474.265 1376.47)"/><rect width="51.63" height="21.43" x="361.52" y="1404.77" fill="#d6dcf0" transform="rotate(180 387.33 1415.485)"/><rect width="51.63" height="21.43" x="448.45" y="1443.78" fill="#d6dcf0" transform="rotate(180 474.265 1454.495)"/><rect width="51.63" height="21.43" x="274.58" y="1443.78" fill="#d6dcf0" transform="rotate(180 300.395 1454.495)"/><rect width="51.63" height="21.43" x="448.45" y="1515.89" fill="#d6dcf0" transform="rotate(180 474.265 1526.6)"/><rect width="51.63" height="21.43" x="361.52" y="1515.89" fill="#d6dcf0" transform="rotate(180 387.33 1526.6)"/><rect width="51.63" height="21.43" x="448.45" y="1593.91" fill="#d6dcf0" transform="rotate(180 474.265 1604.625)"/><rect width="51.63" height="21.43" x="361.52" y="1593.91" fill="#d6dcf0" transform="rotate(180 387.33 1604.625)"/><rect width="51.63" height="21.43" x="274.58" y="1593.91" fill="#d6dcf0" transform="rotate(180 300.395 1604.625)"/><rect width="51.63" height="21.43" x="448.45" y="1671.94" fill="#d6dcf0" transform="rotate(180 474.265 1682.655)"/><rect width="51.63" height="21.43" x="274.58" y="1671.94" fill="#d6dcf0" transform="rotate(180 300.395 1682.655)"/><rect width="51.63" height="21.43" x="361.52" y="1710.95" fill="#d6dcf0" transform="rotate(180 387.33 1721.67)"/><rect width="51.63" height="21.43" x="274.58" y="1710.95" fill="#d6dcf0" transform="rotate(180 300.395 1721.67)"/><rect width="51.63" height="21.43" x="448.45" y="1749.97" fill="#d6dcf0" transform="rotate(180 474.265 1760.685)"/><rect width="51.63" height="21.43" x="361.52" y="1788.98" fill="#d6dcf0" transform="rotate(180 387.33 1799.695)"/><rect width="51.63" height="21.43" x="448.45" y="1827.99" fill="#d6dcf0" transform="rotate(180 474.265 1838.71)"/><rect width="51.63" height="21.43" x="274.58" y="1827.99" fill="#d6dcf0" transform="rotate(180 300.395 1838.71)"/><rect width="1401.11" height="1597.52" x="-473.66" y="232.32" fill="#fff" opacity=".35"/><polygon fill="#fff" points="479.5 1800.98 370.76 1800.98 953.7 250.59 1062.44 250.59 479.5 1800.98" opacity=".5"/><polygon fill="#fff" points="287.49 1800.98 233.12 1800.98 816.05 250.59 870.43 250.59 287.49 1800.98" opacity=".5"/><polygon fill="#fff" points="936.71 1800.98 882.34 1800.98 1382.11 417.05 1382.11 528.55 936.71 1800.98" opacity=".5"/><rect width="1401.11" height="1597.52" x="942.51" y="233.98" fill="#fff" opacity=".35"/><polygon fill="#fff" points="1637.34 1800.98 1528.6 1800.98 2111.53 250.59 2220.28 250.59 1637.34 1800.98" opacity=".5"/><polygon fill="#fff" points="1445.33 1800.98 1390.95 1800.98 1973.89 250.59 2028.26 250.59 1445.33 1800.98" opacity=".5"/><path fill="url(#f)" d="M2865.17,538.39V520.12h-50.33V232h-2833v36.56H12.33v12.91H915.89V520.12H-18.19v18.27H915.89v469.14H-18.19v18.27H915.89v469.14H-18.19v18.28H915.89v305.69H12.62v10.56H-18.19v42.3h2833v-3.4h0V1513.22h50.33v-18.28h-50.33V1025.8h50.33v-18.27h-50.33V538.39ZM1413.71,1025.8H1850.1v469.14H1413.71Zm0-18.27V538.39H1850.1v469.14Zm0-487.41V281.43H1850.1V520.12Zm0,993.1H1850.1v305.69H1413.87v10.56h-.16Zm467,305.69V1513.22h436.39v305.69Zm0-324V1025.8h436.39v469.14Zm0-487.41V538.39h436.39v469.14Zm0-487.41V281.43h436.39V520.12ZM2347.8,281.43h436.39V520.12H2347.8Zm-1401.26,0h436.4V520.12H946.54Zm0,257h436.4v469.14H946.54Zm0,487.41h436.4v469.14H946.54Zm0,487.42h436.4v316.25h-.17v-10.56H946.54Zm1837.65,316.25H2784v-10.56H2347.8V1513.22h436.39Zm0-334.53H2347.8V1025.8h436.39Zm0-487.41H2347.8V538.39h436.39Z"/></g><polygon fill="#33308e" points="392.89 1861.13 397.43 1861.03 390.95 1720.53 386.41 1720.63 392.89 1861.13"/><path fill="#33308e" d="M288.3,1712.46c0-9.65,62.88-10.4,82.15-10.4s82.14.75,82.14,10.4-62.87,10.39-82.14,10.39S288.3,1722.1,288.3,1712.46Zm82.15-5.85c-42.31,0-69.78,3.19-76.48,5.85,6.7,2.66,34.17,5.84,76.48,5.84s69.79-3.18,76.48-5.84C440.24,1709.8,412.76,1706.61,370.45,1706.61Z"/><path fill="#cbd3eb" d="M448,1639.28a83.61,83.61,0,1,1-155.19,0Z"/><path fill="#c0c9e7" d="M292.85,1639.27c0,6.79,34.75,12.29,77.6,12.29s77.59-5.5,77.59-12.29S413.3,1627,370.45,1627,292.85,1632.49,292.85,1639.27Z"/><path fill="#84605a" d="M300.49,1639.27c0,5,31.32,9.09,70,9.09s69.95-4.07,69.95-9.09-31.32-9.09-69.95-9.09S300.49,1634.25,300.49,1639.27Z"/><path fill="#fff" d="M300.46,1667.48c.18-6.25,9.93-6.28,9.74,0-.44,14.87,1.48,29.69,12.22,40.86,4.34,4.52-2.54,11.42-6.89,6.89C303,1702.23,299.94,1685,300.46,1667.48Z" opacity=".42"/><path fill="#33308e" d="M370.45,1722.85c19.27,0,82.14-.75,82.14-10.39h-4.54a1.26,1.26,0,0,1,.25-.78c-2.74,2.78-31.33,6.62-77.85,6.62s-75.11-3.84-77.86-6.62a1.2,1.2,0,0,1,.25.78H288.3C288.3,1722.1,351.18,1722.85,370.45,1722.85Z"/><polygon fill="#33308e" points="464.31 1861.04 468.85 1860.73 451.49 1713.66 446.95 1713.97 464.31 1861.04"/><polygon fill="#33308e" points="280.59 1861.05 295.12 1714.55 290.58 1714.22 276.06 1860.72 280.59 1861.05"/><polygon fill="#33308e" points="358.45 1861.08 361.32 1720.63 356.78 1720.53 353.92 1860.98 358.45 1861.08"/><path fill="#cbd3eb" d="M300.5,1639.29c0,3.69,16.82,6.85,41,8.26,1.41.08,2.87.16,4.36.2,2,.13,4.07.21,6.19.26,1.37.08,2.78.12,4.24.16,3.16.09,6.39.13,9.72.13,1.45,0,2.91,0,4.36,0h0c6.48,0,12.75-.13,18.69-.33,1.49,0,3-.13,4.44-.17,27.25-1.25,46.81-4.57,46.81-8.55,0-3.62-16.32-6.77-40-8.23l-4.65-.25c-7-.38-14.65-.58-22.58-.63h-4.41c-4.82,0-9.51.09-14,.22-1.45,0-2.82.12-4.23.16-2.37.09-4.7.21-7,.33-1.45,0-2.91.17-4.32.21C316.24,1632.64,300.5,1635.71,300.5,1639.29Z"/><path fill="#6669b0" d="M369.43,1557.94a40.73,40.73,0,0,1-8-6.6c-3.5-3.56-9-9.36-9-14.8.05-4.47,4.7-5.47,7.8-2.83,2.76,2.34,3.94,5.92,6.1,8.72,2.65,3.41,7,6.14,11.35,7.91,6-8.58,7-20.41,5-30.74-2.34-11.93-10.21-28.94-22-44.82a62.66,62.66,0,0,1-5.44,11.09c-2.22,3.68-5.78,10.69-10,12.19-4.5,1.59-5.41-2.57-4.73-6a1.18,1.18,0,0,1,.12-.54h0c.08-.31.16-.6.26-.89a1.18,1.18,0,0,1,.51-.6c2.46-4.76,5.31-9.33,7.47-14.24a77.23,77.23,0,0,0,3.6-11.17C342.16,1453,329.74,1442.88,316,1437c2.79,5.82,4.73,12.4,6.51,18.15s6.66,18.41,2.18,24.18c-1.23,1.59-3.76,2.59-5.67,1.53-3.13-1.76-2.75-8.2-2.8-11.08-.14-7-.17-13.16-2.46-20-2-6-5.26-11.27-8.79-16.4a58.62,58.62,0,0,0-27-.16,15.58,15.58,0,0,1,5.42,8.91c.52,3.26-1.47,10.76-5.74,11-5.62.33-6-12.73-6.7-17.86a72.68,72.68,0,0,0-15.4,7.75A67,67,0,0,0,234.82,1465a1.33,1.33,0,0,1,.2.53c1.82,14.28,20,19.22,30.89,24.73,3.37,1.7,16,7.61,14.37,12.71-.86,2.69-5.37,2.7-7.49,2.31-5.44-1-10.32-5.34-14.55-8.63-9.76-7.58-19.4-14.88-27.47-24-8.92,19.1-11,41.08-10.63,57.35a1.21,1.21,0,0,1,1,0,43.07,43.07,0,0,0,20.32,3.2c4.32-.4,8.8-1.41,13.15-.78,3.66.54,9.38,5,5.26,8.66-3.51,3.13-11.34,2.37-15.62,1.82a74.59,74.59,0,0,1-23.88-7.61,119,119,0,0,0,1.17,12A58.83,58.83,0,0,0,247,1586.46a61.25,61.25,0,0,0,14.38,7c9.82-8.49,17.26-17.88,21.61-30.67,1.74-5.11,5.38-19.24,12.66-18.75,3.25.21,5.49,4.19,6.1,7,1.05,4.79-1.86,9.57-4.49,13.31-3.87,5.49-8.13,10.63-11.91,16.2-3.66,5.4-7.45,10.69-11.45,15.84a65.37,65.37,0,0,0,27.73-2.22c14-4.34,28.64-18.88,20.89-33.84C337.52,1563.6,356,1565.84,369.43,1557.94ZM246,1518.21a3.58,3.58,0,0,1-.63.1,1.15,1.15,0,0,1-1.74.17c-.2-.2-.38-.42-.57-.63a7.82,7.82,0,0,1-2.87-4.61,1.11,1.11,0,0,1,.17-.94,12.56,12.56,0,0,1-.35-2.75c0-2.18,1-4.66,3.6-4.2a8.1,8.1,0,0,1,6.13,6.5C250,1514.39,248.55,1517.42,246,1518.21Zm91.42,3.51a4,4,0,0,1-6,.51,7.21,7.21,0,0,1-1.82-7.26,1,1,0,0,1,.73-.75s.05-.06.09-.06c2.22-.93,5.25-1,7.17.65C339.7,1516.67,339,1519.73,337.38,1521.72Z"/><path fill="url(#b)" d="M488.77,1475.43a98.28,98.28,0,0,0,23.6,5.74c4.45-15.38,3.76-32.12,2-48.15a66.9,66.9,0,0,1-19.58,14.38c-6.44,3-17.53,8.09-23.29,1.38a1.2,1.2,0,0,1,0-1.66c6.24-5.15,14.56-4.64,21.94-6.95a42.64,42.64,0,0,0,20.19-13.61c-.16-1.33-.32-2.66-.49-4-1.49-11.86-3.54-23.61-5.89-35.31l-.33.67c-1,2-2.9,6.36-5.57,6.8-2.49.4-3.41-2.54-2.91-4.49.77-3,3.62-5.33,4.79-8.19q1.05-2.58,1.85-5.25c-2-9.29-4.12-18.55-6.26-27.81a1.21,1.21,0,0,0-1.45-.83c-9.19,1.28-18.48,2.56-27.75,4.08-10.1,9.93-17.28,21.61-18.46,36.15-.34,4.14,2.25,25.8-7.63,23.16-10.43-2.81-5.51-22.29-3.48-28.78,3.19-10.26,8.47-19.37,14.76-27.87-21,4.13-41.63,10.06-60.53,20.14-7.11,14.86-6.13,30.27,3.08,44.81,2,3.18,13.7,18,4.26,19.61-7.94,1.39-14.14-14.21-15.48-20-2-8.64-.83-17.6-.23-26.33a57.07,57.07,0,0,1,2.93-15l-.67.37c-14.24,8.49-27.78,19.46-32.14,36.18a62.51,62.51,0,0,0-1.35,22.64,106.9,106.9,0,0,0,12.18,15.15c4.69,4.74,10.11,6.87,15.53,10.46,3.86,2.56,10.46,10.61,4.75,14.76-4.59,3.34-13.22-.74-17.61-2.58-1.8-.75-3.54-1.55-5.27-2.38-.7,45.23,38.7,21.83,38.7,22-.3,41.42,42,41.78,68,32.1-2.61-.49-5.23-1-7.85-1.41-5.17-.85-10.46-1.14-15.61-2.17-5.6-1.11-13.39-4.62-12.24-11.77,1-6.17,9-1.18,12,.44,10.11,5.57,21.94,10.72,33.72,10.11,1.25-.74,2.49-1.52,3.69-2.37a73.15,73.15,0,0,0,21.87-24.41,206.07,206.07,0,0,1-30-2.7c-7.19-1.25-18.58-3.16-22-10.68a1.2,1.2,0,0,1,1-1.77c8.66-.64,16.88,1.68,24.51,5.65,9.16,4.77,18.6,6.84,28.43,5.6a67.25,67.25,0,0,0,3-7.42l.14-.47a100.12,100.12,0,0,1-23.51-5.75C486.74,1477.17,487.35,1474.9,488.77,1475.43Zm-15.56-85a1,1,0,0,1,.54-.76,4.55,4.55,0,0,1,4-3.76c5.5-.84,9.34,5.63,4.76,9.4a7.15,7.15,0,0,1-6.6,1.56C473.16,1395.89,472.83,1392.92,473.21,1390.41Zm-50.86,111a4.4,4.4,0,0,1-5.67.29,1,1,0,0,1,.23-1.74,6.32,6.32,0,0,1,1.57-4.24,3.34,3.34,0,0,1,5.27.67C424.82,1498.15,423.79,1500.23,422.35,1501.41Zm4.72-88.92c-.44,2.76-1.76,6.82-4.51,8.17-3.28,1.61-4.63-2.48-5-4.93a1.12,1.12,0,0,1,0-.52,14.93,14.93,0,0,1-1.84-8.53c.55-4.18,4.7-5.26,8.1-3.27C427,1405.25,427.62,1409.15,427.07,1412.49Zm31.13,43.92a5,5,0,0,1-5.76,1,5.77,5.77,0,0,1-3.18-6.32,1.31,1.31,0,0,1,1.8-1,4,4,0,0,1,6-.57C458.78,1451.16,460,1454.37,458.2,1456.41Z"/><path fill="url(#g)" d="M289,1652.23a60.27,60.27,0,0,1,4.95,14.63c-10,3.59-21.1,4-31.8,3.73a42.54,42.54,0,0,0,8.58-13.11c1.68-4.23,4.51-11.49-.21-14.79a.83.83,0,0,0-1.11.08c-3.1,4.21-2.36,9.44-3.53,14.22a27.08,27.08,0,0,1-8,13.46l-2.66-.11c-7.92-.33-15.8-1-23.67-1.95l.42-.23c1.31-.74,4.09-2.16,4.24-3.86s-1.84-2-3.1-1.62c-1.92.63-3.37,2.56-5.2,3.44-1.1.53-2.24,1-3.38,1.44-6.26-.79-12.5-1.67-18.73-2.56a.76.76,0,0,1-.61-.87c.4-5.88.8-11.82,1.36-17.76,6.08-6.88,13.47-12,23-13.5,2.72-.42,17.19.13,15-6-2.36-6.46-15-2.36-19.22-.75a63.64,63.64,0,0,0-17.75,10.74c1.73-13.51,4.66-26.84,10.43-39.3,9.49-5.24,19.74-5.4,29.82-.3,2.2,1.11,12.56,7.74,13.19,1.69.53-5.09-10.1-8.23-14-8.77-5.83-.83-11.7.36-17.45,1.18a39.38,39.38,0,0,0-9.82,2.62c.08-.15.14-.3.22-.45,4.93-9.44,11.55-18.55,22.41-22.15a43.57,43.57,0,0,1,14.93-2,70.7,70.7,0,0,1,10.62,6.93c3.36,2.73,5,6,7.67,9.3,1.88,2.31,7.54,6.08,10,2.26,2-3.08-1.13-8.32-2.56-11-.58-1.1-1.2-2.16-1.83-3.21,29.92-2.73,16.32,23.37,16.46,23.36,27.41-2.29,29.69,24.42,24.54,41.36-.45-1.62-.9-3.25-1.32-4.89-.81-3.23-1.26-6.57-2.18-9.77-1-3.48-3.71-8.23-8.39-7.14-4,.93-.35,5.75.87,7.53,4.18,6.12,8.15,13.34,8.32,20.82-.44.82-.89,1.65-1.39,2.45a47.89,47.89,0,0,1-15.12,15.06,123.69,123.69,0,0,0-3.23-18.81c-1.17-4.48-3-11.59-8.13-13.39a.8.8,0,0,0-1.13.73,27.79,27.79,0,0,0,4.92,15.21,29.05,29.05,0,0,1,5.09,17.71,47.76,47.76,0,0,1-4.78,2.3l-.29.11a61.43,61.43,0,0,0-4.95-14.59C290,1650.85,288.53,1651.36,289,1652.23Zm-57.06-5.54a.64.64,0,0,0-.48.37,3,3,0,0,0-2.29,2.73,3.59,3.59,0,0,0,6.46,2.53,4.43,4.43,0,0,0,.71-4.25C235.52,1646.37,233.54,1646.31,231.89,1646.69ZM303,1608.91a2.69,2.69,0,0,0-.08-3.6.7.7,0,0,0-1.15.23,4.38,4.38,0,0,0-2.73,1.21,2.08,2.08,0,0,0,.7,3.3A2.74,2.74,0,0,0,303,1608.91Zm-58.66,7.49c1.81-.42,4.44-1.47,5.19-3.27.92-2.16-1.87-2.8-3.51-2.92a.94.94,0,0,0-.34,0,10.31,10.31,0,0,0-5.73-.72c-2.75.56-3.26,3.24-1.78,5.29S242.1,1616.9,244.29,1616.4Zm30.59,17.46a3.09,3.09,0,0,0,.39-3.7,3.9,3.9,0,0,0-4.35-1.69.83.83,0,0,0-.58,1.2,2.42,2.42,0,0,0-.09,3.8C271.42,1634.49,273.61,1635.07,274.88,1633.86Z"/><path fill="#6669b0" d="M526.24,1555.39q-4.17-.24-8.32-.57c-5.63-.45-13.52.49-18.17-3.37a1.27,1.27,0,0,1-.08-1.92c8.71-7.34,18.27.74,27.59,1.12a87.21,87.21,0,0,0,.49-21.05,51.35,51.35,0,0,0-3.51-15.06c-5.16,7.06-9.75,14.6-16.54,20.09-2.72,2.2-9.75,8.73-13.32,6.09-3.91-2.9,2.93-7.55,5-9,8.63-5.73,17.08-11.33,23.7-19.74a33.53,33.53,0,0,0-15.65-15.84,71.75,71.75,0,0,0-16.22-5.41c1.26,8.76-.1,21.77-8.2,23.93-5.71,1.53-9.3-5.14-9.68-10.42-.45-6.13,3.49-11.62,8.23-15.07a137.3,137.3,0,0,0-25.68-.32c-1.53.11-3.06.27-4.6.44a1.54,1.54,0,0,1-.15.49c-4.08,7.9-8.7,16.91-9.51,25.94-.3,3.35,1.11,7.77-.66,10.91-2.79,5-8,.87-8.77-3.14-1.41-7.32,2-16.55,4.38-23.44,1-2.89,2-5.95,3.2-9-10.34,2.13-20.48,5.77-29.36,12a59.5,59.5,0,0,0-8.22,7c-1.11,8.91-.78,17.92,2.5,26,2.35,5.77,8.92,16.63,2.51,22.68-4.42,4.15-7-3.78-7.95-7.09-2.88-10.35-4.1-21.49-4.55-32.44a97.14,97.14,0,0,0-10.88,21.14,161.56,161.56,0,0,0-6.64,22.67c5.42,3.82,11.8,5.38,17.67,8.74,2.76,1.57,8.19,4.9,5.56,9.09-5.47,8.69-17.86-1.37-24.83-8.83-.57,7,1.72,12.6,6.62,17.68,10.58,11,27.17,14.54,40,4.57-.51,12.85,9.1,23.38,21.62,21.6a21.3,21.3,0,0,0,11.53-5.92,65.84,65.84,0,0,1-8.75.33c-3.76-.14-10.14-.44-11.65-4.92-1.46-4.31,2.46-4.55,5.2-3.5,3.38,1.3,5.56,3.16,9.42,3.25,4.33.08,8.62-1.3,12.77-3,4.71-5.62,9.27-10.61,16-14.09a77.81,77.81,0,0,1,7.93-3.49c-5.25-.45-13-1.38-14.7-6.18-2.88-8,9.29-8.53,13.39-7.86,5.47.89,10.71,2.63,16.29,3a41.81,41.81,0,0,0,13.84-1.5c.93-.67,1.85-1.37,2.73-2.14C522.12,1566.3,524.71,1561.11,526.24,1555.39Zm-98.67,5.87c-2.47-.09-3.64-3.06-3.92-5.3a11.27,11.27,0,0,1,1-6.33,1.25,1.25,0,0,1,.06-.56c.53-1.54,1.39-3.38,3-3.86a3.23,3.23,0,0,1,3.23,1.15c1.93,2,2.66,5.55,2.15,8.44C432.67,1557.39,430.45,1561.37,427.57,1561.26Zm30.83-29.68a6.58,6.58,0,0,1,1.85-7.85,1.14,1.14,0,0,1,.69-.27c2.19-1.52,4.79-1.23,6.09,1.42a6.76,6.76,0,0,1-2.27,8.29A4.19,4.19,0,0,1,458.4,1531.58Zm-4.87,56c-1.53,2.56-5.07,3.65-7.1,1.43a6.38,6.38,0,0,1-.81-6.56,1.15,1.15,0,0,1,.05-1.74C449.88,1577.08,456.64,1582.4,453.53,1587.58Z"/><path fill="#33308e" d="M389.13,1648c1.49,0,3-.13,4.44-.17,1.54-4.48,3.2-8.93,5.2-13.29.54-1.16,1.07-2.33,1.65-3.49A162.36,162.36,0,0,1,446,1574.7c2.16-1.75-.91-4.78-3.07-3.07a165.53,165.53,0,0,0-46.48,57.56c-.25.54-.5,1.08-.71,1.62A135.74,135.74,0,0,0,389.13,1648Z"/><path fill="#33308e" d="M366,1648.3c1.45,0,2.91,0,4.36,0,.79-6.07,1.74-12.13,2.79-18.16,1.78-10.46,3.89-20.89,6.18-31.22,4.9-21.85,10.67-43.49,16.48-65.13,5.7-21.14,11.8-42.2,24.84-60.13,1.67-2.25-2.11-4.4-3.73-2.17-12.55,17.2-18.82,37.26-24.34,57.61-6.56,24.13-13,48.35-18.32,72.76-2,9.39-3.94,18.82-5.52,28.28C367.74,1636.21,366.83,1642.27,366,1648.3Z"/><path fill="#33308e" d="M314.33,1548.87a247.53,247.53,0,0,1,14.12,35.64c.58,1.74,1.08,3.48,1.58,5.23h0a331.12,331.12,0,0,1,9.14,41.36c.91,5.44,1.66,11,2.32,16.45,1.41.08,2.87.16,4.36.2-.7-5.65-1.45-11.25-2.36-16.86a351.69,351.69,0,0,0-7.85-37c-.62-2.24-1.25-4.53-2-6.77a264.75,264.75,0,0,0-15.65-40.42C316.87,1544.13,313.13,1546.33,314.33,1548.87Z"/><path fill="#33308e" d="M274.13,1615.4c11.22-7.43,22.39-15,33.68-22.34,6.31-4.07,12.55-7.1,20.1-4.32a15.31,15.31,0,0,1,2.12,1,23.82,23.82,0,0,1,5.65,4.11,35.66,35.66,0,0,1,5.65,7.14c5.19,8.6,7.77,18.86,9.18,29.57.79,5.78,1.24,11.67,1.57,17.45,1.37.08,2.78.12,4.24.16-.37-5.82-.79-11.83-1.58-17.77-1.87-14.7-5.77-28.91-15.2-38.59a31,31,0,0,0-5.82-4.73,24,24,0,0,0-5.27-2.57,20.46,20.46,0,0,0-14.41.2c-6.52,2.53-12.62,7.6-18.44,11.47-7.85,5.23-15.7,10.42-23.55,15.65C269.81,1613.28,271.88,1616.9,274.13,1615.4Z"/><path fill="#cbd3eb" d="M1146.91,482.24l-42.52-23.86L1087,483.88a122.62,122.62,0,0,0-42.46-5.05l-10.86-28.89-46.89,13.18,5.75,30.31A123,123,0,0,0,959,519.86l-28.11-12.72L907,549.64,932.48,567a123.21,123.21,0,0,0-5.07,42.46l-28.87,10.87,13.17,46.88L942,661.48a123.05,123.05,0,0,0,26.43,33.62l-12.73,28.1,42.51,23.86,17.37-25.49a123.71,123.71,0,0,0,42.46,5l10.87,28.88,46.89-13.17L1110.07,712a123,123,0,0,0,33.62-26.42l28.11,12.72,23.86-42.51-25.5-17.38a122.8,122.8,0,0,0,5-42.44l28.88-10.88-13.17-46.89L1160.61,544a123.52,123.52,0,0,0-26.43-33.61ZM1128,645.78A88,88,0,1,1,1094.38,526,88,88,0,0,1,1128,645.78Z"/><path fill="#cbd3eb" d="M863.18,164.09,816,137.6l-19.29,28.31a136.3,136.3,0,0,0-47.15-5.6l-12.06-32.08L685.4,142.86l6.4,33.66a136.29,136.29,0,0,0-37.33,29.35l-31.21-14.13-26.5,47.2,28.32,19.29a136.84,136.84,0,0,0-5.62,47.15L587.4,317.44,602,369.51l33.66-6.4A136.1,136.1,0,0,0,665,400.44L650.9,431.65l47.2,26.5,19.3-28.31a137,137,0,0,0,47.14,5.61l12.07,32.06,52.06-14.62-6.39-33.66a137,137,0,0,0,37.32-29.34L890.82,404l26.49-47.21L889,337.51a136.19,136.19,0,0,0,5.61-47.13l32.07-12.07-14.63-52.07-33.66,6.39a137,137,0,0,0-29.34-37.31Zm-21,181.6a97.68,97.68,0,1,1-37.37-133A97.7,97.7,0,0,1,842.22,345.69Z"/><path fill="#2a276f" d="M1593.54,547.63a2.82,2.82,0,0,1-2.82-2.82V529.74a2.83,2.83,0,1,1,5.65,0v15.07A2.83,2.83,0,0,1,1593.54,547.63Z"/><path fill="#2a276f" d="M1487.4,1306.79h-30.64a2.83,2.83,0,0,1,0-5.65h30.64a2.83,2.83,0,1,1,0,5.65Zm-61.27,0h-30.64a2.83,2.83,0,1,1,0-5.65h30.64a2.83,2.83,0,0,1,0,5.65Zm91.85-1a2.83,2.83,0,0,1-.42-5.63,85,85,0,0,0,28-9.35,2.83,2.83,0,0,1,2.69,5,91,91,0,0,1-29.83,10Zm52.83-28.54a2.82,2.82,0,0,1-1.89-.72,2.85,2.85,0,0,1-.21-4,85.58,85.58,0,0,0,15.67-25,2.83,2.83,0,1,1,5.24,2.13,91.7,91.7,0,0,1-16.7,26.66A2.82,2.82,0,0,1,1570.81,1277.26Zm22.65-55.62h-.12a2.83,2.83,0,0,1-2.71-2.94c.06-1.21.09-2.41.09-3.64v-26.88a2.83,2.83,0,1,1,5.65,0v26.88c0,1.3,0,2.6-.08,3.88A2.84,2.84,0,0,1,1593.46,1221.64Zm.08-61.27a2.83,2.83,0,0,1-2.82-2.83V1126.9a2.83,2.83,0,0,1,5.65,0v30.64A2.83,2.83,0,0,1,1593.54,1160.37Zm0-61.27a2.83,2.83,0,0,1-2.82-2.83v-30.64a2.83,2.83,0,0,1,5.65,0v30.64A2.83,2.83,0,0,1,1593.54,1099.1Zm0-61.28a2.83,2.83,0,0,1-2.82-2.83v-30.63a2.83,2.83,0,1,1,5.65,0V1035A2.83,2.83,0,0,1,1593.54,1037.82Zm0-61.28a2.82,2.82,0,0,1-2.82-2.82V943.09a2.83,2.83,0,1,1,5.65,0v30.63A2.83,2.83,0,0,1,1593.54,976.54Zm0-61.27a2.82,2.82,0,0,1-2.82-2.82V881.81a2.83,2.83,0,1,1,5.65,0v30.64A2.83,2.83,0,0,1,1593.54,915.27Zm0-61.27a2.83,2.83,0,0,1-2.82-2.83V820.53a2.83,2.83,0,0,1,5.65,0v30.64A2.83,2.83,0,0,1,1593.54,854Zm0-61.27a2.83,2.83,0,0,1-2.82-2.83V759.26a2.83,2.83,0,0,1,5.65,0V789.9A2.83,2.83,0,0,1,1593.54,792.73Zm0-61.28a2.82,2.82,0,0,1-2.82-2.82V698a2.83,2.83,0,1,1,5.65,0v30.64A2.83,2.83,0,0,1,1593.54,731.45Zm0-61.28a2.82,2.82,0,0,1-2.82-2.82V636.72a2.83,2.83,0,1,1,5.65,0v30.63A2.83,2.83,0,0,1,1593.54,670.17Zm0-61.27a2.82,2.82,0,0,1-2.82-2.82V575.44a2.83,2.83,0,1,1,5.65,0v30.64A2.83,2.83,0,0,1,1593.54,608.9Z"/><path fill="#2a276f" d="M1364.76,1306.79h-15.07a2.83,2.83,0,0,1,0-5.65h15.07a2.83,2.83,0,1,1,0,5.65Z"/><path fill="#cbd3eb" d="M703,1705.1h497.36a33.64,33.64,0,0,1,33.65,33.64v67.62a33.64,33.64,0,0,1-33.65,33.64H703a33.64,33.64,0,0,1-33.64-33.64v-67.62A33.64,33.64,0,0,1,703,1705.1Z"/><path fill="url(#h)" d="M904.6,1705.1H1402a33.64,33.64,0,0,1,33.64,33.64v67.62A33.64,33.64,0,0,1,1402,1840H904.6A33.64,33.64,0,0,1,871,1806.36v-67.62A33.64,33.64,0,0,1,904.6,1705.1Z"/><path fill="#cbd3eb" d="M928.44,1777.86h324.27a7.75,7.75,0,1,1,0,15.49H928.44a7.75,7.75,0,1,1,0-15.49Z"/><path fill="url(#c)" d="M928.44,1777.86h289.68a7.75,7.75,0,1,1,0,15.49H928.44a7.75,7.75,0,1,1,0-15.49Z"/><path fill="#cbd3eb" d="M928.44,1748.21h324.27a7.75,7.75,0,0,1,0,15.5H928.44a7.75,7.75,0,0,1,0-15.5Z"/><path fill="#fff" d="M928.44,1748.21H1174.2a7.75,7.75,0,0,1,0,15.5H928.44a7.75,7.75,0,0,1,0-15.5Z"/><path fill="#6669b0" d="M1005.61,1812.83h198a18.64,18.64,0,0,1,18.65,18.65V1840H987v-8.52A18.65,18.65,0,0,1,1005.61,1812.83Z"/><path fill="#6669b0" d="M729.5,1812.83h82.24a18.64,18.64,0,0,1,18.65,18.65V1840H710.86v-8.52A18.64,18.64,0,0,1,729.5,1812.83Z"/><circle cx="1385.86" cy="1772.55" r="13.05" fill="#fbfcfc" transform="rotate(-22.37 1386.056 1772.731)"/><path fill="#6669b0" d="M1370.6,1772.55a15.26,15.26,0,1,0,15.26-15.25A15.28,15.28,0,0,0,1370.6,1772.55Zm4.41,0a10.85,10.85,0,1,1,10.85,10.86A10.86,10.86,0,0,1,1375,1772.55Z"/><circle cx="1338.85" cy="1772.55" r="13.05" fill="#cbd3eb"/><path fill="#6669b0" d="M1323.59,1772.55a15.26,15.26,0,1,0,15.26-15.25A15.28,15.28,0,0,0,1323.59,1772.55Zm4.4,0a10.85,10.85,0,1,1,10.86,10.86A10.87,10.87,0,0,1,1328,1772.55Z"/><rect width="27.53" height="8.81" x="1298.27" y="1768.15" fill="#6669b0"/><path fill="#6669b0" d="M711.33,1743.11a8.65,8.65,0,1,1-8.65,8.64A8.64,8.64,0,0,1,711.33,1743.11Z"/><path fill="#6669b0" d="M711.33,1774.4a8.65,8.65,0,1,1-8.65,8.65A8.64,8.64,0,0,1,711.33,1774.4Z"/><path fill="#6669b0" d="M750.85,1743.11a8.65,8.65,0,1,1-8.64,8.64A8.65,8.65,0,0,1,750.85,1743.11Z"/><path fill="#6669b0" d="M750.85,1774.4a8.65,8.65,0,1,1-8.64,8.65A8.66,8.66,0,0,1,750.85,1774.4Z"/><path fill="#6669b0" d="M790.39,1743.11a8.65,8.65,0,1,1-8.65,8.64A8.64,8.64,0,0,1,790.39,1743.11Z"/><path fill="#6669b0" d="M790.39,1774.4a8.65,8.65,0,1,1-8.65,8.65A8.64,8.64,0,0,1,790.39,1774.4Z"/><path fill="#6669b0" d="M829.91,1743.11a8.65,8.65,0,1,1-8.64,8.64A8.64,8.64,0,0,1,829.91,1743.11Z"/><path fill="#6669b0" d="M829.91,1774.4a8.65,8.65,0,1,1-8.64,8.65A8.65,8.65,0,0,1,829.91,1774.4Z"/><rect width="648.44" height="21.29" x="724.36" y="1840" fill="#6669b0"/><path fill="#cbd3eb" d="M703,1548.91h497.36a33.64,33.64,0,0,1,33.65,33.64v67.62a33.64,33.64,0,0,1-33.65,33.64H703a33.64,33.64,0,0,1-33.64-33.64v-67.62A33.64,33.64,0,0,1,703,1548.91Z"/><path fill="url(#i)" d="M904.6,1548.91H1402a33.64,33.64,0,0,1,33.64,33.64v67.62a33.64,33.64,0,0,1-33.64,33.64H904.6A33.64,33.64,0,0,1,871,1650.17v-67.62A33.64,33.64,0,0,1,904.6,1548.91Z"/><path fill="#cbd3eb" d="M928.44,1621.66h324.27a7.75,7.75,0,0,1,0,15.5H928.44a7.75,7.75,0,0,1,0-15.5Z"/><path fill="url(#j)" d="M928.44,1621.66h289.68a7.75,7.75,0,0,1,0,15.5H928.44a7.75,7.75,0,0,1,0-15.5Z"/><path fill="#cbd3eb" d="M928.44,1592h324.27a7.75,7.75,0,1,1,0,15.5H928.44a7.75,7.75,0,1,1,0-15.5Z"/><path fill="#fff" d="M928.44,1592H1174.2a7.75,7.75,0,1,1,0,15.5H928.44a7.75,7.75,0,1,1,0-15.5Z"/><path fill="#6669b0" d="M1005.61,1656.64h198a18.64,18.64,0,0,1,18.65,18.64v8.53H987v-8.53A18.64,18.64,0,0,1,1005.61,1656.64Z"/><path fill="#6669b0" d="M729.5,1656.64h82.24a18.64,18.64,0,0,1,18.65,18.64v8.53H710.86v-8.53A18.63,18.63,0,0,1,729.5,1656.64Z"/><path fill="#fbfcfc" d="M1385.86,1603.31a13.05,13.05,0,1,1-13.06,13A13,13,0,0,1,1385.86,1603.31Z"/><path fill="#6669b0" d="M1370.6,1616.35a15.26,15.26,0,1,0,15.26-15.24A15.28,15.28,0,0,0,1370.6,1616.35Zm4.41,0a10.85,10.85,0,1,1,10.85,10.86A10.86,10.86,0,0,1,1375,1616.35Z"/><path fill="#cbd3eb" d="M1338.85,1603.31a13.05,13.05,0,1,1-13.06,13A13,13,0,0,1,1338.85,1603.31Z"/><path fill="#6669b0" d="M1323.59,1616.35a15.26,15.26,0,1,0,15.26-15.24A15.28,15.28,0,0,0,1323.59,1616.35Zm4.4,0a10.85,10.85,0,1,1,10.86,10.86A10.87,10.87,0,0,1,1328,1616.35Z"/><rect width="27.53" height="8.81" x="1298.27" y="1611.95" fill="#6669b0"/><path fill="#6669b0" d="M711.33,1586.91a8.65,8.65,0,1,1-8.65,8.65A8.64,8.64,0,0,1,711.33,1586.91Z"/><path fill="#6669b0" d="M711.33,1618.21a8.65,8.65,0,1,1-8.65,8.64A8.64,8.64,0,0,1,711.33,1618.21Z"/><path fill="#6669b0" d="M750.85,1586.91a8.65,8.65,0,1,1-8.64,8.65A8.66,8.66,0,0,1,750.85,1586.91Z"/><path fill="#6669b0" d="M750.85,1618.21a8.65,8.65,0,1,1-8.64,8.64A8.65,8.65,0,0,1,750.85,1618.21Z"/><path fill="#6669b0" d="M790.39,1586.91a8.65,8.65,0,1,1-8.65,8.65A8.64,8.64,0,0,1,790.39,1586.91Z"/><path fill="#6669b0" d="M790.39,1618.21a8.65,8.65,0,1,1-8.65,8.64A8.64,8.64,0,0,1,790.39,1618.21Z"/><path fill="#6669b0" d="M829.91,1586.91a8.65,8.65,0,1,1-8.64,8.65A8.65,8.65,0,0,1,829.91,1586.91Z"/><path fill="#6669b0" d="M829.91,1618.21a8.65,8.65,0,1,1-8.64,8.64A8.64,8.64,0,0,1,829.91,1618.21Z"/><rect width="648.44" height="21.29" x="724.36" y="1683.81" fill="#6669b0"/><path fill="#cbd3eb" d="M703,1392.71h497.36a33.64,33.64,0,0,1,33.65,33.65V1494a33.64,33.64,0,0,1-33.65,33.64H703A33.64,33.64,0,0,1,669.36,1494v-67.61A33.65,33.65,0,0,1,703,1392.71Z"/><path fill="url(#k)" d="M904.6,1392.71H1402a33.65,33.65,0,0,1,33.64,33.65V1494a33.64,33.64,0,0,1-33.64,33.64H904.6A33.64,33.64,0,0,1,871,1494v-67.61A33.64,33.64,0,0,1,904.6,1392.71Z"/><path fill="#cbd3eb" d="M928.44,1465.46h324.27a7.76,7.76,0,0,1,0,15.51H928.44a7.76,7.76,0,0,1,0-15.51Z"/><path fill="url(#l)" d="M928.44,1465.46h289.68a7.76,7.76,0,0,1,0,15.51H928.44a7.76,7.76,0,0,1,0-15.51Z"/><path fill="#cbd3eb" d="M928.44,1435.82h324.27a7.75,7.75,0,1,1,0,15.5H928.44a7.75,7.75,0,1,1,0-15.5Z"/><path fill="#fff" d="M928.44,1435.82H1174.2a7.75,7.75,0,1,1,0,15.5H928.44a7.75,7.75,0,1,1,0-15.5Z"/><path fill="#6669b0" d="M1005.61,1500.44h198a18.65,18.65,0,0,1,18.65,18.65v8.52H987v-8.52A18.65,18.65,0,0,1,1005.61,1500.44Z"/><path fill="#6669b0" d="M729.5,1500.44h82.24a18.65,18.65,0,0,1,18.65,18.65v8.52H710.86v-8.52A18.64,18.64,0,0,1,729.5,1500.44Z"/><circle cx="1385.86" cy="1460.16" r="13.05" fill="#fbfcfc" transform="rotate(-22.37 1386.062 1460.293)"/><path fill="#6669b0" d="M1370.6,1460.16a15.26,15.26,0,1,0,15.26-15.25A15.28,15.28,0,0,0,1370.6,1460.16Zm4.41,0a10.85,10.85,0,1,1,10.85,10.85A10.86,10.86,0,0,1,1375,1460.16Z"/><circle cx="1338.85" cy="1460.16" r="13.05" fill="#cbd3eb"/><path fill="#6669b0" d="M1323.59,1460.16a15.26,15.26,0,1,0,15.26-15.25A15.28,15.28,0,0,0,1323.59,1460.16Zm4.4,0a10.85,10.85,0,1,1,10.86,10.85A10.87,10.87,0,0,1,1328,1460.16Z"/><rect width="27.53" height="8.81" x="1298.27" y="1455.76" fill="#6669b0"/><path fill="#6669b0" d="M711.33,1430.71a8.65,8.65,0,1,1-8.65,8.65A8.64,8.64,0,0,1,711.33,1430.71Z"/><path fill="#6669b0" d="M711.33,1462a8.65,8.65,0,1,1-8.65,8.65A8.64,8.64,0,0,1,711.33,1462Z"/><path fill="#6669b0" d="M750.85,1430.71a8.65,8.65,0,1,1-8.64,8.65A8.66,8.66,0,0,1,750.85,1430.71Z"/><path fill="#6669b0" d="M750.85,1462a8.65,8.65,0,1,1-8.64,8.65A8.66,8.66,0,0,1,750.85,1462Z"/><path fill="#6669b0" d="M790.39,1430.71a8.65,8.65,0,1,1-8.65,8.65A8.64,8.64,0,0,1,790.39,1430.71Z"/><path fill="#6669b0" d="M790.39,1462a8.65,8.65,0,1,1-8.65,8.65A8.64,8.64,0,0,1,790.39,1462Z"/><path fill="#6669b0" d="M829.91,1430.71a8.65,8.65,0,1,1-8.64,8.65A8.65,8.65,0,0,1,829.91,1430.71Z"/><path fill="#6669b0" d="M829.91,1462a8.65,8.65,0,1,1-8.64,8.65A8.65,8.65,0,0,1,829.91,1462Z"/><rect width="648.44" height="21.29" x="724.36" y="1527.61" fill="#6669b0"/><path fill="#cbd3eb" d="M703,1236.51h497.36a33.64,33.64,0,0,1,33.65,33.65v67.61a33.64,33.64,0,0,1-33.65,33.65H703a33.65,33.65,0,0,1-33.64-33.65v-67.61A33.65,33.65,0,0,1,703,1236.51Z"/><path fill="url(#m)" d="M904.6,1236.51H1402a33.65,33.65,0,0,1,33.64,33.65v67.61a33.65,33.65,0,0,1-33.64,33.65H904.6A33.64,33.64,0,0,1,871,1337.77v-67.61A33.64,33.64,0,0,1,904.6,1236.51Z"/><path fill="#cbd3eb" d="M928.44,1309.27h324.27a7.75,7.75,0,0,1,0,15.5H928.44a7.75,7.75,0,0,1,0-15.5Z"/><path fill="url(#n)" d="M928.44,1309.27h289.68a7.75,7.75,0,0,1,0,15.5H928.44a7.75,7.75,0,0,1,0-15.5Z"/><path fill="#cbd3eb" d="M928.44,1279.62h324.27a7.76,7.76,0,0,1,0,15.51H928.44a7.76,7.76,0,0,1,0-15.51Z"/><path fill="#fff" d="M928.44,1279.62H1174.2a7.76,7.76,0,0,1,0,15.51H928.44a7.76,7.76,0,0,1,0-15.51Z"/><path fill="#6669b0" d="M1005.61,1344.24h198a18.65,18.65,0,0,1,18.65,18.65v8.53H987v-8.53A18.65,18.65,0,0,1,1005.61,1344.24Z"/><path fill="#6669b0" d="M729.5,1344.24h82.24a18.65,18.65,0,0,1,18.65,18.65v8.53H710.86v-8.53A18.64,18.64,0,0,1,729.5,1344.24Z"/><circle cx="1385.86" cy="1303.97" r="13.05" fill="#fbfcfc" transform="rotate(-22.37 1386.05 1304.085)"/><path fill="#6669b0" d="M1370.6,1304a15.26,15.26,0,1,0,15.26-15.25A15.28,15.28,0,0,0,1370.6,1304Zm4.41,0a10.85,10.85,0,1,1,10.85,10.86A10.85,10.85,0,0,1,1375,1304Z"/><circle cx="1338.85" cy="1303.97" r="13.05" fill="#cbd3eb"/><path fill="#6669b0" d="M1323.59,1304a15.26,15.26,0,1,0,15.26-15.25A15.28,15.28,0,0,0,1323.59,1304Zm4.4,0a10.85,10.85,0,1,1,10.86,10.86A10.86,10.86,0,0,1,1328,1304Z"/><rect width="27.53" height="8.81" x="1298.27" y="1299.56" fill="#6669b0"/><path fill="#6669b0" d="M711.33,1274.52a8.65,8.65,0,1,1-8.65,8.64A8.64,8.64,0,0,1,711.33,1274.52Z"/><path fill="#6669b0" d="M711.33,1305.81a8.65,8.65,0,1,1-8.65,8.65A8.65,8.65,0,0,1,711.33,1305.81Z"/><path fill="#6669b0" d="M750.85,1274.52a8.65,8.65,0,1,1-8.64,8.64A8.65,8.65,0,0,1,750.85,1274.52Z"/><path fill="#6669b0" d="M750.85,1305.81a8.65,8.65,0,1,1-8.64,8.65A8.66,8.66,0,0,1,750.85,1305.81Z"/><path fill="#6669b0" d="M790.39,1274.52a8.65,8.65,0,1,1-8.65,8.64A8.64,8.64,0,0,1,790.39,1274.52Z"/><path fill="#6669b0" d="M790.39,1305.81a8.65,8.65,0,1,1-8.65,8.65A8.65,8.65,0,0,1,790.39,1305.81Z"/><path fill="#6669b0" d="M829.91,1274.52a8.65,8.65,0,1,1-8.64,8.64A8.64,8.64,0,0,1,829.91,1274.52Z"/><path fill="#6669b0" d="M829.91,1305.81a8.65,8.65,0,1,1-8.64,8.65A8.65,8.65,0,0,1,829.91,1305.81Z"/><rect width="648.44" height="21.29" x="724.36" y="1371.42" fill="#6669b0"/><path fill="#cbd3eb" d="M703,1080.23h497.36a33.64,33.64,0,0,1,33.65,33.65v67.61a33.65,33.65,0,0,1-33.65,33.65H703a33.65,33.65,0,0,1-33.64-33.65v-67.61A33.65,33.65,0,0,1,703,1080.23Z"/><path fill="url(#o)" d="M904.6,1080.23H1402a33.65,33.65,0,0,1,33.64,33.65v67.61a33.65,33.65,0,0,1-33.64,33.65H904.6A33.65,33.65,0,0,1,871,1181.49v-67.61A33.64,33.64,0,0,1,904.6,1080.23Z"/><path fill="#cbd3eb" d="M928.44,1153h324.27a7.75,7.75,0,1,1,0,15.5H928.44a7.75,7.75,0,1,1,0-15.5Z"/><path fill="url(#p)" d="M928.44,1153h289.68a7.75,7.75,0,1,1,0,15.5H928.44a7.75,7.75,0,1,1,0-15.5Z"/><path fill="#cbd3eb" d="M928.44,1123.34h324.27a7.75,7.75,0,0,1,0,15.5H928.44a7.75,7.75,0,1,1,0-15.5Z"/><path fill="#fff" d="M928.44,1123.34H1174.2a7.75,7.75,0,0,1,0,15.5H928.44a7.75,7.75,0,1,1,0-15.5Z"/><path fill="#6669b0" d="M1005.61,1188h198a18.65,18.65,0,0,1,18.65,18.65v8.53H987v-8.53A18.65,18.65,0,0,1,1005.61,1188Z"/><path fill="#6669b0" d="M729.5,1188h82.24a18.65,18.65,0,0,1,18.65,18.65v8.53H710.86v-8.53A18.64,18.64,0,0,1,729.5,1188Z"/><path fill="#fbfcfc" d="M1385.86,1134.63a13.05,13.05,0,1,1-13.06,13A13.05,13.05,0,0,1,1385.86,1134.63Z"/><path fill="#6669b0" d="M1370.6,1147.68a15.26,15.26,0,1,0,15.26-15.25A15.28,15.28,0,0,0,1370.6,1147.68Zm4.41,0a10.85,10.85,0,1,1,10.85,10.85A10.85,10.85,0,0,1,1375,1147.68Z"/><path fill="#cbd3eb" d="M1338.85,1134.63a13.05,13.05,0,1,1-13.06,13A13.05,13.05,0,0,1,1338.85,1134.63Z"/><path fill="#6669b0" d="M1323.59,1147.68a15.26,15.26,0,1,0,15.26-15.25A15.28,15.28,0,0,0,1323.59,1147.68Zm4.4,0a10.85,10.85,0,1,1,10.86,10.85A10.86,10.86,0,0,1,1328,1147.68Z"/><rect width="27.53" height="8.81" x="1298.27" y="1143.28" fill="#6669b0"/><path fill="#6669b0" d="M711.33,1118.23a8.65,8.65,0,1,1-8.65,8.65A8.64,8.64,0,0,1,711.33,1118.23Z"/><path fill="#6669b0" d="M711.33,1149.53a8.65,8.65,0,1,1-8.65,8.64A8.64,8.64,0,0,1,711.33,1149.53Z"/><path fill="#6669b0" d="M750.85,1118.23a8.65,8.65,0,1,1-8.64,8.65A8.66,8.66,0,0,1,750.85,1118.23Z"/><path fill="#6669b0" d="M750.85,1149.53a8.65,8.65,0,1,1-8.64,8.64A8.65,8.65,0,0,1,750.85,1149.53Z"/><path fill="#6669b0" d="M790.39,1118.23a8.65,8.65,0,1,1-8.65,8.65A8.64,8.64,0,0,1,790.39,1118.23Z"/><path fill="#6669b0" d="M790.39,1149.53a8.65,8.65,0,1,1-8.65,8.64A8.64,8.64,0,0,1,790.39,1149.53Z"/><path fill="#6669b0" d="M829.91,1118.23a8.65,8.65,0,1,1-8.64,8.65A8.65,8.65,0,0,1,829.91,1118.23Z"/><path fill="#6669b0" d="M829.91,1149.53a8.65,8.65,0,1,1-8.64,8.64A8.64,8.64,0,0,1,829.91,1149.53Z"/><rect width="648.44" height="21.29" x="724.36" y="1215.14" fill="#6669b0"/><path fill="#cbd3eb" d="M703,924h497.36A33.65,33.65,0,0,1,1234,957.68v67.62a33.64,33.64,0,0,1-33.65,33.64H703a33.64,33.64,0,0,1-33.64-33.64V957.68A33.65,33.65,0,0,1,703,924Z"/><path fill="url(#q)" d="M904.6,924H1402a33.65,33.65,0,0,1,33.64,33.64v67.62a33.64,33.64,0,0,1-33.64,33.64H904.6A33.64,33.64,0,0,1,871,1025.3V957.68A33.65,33.65,0,0,1,904.6,924Z"/><path fill="#cbd3eb" d="M928.44,996.79h324.27a7.76,7.76,0,0,1,0,15.51H928.44a7.76,7.76,0,0,1,0-15.51Z"/><path fill="url(#r)" d="M928.44,996.79h289.68a7.76,7.76,0,0,1,0,15.51H928.44a7.76,7.76,0,0,1,0-15.51Z"/><path fill="#cbd3eb" d="M928.44,967.15h324.27a7.75,7.75,0,0,1,0,15.5H928.44a7.75,7.75,0,0,1,0-15.5Z"/><path fill="#fff" d="M928.44,967.15H1174.2a7.75,7.75,0,0,1,0,15.5H928.44a7.75,7.75,0,0,1,0-15.5Z"/><path fill="#6669b0" d="M1005.61,1031.76h198a18.66,18.66,0,0,1,18.65,18.66v8.52H987v-8.52A18.66,18.66,0,0,1,1005.61,1031.76Z"/><path fill="#6669b0" d="M729.5,1031.76h82.24a18.66,18.66,0,0,1,18.65,18.66v8.52H710.86v-8.52A18.65,18.65,0,0,1,729.5,1031.76Z"/><path fill="#fbfcfc" d="M1385.86,978.44a13.06,13.06,0,1,1-13.06,13A13,13,0,0,1,1385.86,978.44Z"/><path fill="#6669b0" d="M1370.6,991.49a15.26,15.26,0,1,0,15.26-15.26A15.28,15.28,0,0,0,1370.6,991.49Zm4.41,0a10.85,10.85,0,1,1,10.85,10.85A10.86,10.86,0,0,1,1375,991.49Z"/><path fill="#cbd3eb" d="M1338.85,978.44a13.06,13.06,0,1,1-13.06,13A13,13,0,0,1,1338.85,978.44Z"/><path fill="#6669b0" d="M1323.59,991.49a15.26,15.26,0,1,0,15.26-15.26A15.28,15.28,0,0,0,1323.59,991.49Zm4.4,0a10.85,10.85,0,1,1,10.86,10.85A10.87,10.87,0,0,1,1328,991.49Z"/><rect width="27.53" height="8.81" x="1298.27" y="987.09" fill="#6669b0"/><path fill="#6669b0" d="M711.33,962a8.65,8.65,0,1,1-8.65,8.65A8.65,8.65,0,0,1,711.33,962Z"/><path fill="#6669b0" d="M711.33,993.34a8.65,8.65,0,1,1-8.65,8.65A8.64,8.64,0,0,1,711.33,993.34Z"/><path fill="#6669b0" d="M750.85,962a8.65,8.65,0,1,1-8.64,8.65A8.66,8.66,0,0,1,750.85,962Z"/><path fill="#6669b0" d="M750.85,993.34a8.65,8.65,0,1,1-8.64,8.65A8.66,8.66,0,0,1,750.85,993.34Z"/><path fill="#6669b0" d="M790.39,962a8.65,8.65,0,1,1-8.65,8.65A8.65,8.65,0,0,1,790.39,962Z"/><path fill="#6669b0" d="M790.39,993.34a8.65,8.65,0,1,1-8.65,8.65A8.64,8.64,0,0,1,790.39,993.34Z"/><path fill="#6669b0" d="M829.91,962a8.65,8.65,0,1,1-8.64,8.65A8.65,8.65,0,0,1,829.91,962Z"/><path fill="#6669b0" d="M829.91,993.34a8.65,8.65,0,1,1-8.64,8.65A8.65,8.65,0,0,1,829.91,993.34Z"/><rect width="648.44" height="21.29" x="724.36" y="1058.94" fill="#6669b0"/><path fill="#cbd3eb" d="M703,767.85h497.36A33.64,33.64,0,0,1,1234,801.49v67.62a33.65,33.65,0,0,1-33.65,33.65H703a33.65,33.65,0,0,1-33.64-33.65V801.49A33.64,33.64,0,0,1,703,767.85Z"/><path fill="url(#s)" d="M904.6,767.85H1402a33.64,33.64,0,0,1,33.64,33.64v67.62A33.65,33.65,0,0,1,1402,902.76H904.6A33.65,33.65,0,0,1,871,869.11V801.49A33.64,33.64,0,0,1,904.6,767.85Z"/><path fill="#cbd3eb" d="M928.44,840.61h324.27a7.75,7.75,0,1,1,0,15.5H928.44a7.75,7.75,0,1,1,0-15.5Z"/><path fill="url(#t)" d="M928.44,840.61h289.68a7.75,7.75,0,1,1,0,15.5H928.44a7.75,7.75,0,1,1,0-15.5Z"/><path fill="#cbd3eb" d="M928.44,811h324.27a7.76,7.76,0,0,1,0,15.51H928.44a7.76,7.76,0,0,1,0-15.51Z"/><path fill="#fff" d="M928.44,811H1174.2a7.76,7.76,0,0,1,0,15.51H928.44a7.76,7.76,0,0,1,0-15.51Z"/><path fill="#6669b0" d="M1005.61,875.58h198a18.65,18.65,0,0,1,18.65,18.65v8.53H987v-8.53A18.65,18.65,0,0,1,1005.61,875.58Z"/><path fill="#6669b0" d="M729.5,875.58h82.24a18.65,18.65,0,0,1,18.65,18.65v8.53H710.86v-8.53A18.64,18.64,0,0,1,729.5,875.58Z"/><circle cx="1385.86" cy="835.3" r="13.05" fill="#fbfcfc" transform="rotate(-22.37 1386.034 835.357)"/><path fill="#6669b0" d="M1370.6,835.3a15.26,15.26,0,1,0,15.26-15.25A15.27,15.27,0,0,0,1370.6,835.3Zm4.41,0a10.85,10.85,0,1,1,10.85,10.85A10.86,10.86,0,0,1,1375,835.3Z"/><circle cx="1338.85" cy="835.3" r="13.05" fill="#cbd3eb"/><path fill="#6669b0" d="M1323.59,835.3a15.26,15.26,0,1,0,15.26-15.25A15.27,15.27,0,0,0,1323.59,835.3Zm4.4,0a10.85,10.85,0,1,1,10.86,10.85A10.87,10.87,0,0,1,1328,835.3Z"/><rect width="27.53" height="8.81" x="1298.27" y="830.89" fill="#6669b0"/><path fill="#6669b0" d="M711.33,805.85a8.65,8.65,0,1,1-8.65,8.65A8.64,8.64,0,0,1,711.33,805.85Z"/><path fill="#6669b0" d="M711.33,837.15a8.65,8.65,0,1,1-8.65,8.64A8.64,8.64,0,0,1,711.33,837.15Z"/><path fill="#6669b0" d="M750.85,805.85a8.65,8.65,0,1,1-8.64,8.65A8.66,8.66,0,0,1,750.85,805.85Z"/><path fill="#6669b0" d="M750.85,837.15a8.65,8.65,0,1,1-8.64,8.64A8.65,8.65,0,0,1,750.85,837.15Z"/><path fill="#6669b0" d="M790.39,805.85a8.65,8.65,0,1,1-8.65,8.65A8.64,8.64,0,0,1,790.39,805.85Z"/><path fill="#6669b0" d="M790.39,837.15a8.65,8.65,0,1,1-8.65,8.64A8.64,8.64,0,0,1,790.39,837.15Z"/><path fill="#6669b0" d="M829.91,805.85a8.65,8.65,0,1,1-8.64,8.65A8.65,8.65,0,0,1,829.91,805.85Z"/><path fill="#6669b0" d="M829.91,837.15a8.65,8.65,0,1,1-8.64,8.64A8.64,8.64,0,0,1,829.91,837.15Z"/><rect width="648.44" height="21.29" x="724.36" y="902.76" fill="#6669b0"/><path fill="#cbd3eb" d="M703,611.75h497.36A33.64,33.64,0,0,1,1234,645.39V713a33.65,33.65,0,0,1-33.65,33.65H703A33.65,33.65,0,0,1,669.36,713V645.39A33.64,33.64,0,0,1,703,611.75Z"/><path fill="url(#u)" d="M904.6,611.75H1402a33.64,33.64,0,0,1,33.64,33.64V713A33.65,33.65,0,0,1,1402,746.66H904.6A33.65,33.65,0,0,1,871,713V645.39A33.64,33.64,0,0,1,904.6,611.75Z"/><path fill="#cbd3eb" d="M928.44,684.51h324.27a7.75,7.75,0,1,1,0,15.5H928.44a7.75,7.75,0,1,1,0-15.5Z"/><path fill="url(#v)" d="M928.44,684.51h289.68a7.75,7.75,0,1,1,0,15.5H928.44a7.75,7.75,0,1,1,0-15.5Z"/><path fill="#cbd3eb" d="M928.44,654.85h324.27a7.76,7.76,0,0,1,0,15.51H928.44a7.76,7.76,0,0,1,0-15.51Z"/><path fill="#fff" d="M928.44,654.85H1174.2a7.76,7.76,0,0,1,0,15.51H928.44a7.76,7.76,0,0,1,0-15.51Z"/><path fill="#6669b0" d="M1005.61,719.48h198a18.65,18.65,0,0,1,18.65,18.65v8.53H987v-8.53A18.65,18.65,0,0,1,1005.61,719.48Z"/><path fill="#6669b0" d="M729.5,719.48h82.24a18.65,18.65,0,0,1,18.65,18.65v8.53H710.86v-8.53A18.64,18.64,0,0,1,729.5,719.48Z"/><circle cx="1385.86" cy="679.2" r="13.05" fill="#fbfcfc" transform="rotate(-22.37 1386.028 679.254)"/><path fill="#6669b0" d="M1370.6,679.2A15.26,15.26,0,1,0,1385.86,664,15.28,15.28,0,0,0,1370.6,679.2Zm4.41,0a10.85,10.85,0,1,1,10.85,10.85A10.85,10.85,0,0,1,1375,679.2Z"/><circle cx="1338.85" cy="679.2" r="13.05" fill="#cbd3eb"/><path fill="#6669b0" d="M1323.59,679.2A15.26,15.26,0,1,0,1338.85,664,15.28,15.28,0,0,0,1323.59,679.2Zm4.4,0a10.85,10.85,0,1,1,10.86,10.85A10.86,10.86,0,0,1,1328,679.2Z"/><rect width="27.53" height="8.82" x="1298.27" y="674.79" fill="#6669b0"/><path fill="#6669b0" d="M711.33,649.76a8.65,8.65,0,1,1-8.65,8.64A8.64,8.64,0,0,1,711.33,649.76Z"/><path fill="#6669b0" d="M711.33,681.05a8.65,8.65,0,1,1-8.65,8.64A8.64,8.64,0,0,1,711.33,681.05Z"/><path fill="#6669b0" d="M750.85,649.76a8.65,8.65,0,1,1-8.64,8.64A8.65,8.65,0,0,1,750.85,649.76Z"/><path fill="#6669b0" d="M750.85,681.05a8.65,8.65,0,1,1-8.64,8.64A8.65,8.65,0,0,1,750.85,681.05Z"/><path fill="#6669b0" d="M790.39,649.76a8.65,8.65,0,1,1-8.65,8.64A8.64,8.64,0,0,1,790.39,649.76Z"/><path fill="#6669b0" d="M790.39,681.05a8.65,8.65,0,1,1-8.65,8.64A8.64,8.64,0,0,1,790.39,681.05Z"/><path fill="#6669b0" d="M829.91,649.76a8.65,8.65,0,1,1-8.64,8.64A8.64,8.64,0,0,1,829.91,649.76Z"/><path fill="#6669b0" d="M829.91,681.05a8.65,8.65,0,1,1-8.64,8.64A8.64,8.64,0,0,1,829.91,681.05Z"/><rect width="648.44" height="21.29" x="724.36" y="746.66" fill="#6669b0"/><path fill="#fff" d="M820.44,1591.15h9.47V1600h-9.47a25.68,25.68,0,0,0-25.65,25.65v96.07a25.68,25.68,0,0,0,25.65,25.65h9.47v8.82h-9.47A34.5,34.5,0,0,1,786,1721.69v-96.07A34.5,34.5,0,0,1,820.44,1591.15Z"/><path fill="#fff" d="M740.9,1434.32h9.48v8.81H740.9a25.67,25.67,0,0,0-25.64,25.65v96.08a25.67,25.67,0,0,0,25.64,25.65h9.48v8.82H740.9a34.5,34.5,0,0,1-34.45-34.47v-96.08A34.5,34.5,0,0,1,740.9,1434.32Z"/><path fill="#6669b0" d="M1576.26,504.81h34.57V522.1a17.29,17.29,0,0,1-17.29,17.28h0a17.28,17.28,0,0,1-17.28-17.29Z"/><path fill="#cbd3eb" d="M1604.26,464.57h0a4.34,4.34,0,0,1,4.34,4.34v19.68a4.33,4.33,0,0,1-4.34,4.33h0a4.32,4.32,0,0,1-4.32-4.33V468.91A4.33,4.33,0,0,1,1604.26,464.57Z"/><path fill="#cbd3eb" d="M1581.92,464.57h0a4.34,4.34,0,0,1,4.34,4.34v19.68a4.33,4.33,0,0,1-4.34,4.33h0a4.33,4.33,0,0,1-4.33-4.33V468.91A4.33,4.33,0,0,1,1581.92,464.57Z"/><path fill="#413c97" d="M1566.53,488.34h54a1,1,0,0,1,1,1v16.45a1,1,0,0,1-1,1h-54a1,1,0,0,1-1-1V489.32A1,1,0,0,1,1566.53,488.34Z"/><path fill="#d25927" d="M1772.94,317.22c.8-74.73-44.73-150.26-113.79-150.26-44,0-106.57,46.4-115.74,97.65a6.21,6.21,0,0,1-2.65-1.57c-33.15-27.79-82.82-25.42-114.07,4.47A128.29,128.29,0,0,0,1395,315.76a86.67,86.67,0,0,0-74.9,84.82c-.58,48.24,40.25,87.72,88.5,87.72h374.17c54,0,99.7-44.18,99.29-98.19C1881.66,337.68,1835.62,284.27,1772.94,317.22Z"/><polygon fill="#d25927" points="1451.51 243.91 1483.77 243.91 1486.76 287.49 1436.74 287.49 1451.51 243.91"/><path fill="#d25927" d="M1623.63,167h35.52v65.69s-66.31,6-66.31,4.22S1623.63,167,1623.63,167Z"/><polygon fill="#d25927" points="1766.44 307.15 1807.72 307.15 1804.97 368.85 1707.34 383.31 1766.44 307.15"/><path fill="url(#w)" d="M1737.2,317.22C1738,242.49,1692.46,167,1623.41,167c-44,0-106.57,46.4-115.74,97.65A6.21,6.21,0,0,1,1505,263c-33.15-27.79-82.82-25.42-114.07,4.47a128.29,128.29,0,0,0-31.69,48.25,86.7,86.7,0,0,0-74.91,84.82c-.56,48.24,40.26,87.72,88.51,87.72H1747c54,0,99.7-44.18,99.29-98.19C1845.92,337.68,1799.88,284.27,1737.2,317.22Z"/><path fill="#fed2a7" d="M616.14,1754.22c-2.84-13.81-11.56-28.34-23.5-44.16l32.15-20.46c8.42,14.13,11.16,22.08,27.33,39.05,10.68,11.21,2.06,46.46-24.8,53.06C626.05,1782,620.37,1774.76,616.14,1754.22Z"/><path fill="#29266e" d="M627.68,1745.45c-8.95,5-23.92-13.21-25.59-.59,13.29,9.66,21.19,27.48,18.9,58.45-2.09,28.21,30.19,51.9,30.19,51.9l10.87-146.35s-4.37-16.41-36.22-13.61C624.69,1710.59,641.19,1737.92,627.68,1745.45Z"/><path fill="#fed2a7" d="M628.63,1824.79c-45.6-19.35-30.87-63.36-38.25-91.62l-34.41,13s.39,51.52-1.82,84.34,7.14,29.81,7.14,29.81l111.67.83S660.44,1838.3,628.63,1824.79Z"/><path fill="#29266e" d="M629.7,1825.26c-9.88-3.34-18.18-10.49-25.15-19.61-4.53-6.43-26.81.46-30.6,12.82,0,0-9,6.46-19.61,5.38,0,2.28-.05,4.51-.19,6.64-2.22,32.83,7.14,29.81,7.14,29.81l111.67.83S662.44,1836.32,629.7,1825.26Z"/><path fill="#413c97" d="M506,1013.55c-30.79,99.73-89.53,382.89-87.14,395.26,2.83,14.6,77.76,63.88,90.48,1C529.16,1312,712.93,1046,594.17,968,550.58,939.43,515.37,983.22,506,1013.55Z"/><path fill="#2a276f" d="M625.78,1006.31c-7.13-15.85-17.42-28.95-31.61-38.27-1.3-.85-2.59-1.62-3.87-2.35l-.42-.24A51.12,51.12,0,0,0,570.19,959c12.41,77,7.34,151.77-5.4,218L544,1072.17s-17,82.91-6.53,175.23a111.91,111.91,0,0,1-6.07,50.42c-25.82,71.73-53.67,119-57.62,125,6-3.15,16.87,2.62,27.72,6.13,3.47-4.7,6.2-11,7.85-19.17C526.63,1324.43,668.72,1111.12,625.78,1006.31Z"/><path fill="#413c97" d="M675.14,1123.62c-3.88-54.93-27.18-99.83-35.36-112.11-13.42-20.16-55.8-35.44-77.55-3.45s-19.64,48.53-23.28,120.15,17.54,261.78,11.36,314.12,66.58,81.64,70.34,4.65S679.62,1187.16,675.14,1123.62Z"/><path fill="#413c97" d="M621.78,1462.4c-.28-14.82.4-25.41,1.27-40.22,3.73-63-70.8-27.15-72.27-10.53-1.85,20.86,2.21,32.5-8.13,104.13s-2.8,112.63,3.9,150.42,4.55,87,4.55,87c31.3,14.57,45.28,4.91,45.28,4.91s9.3-76.71,19.29-138S622.43,1497.08,621.78,1462.4Z"/><path fill="#413c97" d="M636,1696.28s-3.4,5.67-11.7,11.62c-.42.31-.86.62-1.34.92v0c-7.33,4.94-18.11,9.9-33.2,11.79,0,0-178.28-293.43-171.32-316.15,3.13-10.27,36.27-59.84,78.38-22.15,22.71,20.34,48,66,72.62,156.78.61,2.16,1.19,4.34,1.76,6.55C587.08,1605.76,636,1696.28,636,1696.28Z"/><path fill="#2a276f" d="M636,1696.28s-3.4,5.67-11.7,11.62c-.42.31-.86.62-1.34.95v0c-33.69-51.76-74.57-144.47-86.06-193.35-6.26-26.54-16.61-60.9-25.44-88.58-6.49-20.31-12.12-37.09-14.64-44.55,22.71,20.34,48,66,72.62,156.78.61,2.16,1.19,4.34,1.76,6.55C587.08,1605.76,636,1696.28,636,1696.28Z"/><path fill="#2a276f" d="M648.47,784.52c-5.23-38.8,17.82-63.12-3.48-107s-43.88-48.13-65.56-54.32c-55-15.72-111.64,52.93-90,100.9,20.07,44.38.29,79.36-17.5,116.32s-24.26,153.48,76.81,162.73,123.81-34.07,133.28-95.66C693.38,833.82,653.7,823.31,648.47,784.52Z"/><path fill="#fed2a7" d="M538.5,841.05c-3.07,12.35-42.78,160.74-55,177.26-14.37,19.38-40.5,2.73-41.93-25.4-1.38-27,18-136.54,38.46-168.44C502,790.14,545.09,814.42,538.5,841.05Z"/><path fill="#f6968d" d="M533.39,836.29c-74.61,41-91.29,149-91.85,156.4-1.27-27.32,18.09-136.41,38.47-168.22S535.25,835.26,533.39,836.29Z"/><path fill="#fbbb8f" d="M630.86,952.67c1.3-15.83,6.5-30.54,19.14-85.32,4.92-21.36,11-38.11,5.4-47.41-7.1-11.75-28.31-13-43.38-12.53-27.24.87-16.24-65.25-16.24-65.25-4.61-13.56-49.8-9.72-46.31,34.05s-40.37,24.91-50.41,33.37c-13.77,11.61-11.89,35.93-14.31,48.93s-21.12,29-17.74,52.67,25.83,22.15,25.83,22.15c8.34,9,16.35,25.53,17.5,37.39,2.69,27.58-10.11,55.56-10.11,55.56,81.07,32.5,148.07-.46,148.07-.46S626.93,1000.08,630.86,952.67Z"/><path fill="#fbbb8f" d="M612,807.41c-27.24.87-16.24-65.25-16.24-65.25-2.56-7.53-17.63-9.67-29.93-2.62,8.52,1.91,29.89,38.46,19.5,93.23-3,15.55-19.33,25.21-34.58,28.72,0,0,97.37,13.91,99.23,5.86C654.92,846,627.09,806.91,612,807.41Z"/><path fill="url(#x)" d="M441.19,956.22s22,19.83,57.51,31.6l14.11-42.75L510,807s-23.51-3.92-37.74,28S448,938.12,441.19,956.22Z"/><path fill="#cbd3eb" d="M511.4,948l-2.6-125.3a152.17,152.17,0,0,1-1.61-15.84c-6.5,0-11.68,4.72-14.54,7.14-13.78,11.62-11.9,35.95-14.31,48.93s-21.13,29-17.74,52.67,19.09,27.79,19.09,27.79c7.65,8.2,19.12,23.87,21.2,35.37Z"/><path fill="url(#y)" d="M630.84,952.66c1.32-15.81,6.52-30.52,19.15-85.3,4.93-21.36,11-38.12,5.41-47.42-6.39-10.58-24.17-12.67-38.64-12.64-16.27,37.18-49.94,58.4-75.87,47.55-16.69-7-26.19-25.55-26.83-47.94-6.5.05-12.13.24-15,2.67-13.77,11.61-11.89,35.94-14.3,48.93s-21.13,29-17.74,52.67,25.81,22.16,25.81,22.16c8.36,9,16.37,25.52,17.51,37.37,2.68,27.59-10.11,55.58-10.11,55.58,81.07,32.48,148.07-.47,148.07-.47S626.93,1000.09,630.84,952.66Z"/><path fill="#d25927" d="M630.84,952.66c1.32-15.81,6.52-30.52,19.15-85.3,4.93-21.36,11-38.12,5.41-47.42-6.16-10.22-23-12.53-37.14-12.62-.26,2.35-.61,4.75-1.06,7.15a89.51,89.51,0,0,1-55.61,66.82l15.92,3c18.22,3.45,29.75,23.28,25.78,40.84-2.9,12.93-12.89,22-24.82,25.19l-7.18,37.88c-5.45,28.71,20.44,53.72,48.86,47,17.69-4.21,28.15-9.37,28.15-9.37S626.93,1000.09,630.84,952.66Z"/><path fill="#fed2a7" d="M785.4,957.18c-8.88-20-111.34-120.57-132.33-140.5-7.46-7.07-45,37.85-31.39,63.7C629.2,894.7,745.46,990.57,765,996.89,788,1004.32,796.84,982.92,785.4,957.18Z"/><path fill="#fbbb8f" d="M654,886.74c-10.23-20-18.38-39.68-15.61-62.19-12.26,13.19-25.71,38.7-16.7,55.83,6.78,12.9,101.76,92,134.85,112.14C750.09,987.87,667.56,913.26,654,886.74Z"/><path fill="#fed2a7" d="M596.69,705.76s-19-55.44-37.28-57.23-32.86-.43-42,19.55c0,0-10.76,17.63-7.09,39,0,0-24.46,21.36,1.22,53.33s69.61,10.78,84.29-18.24c0,0,24.42,8.16,27.85-14.61S612.13,703.47,596.69,705.76Z"/><path fill="#fbbb8f" d="M596.69,705.76s-19-55.44-37.28-57.23c-14.64-1.44-26.88-.82-35.9,9.71,12.27-3,55.08,46.13,55,75.15,0,29.53-31.66,47.41-56.93,34.35a54.11,54.11,0,0,1-8.59-5.56c25.86,29.32,68.34,8.44,82.74-20,0,0,24.42,8.16,27.85-14.61S612.13,703.47,596.69,705.76Z"/><path fill="#fed2a7" d="M447.82,971.72c38.45,4.74,38.52,52.47,12.45,55.55-38.54,4.56-145.32-27.13-166.56-17s-26.1,28.79-46.84,15.38-22.76-22.38-20.31-38.51,27.07-15.15,52.77-8.07S415.88,967.78,447.82,971.72Z"/><path fill="#2a276f" d="M503.2,675.79s28.88-4.12,45.46-20.16,25-13.13,25-13.13C524.46,620.24,503.2,675.79,503.2,675.79Z"/><path fill="#2a276f" d="M558.07,645.38c-7.94,6.27-9.91,25.57,9.88,47.6s12.91,48.48,29.14,34.24,16.46-16.64,18.2-36.37S575.51,631.61,558.07,645.38Z"/><path fill="url(#z)" d="M706.34,960.38s-78.42-68.06-88.42-81.65,10.92-59.21,33.85-63.35c0,0,.41.36,1.17,1.08,7.58,6.82,50.07,45.28,86.89,82.58C739.83,899,744.22,927.51,706.34,960.38Z"/><path fill="#cbd3eb" d="M706.34,960.38s-78.42-68.06-88.42-81.65,10.92-59.21,33.85-63.35c0,0,.41.36,1.17,1.08l.13.22s-33.63,34.8-20.07,59.78S697,933.69,706.34,960.38Z"/><path fill="#fed2a7" d="M602.27,911.83c-17.6-15.59-52.76-17.67-62.9-2.56a36.34,36.34,0,0,0-5.5,12.52c-2.59,9.85-.47,19.29,3.45,28.77.44,1.06,13.81,10,14.4,7.9,8.78-1.13,21.33-6.32,35.67-12.89,24.29-11.13,122.27,44.9,160,55.17,37.39,10.18,53.57-33.64,29.38-43.86C741,941.76,619.86,927.42,602.27,911.83Z"/><rect width="288.86" height="15.25" x="153.61" y="965.3" fill="#cbd3eb"/><path fill="#cbd3eb" d="M442.47,980.55h133V972a6.67,6.67,0,0,0-6.66-6.67H442.47Z"/><path fill="#cbd3eb" d="M161.76,965.3h287.7L411.59,788.17a10.85,10.85,0,0,0-10.42-8.85H142.06c-10.28,0-17.9,10.16-15.62,20.82Z"/><path fill="url(#A)" d="M154.76,965.3H442.47L404.59,788.17a10.84,10.84,0,0,0-10.41-8.85H129.61c-7.48,0-13,7.4-11.38,15.17Z"/><polygon fill="#dbe6f5" points="267.72 779.32 186.69 965.3 223.75 965.3 307.8 779.32 267.72 779.32" opacity=".34"/><polygon fill="#dbe6f5" points="328.27 779.32 247.25 965.3 261.68 965.3 345.73 779.32 328.27 779.32" opacity=".34"/><path fill="#f58132" d="M612.1,660.73s24.41,12.59,35,24.48c0,0,18.1-78.2-55.67-94.87s-112.17,41.79-97.4,66.54C494.07,656.88,517.08,621.16,612.1,660.73Z"/><path fill="#d25927" d="M612.1,660.73s-59.59-31.16-78-45.23C488.86,581,463.36,581.21,454.81,606c-15.1,43.72,46.92,57.69,46.92,57.69S508.64,626.81,612.1,660.73Z"/><path fill="#d25927" d="M601.62,591.24a6.56,6.56,0,1,0-6.55,6.57A6.55,6.55,0,0,0,601.62,591.24Z"/><path fill="#d25927" d="M1374.28,1575.35l9.68-22.08a5.57,5.57,0,0,1,5.23-3.3h109a7.45,7.45,0,0,1,6,3.3l15,22a19.24,19.24,0,0,1,3.28,8.51l32.89,267.88a8,8,0,0,1-8.12,9.25h-332a10.77,10.77,0,0,1-10.39-9.25L1172.7,1588.5a8,8,0,0,1,8.11-9.25h187.28A6.62,6.62,0,0,0,1374.28,1575.35Z"/><rect width="261.82" height="323.28" x="1209.42" y="1447.81" fill="url(#B)" transform="rotate(-179.97 1340.321 1609.46)"/><rect width="217.04" height="5.85" x="1230.24" y="1490.45" fill="#413c97"/><rect width="217.04" height="5.86" x="1230.22" y="1512.65" fill="#413c97"/><rect width="217.04" height="5.86" x="1230.21" y="1534.86" fill="#413c97"/><rect width="217.04" height="5.86" x="1230.2" y="1557.08" fill="#413c97"/><polygon fill="#413c97" points="1447.23 1585.18 1230.18 1585.12 1230.19 1579.27 1447.24 1579.32 1447.23 1585.18"/><rect width="217.06" height="5.85" x="1230.24" y="1603.88" fill="#413c97"/><rect width="217.07" height="5.86" x="1230.22" y="1626.09" fill="#413c97"/><polygon fill="#413c97" points="1447.27 1654.22 1230.21 1654.1 1230.21 1648.24 1447.28 1648.35 1447.27 1654.22"/><rect width="217.06" height="5.86" x="1230.2" y="1670.51" fill="#413c97"/><rect width="217.07" height="5.86" x="1230.19" y="1692.72" fill="#413c97"/><polygon fill="#2a276f" points="1220.96 1482.89 1256.99 1447.74 1482.79 1447.86 1482.62 1771.15 1220.8 1771.02 1220.96 1482.89" opacity=".15"/><polygon fill="url(#C)" points="1239.93 1757.59 1501.75 1757.72 1501.85 1554.2 1501.92 1434.43 1276.13 1434.32 1240.09 1469.47 1240.02 1594.04 1239.93 1757.59"/><rect width="217.04" height="5.85" x="1260.84" y="1477.01" fill="#413c97"/><polygon fill="#413c97" points="1477.87 1505.1 1260.82 1505.05 1260.83 1499.19 1477.88 1499.24 1477.87 1505.1"/><rect width="217.04" height="5.86" x="1260.82" y="1521.42" fill="#413c97"/><rect width="217.04" height="5.86" x="1260.8" y="1543.64" fill="#413c97"/><rect width="217.04" height="5.86" x="1260.79" y="1565.85" fill="#413c97"/><polygon fill="#413c97" points="1477.9 1596.35 1260.84 1596.23 1260.84 1590.39 1477.9 1590.5 1477.9 1596.35"/><rect width="217.07" height="5.86" x="1260.83" y="1612.65" fill="#413c97"/><rect width="217.06" height="5.86" x="1260.82" y="1634.85" fill="#413c97"/><rect width="217.06" height="5.86" x="1260.8" y="1657.07" fill="#413c97"/><rect width="217.07" height="5.86" x="1260.79" y="1679.29" fill="#413c97"/><polygon fill="#cbd3eb" points="1276.12 1434.32 1274.58 1466.37 1240.09 1469.46 1276.12 1434.32"/><path fill="#2a276f" d="M1239.93,1747l261.82.13.1-203.52H1463a7.87,7.87,0,0,0-6.1,3.22l-6.39,8.44-4.44,5.87-5.4,7.16a9.36,9.36,0,0,1-7.22,3.79H1251.24a11.49,11.49,0,0,0-10.76,9l-.46,2.36Z" opacity=".15"/><path fill="url(#D)" d="M1459.42,1583.12l16.23-21.47a7.89,7.89,0,0,1,6.1-3.21h106.06a5,5,0,0,1,4.86,3.21l7.86,21.41a15.37,15.37,0,0,1,.55,8.28l-50.65,260.58a11.46,11.46,0,0,1-10.76,9H1216.76c-5,0-8.21-4-7.25-9l49.76-256a11.46,11.46,0,0,1,10.75-9H1452.2A9.31,9.31,0,0,0,1459.42,1583.12Z"/><g clip-path="url(#E)"><rect width="503.65" height="1156.96" x="-405.02" y="655.76" fill="#cbd3eb" transform="rotate(180 -153.19 1234.245)"/><rect width="78.66" height="30.82" x="-33.08" y="711.18" fill="#d6dcf0" transform="rotate(180 6.255 726.585)"/><rect width="78.66" height="30.83" x="-33.08" y="823.41" fill="#d6dcf0" transform="rotate(180 6.255 838.825)"/><rect width="78.66" height="30.82" x="-33.08" y="935.65" fill="#d6dcf0" transform="rotate(180 6.255 951.06)"/><rect width="78.66" height="30.82" x="-33.08" y="1047.89" fill="#d6dcf0" transform="rotate(180 6.255 1063.3)"/><rect width="78.66" height="30.83" x="-33.08" y="1160.13" fill="#d6dcf0" transform="rotate(180 6.255 1175.54)"/><rect width="78.66" height="30.82" x="-33.08" y="1263.85" fill="#d6dcf0" transform="rotate(180 6.255 1279.26)"/><rect width="78.66" height="30.82" x="-33.08" y="1376.09" fill="#d6dcf0" transform="rotate(180 6.255 1391.5)"/><rect width="78.66" height="30.82" x="-33.08" y="1488.33" fill="#d6dcf0" transform="rotate(180 6.255 1503.74)"/><rect width="78.66" height="30.82" x="-33.08" y="1600.56" fill="#d6dcf0" transform="rotate(180 6.255 1615.975)"/><rect width="78.66" height="30.83" x="-33.08" y="1712.8" fill="#d6dcf0" transform="rotate(180 6.255 1728.215)"/><rect width="1374.68" height="1567.37" x="-854.02" y="147.98" fill="#fff" opacity=".35"/><polygon fill="#fff" points="60.72 1718.06 7.38 1718.06 497.72 360.25 497.72 469.64 60.72 1718.06" opacity=".6"/><path fill="url(#F)" d="M578,461.72V443.78H528.6V161.07H-2251v35.87H-2221V209.6h886.51V443.78H-2251v17.94h916.46V922H-2251v17.93h916.46v460.29H-2251v17.93h916.46v299.91h-886.23v10.38H-2251v41.49H528.6v-3.33h0V1418.15H578v-17.93H528.6V939.93H578V922H528.6V461.72ZM-846.08,939.93h428.15v460.29H-846.08Zm0-17.93V461.72h428.15V922Zm0-478.22V209.6h428.15V443.78Zm0,974.37h428.15v299.91h-428v10.38h-.15Zm458.23,299.91V1418.15H40.3v299.91Zm0-317.84V939.93H40.3v460.29Zm0-478.22V461.72H40.3V922Zm0-478.22V209.6H40.3V443.78ZM70.37,209.6H498.53V443.78H70.37Zm-1374.8,0h428.15V443.78h-428.15Zm0,252.12h428.15V922h-428.15Zm0,478.21h428.15v460.29h-428.15Zm0,478.22h428.15v310.29h-.16v-10.38h-428Zm1803,310.29h-.17v-10.38h-428V1418.15H498.53Zm0-328.22H70.37V939.93H498.53Zm0-478.22H70.37V461.72H498.53Z"/></g></svg>