<svg xmlns="http://www.w3.org/2000/svg" enable-background="new 0 0 330 300" viewBox="0 0 330 300"><path fill="#ebf2ff" d="M280.734 249.509H53.95c-2.613-3.294-4.216-7.44-5.67-11.404-4.648-12.668-9.327-25.462-10.963-38.793-1.307-10.64-.646-21.4.017-32.095l2.337-37.719c.626-10.112 1.733-21.258 9.43-28.232 13.8-12.5 38.5-3.273 54.16-13.581 8.898-5.857 12.602-16.581 19.777-24.296 7.279-7.827 18.162-12.285 29.118-12.686 10.955-.401 21.896 3.092 30.888 9.079 12.308 8.194 23.142 21.592 38.13 20.878 14.114-.673 26.146-14.308 39.94-11.377 12.08 2.567 17.36 16.512 16.963 28.32-.696 20.67-12.105 40.62-9.193 61.114 1.48 10.407 6.564 19.99 11.66 29.297 5.098 9.307 10.358 18.768 12.238 29.116 1.88 10.347-.179 21.943-8.032 29.299a26.813 26.813 0 0 1-4.017 3.08z"/><path fill="#38297a" d="M280.525 177.646h-2a.5.5 0 1 1 0-1h2a.5.5 0 1 1 0 1zm-5 0h-2a.5.5 0 1 1 0-1h2a.5.5 0 1 1 0 1zm-5 0h-2a.5.5 0 1 1 0-1h2a.5.5 0 1 1 0 1zm-5 0h-2a.5.5 0 1 1 0-1h2a.5.5 0 1 1 0 1zm-5 0h-2a.5.5 0 1 1 0-1h2a.5.5 0 1 1 0 1zm-5 0h-2a.5.5 0 1 1 0-1h2a.5.5 0 1 1 0 1zm-5 0h-2a.5.5 0 1 1 0-1h2a.5.5 0 1 1 0 1zm-5 0h-2a.5.5 0 1 1 0-1h2a.5.5 0 1 1 0 1zm-5 0h-2a.5.5 0 1 1 0-1h2a.5.5 0 1 1 0 1zm-5 0h-2a.5.5 0 1 1 0-1h2a.5.5 0 1 1 0 1zm45.304-2.696a.5.5 0 0 1-.5-.5v-2a.5.5 0 1 1 1 0v2a.5.5 0 0 1-.5.5zm0-5a.5.5 0 0 1-.5-.5v-2a.5.5 0 1 1 1 0v2a.5.5 0 0 1-.5.5zm0-5a.5.5 0 0 1-.5-.5v-2a.5.5 0 1 1 1 0v2a.5.5 0 0 1-.5.5zm0-5a.5.5 0 0 1-.5-.5v-2a.5.5 0 1 1 1 0v2a.5.5 0 0 1-.5.5zm0-5a.5.5 0 0 1-.5-.5v-2a.5.5 0 1 1 1 0v2a.5.5 0 0 1-.5.5zm0-5a.5.5 0 0 1-.5-.5v-2a.5.5 0 1 1 1 0v2a.5.5 0 0 1-.5.5zm0-5a.5.5 0 0 1-.5-.5v-2a.5.5 0 1 1 1 0v2a.5.5 0 0 1-.5.5zm0-5a.5.5 0 0 1-.5-.5v-2a.5.5 0 1 1 1 0v2a.5.5 0 0 1-.5.5zm0-5a.5.5 0 0 1-.5-.5v-2a.5.5 0 1 1 1 0v2a.5.5 0 0 1-.5.5zm0-5a.5.5 0 0 1-.5-.5v-2a.5.5 0 1 1 1 0v2a.5.5 0 0 1-.5.5zm0-5a.5.5 0 0 1-.5-.5v-2a.5.5 0 1 1 1 0v2a.5.5 0 0 1-.5.5zm0-5a.5.5 0 0 1-.5-.5v-2a.5.5 0 1 1 1 0v2a.5.5 0 0 1-.5.5zm0-5a.5.5 0 0 1-.5-.5v-2a.5.5 0 1 1 1 0v2a.5.5 0 0 1-.5.5zm0-5a.5.5 0 0 1-.5-.5v-2a.5.5 0 1 1 1 0v2a.5.5 0 0 1-.5.5zm0-5a.5.5 0 0 1-.5-.5v-2a.5.5 0 1 1 1 0v2a.5.5 0 0 1-.5.5zm0-5a.5.5 0 0 1-.5-.5v-2a.5.5 0 1 1 1 0v2a.5.5 0 0 1-.5.5zm-1.765-3.235h-2a.5.5 0 1 1 0-1h2a.5.5 0 1 1 0 1zm-5 0h-2a.5.5 0 1 1 0-1h2a.5.5 0 1 1 0 1zm-5 0h-2a.5.5 0 1 1 0-1h2a.5.5 0 1 1 0 1zm-5 0h-2a.5.5 0 1 1 0-1h2a.5.5 0 1 1 0 1zm-5 0h-2a.5.5 0 1 1 0-1h2a.5.5 0 1 1 0 1zm-5 0h-2a.5.5 0 1 1 0-1h2a.5.5 0 1 1 0 1zm-5 0h-2a.5.5 0 1 1 0-1h2a.5.5 0 1 1 0 1zm-5 0h-2a.5.5 0 1 1 0-1h2a.5.5 0 1 1 0 1zm-5 0h-2a.5.5 0 1 1 0-1h2a.5.5 0 1 1 0 1zm-5 0h-2a.5.5 0 1 1 0-1h2a.5.5 0 1 1 0 1zm-5 0h-2a.5.5 0 1 1 0-1h2a.5.5 0 1 1 0 1zm-5 0h-2a.5.5 0 1 1 0-1h2a.5.5 0 1 1 0 1zM265.07 161.883h-.288a.5.5 0 0 1-.213-.952v-1.26a.5.5 0 1 1 1 0v1.712a.5.5 0 0 1-.5.5zm-3.288 0h-2a.5.5 0 1 1 0-1h2a.5.5 0 1 1 0 1zm-5 0h-2a.5.5 0 1 1 0-1h2a.5.5 0 1 1 0 1zm-5 0h-2a.5.5 0 1 1 0-1h2a.5.5 0 1 1 0 1zm-5 0h-2a.5.5 0 1 1 0-1h2a.5.5 0 1 1 0 1zm-5 0h-2a.5.5 0 1 1 0-1h2a.5.5 0 1 1 0 1zm-5 0h-2a.5.5 0 1 1 0-1h2a.5.5 0 1 1 0 1zm-5 0h-.387a.5.5 0 1 1 0-1h.387a.5.5 0 1 1 0 1zm33.287-4.712a.5.5 0 0 1-.5-.5v-2a.5.5 0 1 1 1 0v2a.5.5 0 0 1-.5.5zm0-5a.5.5 0 0 1-.5-.5v-2a.5.5 0 1 1 1 0v2a.5.5 0 0 1-.5.5zm0-5a.5.5 0 0 1-.5-.5v-2a.5.5 0 1 1 1 0v2a.5.5 0 0 1-.5.5zm0-5a.5.5 0 0 1-.5-.5v-2a.5.5 0 1 1 1 0v2a.5.5 0 0 1-.5.5zm0-5a.5.5 0 0 1-.5-.5v-2a.5.5 0 1 1 1 0v2a.5.5 0 0 1-.5.5zm0-5a.5.5 0 0 1-.5-.5v-2a.5.5 0 1 1 1 0v2a.5.5 0 0 1-.5.5zm0-5a.5.5 0 0 1-.5-.5v-2a.5.5 0 1 1 1 0v2a.5.5 0 0 1-.5.5zm0-5a.5.5 0 0 1-.5-.5v-2a.5.5 0 1 1 1 0v2a.5.5 0 0 1-.5.5zm0-5a.5.5 0 0 1-.5-.5v-2a.5.5 0 1 1 1 0v2a.5.5 0 0 1-.5.5zm-1.685-3.315h-2a.5.5 0 1 1 0-1h2a.5.5 0 1 1 0 1zm-5 0h-2a.5.5 0 1 1 0-1h2a.5.5 0 1 1 0 1zm-5 0h-2a.5.5 0 1 1 0-1h2a.5.5 0 1 1 0 1zm-5 0h-2a.5.5 0 1 1 0-1h2a.5.5 0 1 1 0 1zm-5 0h-2a.5.5 0 1 1 0-1h2a.5.5 0 1 1 0 1zm-5 0h-2a.5.5 0 1 1 0-1h2a.5.5 0 1 1 0 1zm-5 0h-2a.5.5 0 1 1 0-1h2a.5.5 0 1 1 0 1zm-5 0h-2a.5.5 0 1 1 0-1h2a.5.5 0 1 1 0 1z"/><circle cx="280.829" cy="177.146" r="3.157" fill="#38297a" transform="rotate(-48.493 280.829 177.146)"/><circle cx="280.829" cy="96.214" r="3.157" fill="#38297a" transform="rotate(-48.493 280.829 96.214)"/><circle cx="265.069" cy="161.383" r="3.157" fill="#38297a" transform="rotate(-48.493 265.07 161.383)"/><circle cx="265.069" cy="113.356" r="3.157" fill="#38297a" transform="rotate(-48.493 265.07 113.356)"/><path fill="#61ba76" d="M243.13 219.536c.064-.095.123-.187.167-.269.641-1.178 1.409-2.81 2.073-4.283.975-2.158 1.002-4.589.24-6.83l-.012-.034c-1.067-3.173-.472-7.134 1.508-10.029.583-.852 1.298-1.632 2.162-2.055.863-.423 1.893-.436 2.593.153 1.018.856 1.297 2.84 2.644 2.913.878.048 1.658-.765 1.875-1.758.539-2.461-1.276-4.135-1.142-6.498.044-.763.344-1.532.907-2.006 1.21-1.019 2.678-.096 3.802.736 1.087.806 2.682 1.47 3.687.339 1.151-1.295.211-3.334.405-5.091.214-1.942 2.049-3.508 3.752-3.46 1.704.05 3.125 1.47 3.655 3.254.473 1.59.274 3.3-.133 4.966-.305 1.25-1.543 1.77-1.754 3.014-.083.487.041.984.316 1.332.544.69 1.313.456 2.012.537 1.932.224 1.227 3.332.045 4.384-1.278 1.14-2.987 1.425-4.137 2.862-.482.602-.77 1.4-.644 2.149.402 2.385 4.212 1.665 4.423 3.964.043.465-.102.949-.358 1.348-1.262 1.967-3.73 1.306-5.23 2.805-1.486 1.485-1.12 4.114-.277 5.945.843 1.831 2.058 3.631 1.835 5.78-.28 2.689-2.844 4.698-5.22 4.91-1.797.16-12.721 5.377-19.194 9.146v-18.224z"/><path fill="#7cd194" d="M243.13 229.199c1.551-1.937 3.083-3.927 4.053-5.327-.708-1.83-.873-4.55-.88-4.668-.008-.145.09-.281.219-.304.131-.02.24.077.25.222 0 .026.151 2.508.754 4.258a109.066 109.066 0 0 0 6.232-10.322c-.764-2.434-.83-6.145-.833-6.304-.002-.147.101-.278.23-.294.13-.015.237.09.24.236 0 .037.06 3.387.69 5.747 3.231-6.164 4.813-10.56 4.845-10.653.05-.14.188-.218.307-.174.12.044.177.192.127.332-.026.074-1.016 2.823-3.013 7.002 1.66.391 4.072-.402 4.098-.41.126-.042.25.036.277.177.026.14-.056.288-.183.331-.094.032-1.963.65-3.615.531a4.317 4.317 0 0 1-.813-.139 113.498 113.498 0 0 1-1.868 3.684.3.3 0 0 1-.084.158c-.731 1.376-1.54 2.83-2.43 4.34 2.762.843 4.928.693 4.95.692.13-.01.232.101.23.247-.003.147-.11.273-.24.283a10.7 10.7 0 0 1-1.464-.02 16.672 16.672 0 0 1-3.759-.725 106.38 106.38 0 0 1-3.769 5.877.298.298 0 0 1-.097.14 97.443 97.443 0 0 1-2.604 3.587c2.729-.168 4.994-.593 5.018-.597.13-.027.242.072.252.217.01.145-.087.282-.216.306-.025.005-2.541.478-5.474.627-.32.413-.842 1.053-1.43 1.763v-.82z"/><path fill="#7cd194" d="M290.449 207.926c-1.714-.936-4.42-.338-5.67 1.477-1.13 1.642-1.253 4.155-3.116 4.84-1.628.598-2.905-.892-3.587-2.258-.706-1.411-1.715-3.092-3.492-2.712-.828.177-1.543.785-1.992 1.518-1.391 2.275-.427 4.88-2.284 7.043-.748.871-1.977 1.271-2.849.766-1.336-.775-.569-2.888-1.154-4.268-.402-.949-1.46-1.472-2.568-1.503-1.106-.03-2.251.37-3.3.913-3.558 1.84-6.27 5.46-6.864 9.163-.212 1.32-.173 2.632-.377 3.952-.15.968-4.936 3.982-7.892 5.909-.519.338-1.313.892-2.174 1.545l-.574.52v14.064c1.66-.14 2.781-.237 2.876-.25 1.297-.19 4.81-1.994 4.672-.329l12.38 1.074 6.069-1.49c.394-1.547.28-3.207.357-4.788.111-2.256 1.133-5.054 3.44-5.754 2.327-.706 4.498 1.237 6.83-.057.475-.263.88-.667 1.083-1.151 1.005-2.391-3.269-3.661-2.413-6.238.269-.809.986-1.45 1.798-1.797 1.938-.826 3.835-.219 5.746-.682 1.766-.429 4.136-3.145 2.282-4.373-.671-.445-1.58-.615-1.77-1.582-.096-.488.04-1.046.384-1.486.876-1.124 2.417-.995 3.392-2.076 1.3-1.44 2.412-3.034 2.773-4.857.405-2.047-.292-4.197-2.006-5.133z"/><path fill="#61ba76" d="M243.13 242.164a249.354 249.354 0 0 0 9.043-4.368c.249-2.184 1.524-4.97 1.58-5.09.068-.148.24-.233.385-.188.145.048.205.202.137.35-.013.027-1.177 2.567-1.49 4.618a125.559 125.559 0 0 0 11.847-6.993c.511-2.813 2.414-6.53 2.496-6.689.076-.146.251-.222.392-.17.139.05.193.212.118.358-.019.036-1.737 3.39-2.345 6.06 6.572-4.43 10.522-7.968 10.605-8.043.125-.113.307-.118.406-.013.099.106.078.283-.047.396-.066.06-2.537 2.271-6.796 5.377 1.488 1.252 4.373 1.723 4.404 1.727.151.024.237.167.189.32a.34.34 0 0 1-.362.234c-.114-.018-2.35-.378-3.976-1.357a4.994 4.994 0 0 1-.756-.561c-1.167.842-2.46 1.743-3.864 2.682a.343.343 0 0 1-.17.112 129.995 129.995 0 0 1-4.787 3.039c2.375 2.276 4.667 3.256 4.69 3.266.138.058.183.222.103.365-.08.144-.258.214-.396.156-.048-.02-.624-.264-1.484-.783a19.252 19.252 0 0 1-3.454-2.678 122.845 122.845 0 0 1-6.97 3.867.345.345 0 0 1-.174.087 112.877 112.877 0 0 1-4.565 2.203c2.876 1.256 5.416 2.014 5.443 2.022.147.042.209.198.142.348-.067.148-.238.234-.383.19-.029-.008-2.85-.85-5.925-2.23-.812.362-2.423 1.131-4.036 1.888v-.502z"/><path fill="#38297a" d="M204.002 216.702h-1.799a.5.5 0 1 1 0-1h1.799a.5.5 0 1 1 0 1zm-4.799 0h-2a.5.5 0 1 1 0-1h2a.5.5 0 1 1 0 1zm-5 0h-2a.5.5 0 1 1 0-1h2a.5.5 0 1 1 0 1zm-5 0h-2a.5.5 0 1 1 0-1h2a.5.5 0 1 1 0 1zm-5 0h-2a.5.5 0 1 1 0-1h2a.5.5 0 1 1 0 1zm-5 0h-2a.5.5 0 1 1 0-1h2a.5.5 0 1 1 0 1zm-5 0h-2a.5.5 0 1 1 0-1h2a.5.5 0 1 1 0 1zm-5 0h-2a.5.5 0 1 1 0-1h2a.5.5 0 1 1 0 1zm-5 0h-2a.5.5 0 1 1 0-1h2a.5.5 0 1 1 0 1zm-5 0h-2a.5.5 0 1 1 0-1h2a.5.5 0 1 1 0 1zm-5 0h-2a.5.5 0 1 1 0-1h2a.5.5 0 1 1 0 1zm-5 0h-2a.5.5 0 1 1 0-1h2a.5.5 0 1 1 0 1zm-5 0a.515.515 0 0 1-.517-.5v-1.983a.5.5 0 1 1 1 0v1.891a.492.492 0 0 1-.482.592zm-.017-4.983a.5.5 0 0 1-.5-.5v-2a.5.5 0 1 1 1 0v2a.5.5 0 0 1-.5.5zm0-5a.5.5 0 0 1-.5-.5v-2a.5.5 0 1 1 1 0v2a.5.5 0 0 1-.5.5zm0-5a.5.5 0 0 1-.5-.5v-2a.5.5 0 1 1 1 0v2a.5.5 0 0 1-.5.5zm0-5a.5.5 0 0 1-.5-.5v-2a.5.5 0 1 1 1 0v2a.5.5 0 0 1-.5.5zm0-5a.5.5 0 0 1-.5-.5v-2a.5.5 0 1 1 1 0v2a.5.5 0 0 1-.5.5zm0-5a.5.5 0 0 1-.5-.5v-2a.5.5 0 1 1 1 0v2a.5.5 0 0 1-.5.5zm0-5a.5.5 0 0 1-.5-.5v-2a.5.5 0 1 1 1 0v2a.5.5 0 0 1-.5.5zm0-5a.5.5 0 0 1-.5-.5v-2a.5.5 0 1 1 1 0v2a.5.5 0 0 1-.5.5zm0-5a.5.5 0 0 1-.5-.5v-2a.5.5 0 1 1 1 0v2a.5.5 0 0 1-.5.5zm0-5a.5.5 0 0 1-.5-.5v-2a.5.5 0 1 1 1 0v2a.5.5 0 0 1-.5.5zm0-5a.5.5 0 0 1-.5-.5v-2a.5.5 0 1 1 1 0v2a.5.5 0 0 1-.5.5zm0-5a.5.5 0 0 1-.5-.5v-2a.5.5 0 1 1 1 0v2a.5.5 0 0 1-.5.5zm0-5a.5.5 0 0 1-.5-.5v-2a.5.5 0 1 1 1 0v2a.5.5 0 0 1-.5.5zm0-5a.5.5 0 0 1-.5-.5v-2a.5.5 0 1 1 1 0v2a.5.5 0 0 1-.5.5zm0-5a.5.5 0 0 1-.5-.5v-2a.5.5 0 1 1 1 0v2a.5.5 0 0 1-.5.5zM197.104 199.56h-2a.5.5 0 1 1 0-1h2a.5.5 0 1 1 0 1zm-5 0h-2a.5.5 0 1 1 0-1h2a.5.5 0 1 1 0 1zm-5 0h-2a.5.5 0 1 1 0-1h2a.5.5 0 1 1 0 1zm-5 0h-2a.5.5 0 1 1 0-1h2a.5.5 0 1 1 0 1zm-5 0h-2a.5.5 0 1 1 0-1h2a.5.5 0 1 1 0 1zm-5 0h-2a.5.5 0 1 1 0-1h2a.5.5 0 1 1 0 1zm-5 0h-2a.5.5 0 1 1 0-1h2a.5.5 0 1 1 0 1zm-5 0h-2a.5.5 0 1 1 0-1h2a.5.5 0 1 1 0 1zm-2.16-2.84a.5.5 0 0 1-.5-.5v-2a.5.5 0 1 1 1 0v2a.5.5 0 0 1-.5.5zm0-5a.5.5 0 0 1-.5-.5v-2a.5.5 0 1 1 1 0v2a.5.5 0 0 1-.5.5zm0-5a.5.5 0 0 1-.5-.5v-2a.5.5 0 1 1 1 0v2a.5.5 0 0 1-.5.5zm0-5a.5.5 0 0 1-.5-.5v-2a.5.5 0 1 1 1 0v2a.5.5 0 0 1-.5.5zm0-5a.5.5 0 0 1-.5-.5v-2a.5.5 0 1 1 1 0v2a.5.5 0 0 1-.5.5zm0-5a.5.5 0 0 1-.5-.5v-2a.5.5 0 1 1 1 0v2a.5.5 0 0 1-.5.5zm0-5a.5.5 0 0 1-.5-.5v-2a.5.5 0 1 1 1 0v2a.5.5 0 0 1-.5.5zm0-5a.5.5 0 0 1-.5-.5v-2a.5.5 0 1 1 1 0v2a.5.5 0 0 1-.5.5zm0-5a.5.5 0 0 1-.5-.5v-2a.5.5 0 1 1 1 0v2a.5.5 0 0 1-.5.5zm0-5a.5.5 0 0 1-.5-.5v-2a.5.5 0 1 1 1 0v2a.5.5 0 0 1-.5.5zm0-5a.5.5 0 0 1-.5-.5v-2a.5.5 0 1 1 1 0v2a.5.5 0 0 1-.5.5zm0-5a.5.5 0 0 1-.5-.5v-2a.5.5 0 1 1 1 0v2a.5.5 0 0 1-.5.5z"/><circle cx="144.185" cy="216.202" r="3.157" fill="#38297a"/><circle cx="159.945" cy="199.06" r="3.157" fill="#38297a"/><path fill="#f2c3b3" d="M115.35 106.385c-1.417 2.374-7.064 1.912-7.064 1.912s-12.738 15.996-18.027 14.544c-3.636-.999-9.878-14.723-9.878-14.723l7.177-1.143c.472.449 4.057 7.508 4.057 7.508l15.253-11.131s2.646-6.368 3.545-5.09c.873 1.221-.447 3.215-.554 3.382.335-.208 7.78-4.782 7.963-3.182.197 1.63-4.088 3.534-4.088 3.534s3.033 2.023 1.617 4.389z"/><path fill="#f4a998" d="m50.618 230.185.344 9.353c.068 1.855 5.012 2.198 4.944.342l1.25-9.242-6.538-.453zM72.975 233.73l.488 9.459c.097 1.876 4.954 1.498 4.857-.379l1.078-9.581-6.423.5z"/><path fill="#20154f" d="M71.457 243.153c.093-1.146.312-2.418.768-3.607.187-.486.665-.8 1.175-.73 1.189.162 3.502.341 5.416-.337.574-.204 1.193.123 1.385.69.417 1.232.702 3.29 4.313 4.005 0 0 9.871-.234 6.219 3.115-2.59 2.374-11.154 1.68-15.923 1.074-2.078-.264-3.524-2.112-3.353-4.21zM48.501 243.153c.093-1.146.312-2.418.769-3.607.186-.486.664-.8 1.174-.73 1.19.162 3.502.341 5.416-.337.574-.204 1.193.123 1.385.69.418 1.232.703 3.29 4.313 4.005 0 0 9.872-.234 6.22 3.115-2.59 2.374-11.155 1.68-15.924 1.074-2.077-.264-3.523-2.112-3.353-4.21z"/><path fill="#022e4f" d="M82.853 142.217c4.423 39.63-1.799 90.913-1.799 90.913-3.494 1.44-6.814 1.313-10 0-3.017-26.144-4.981-43.944-4.95-64.454l-6.495-26.61 23.244.151z"/><path fill="#1c587e" d="m53.458 143.684 22.041-3.208c2.29 16.308-8.69 28.2-8.69 28.2l-8.89 64.167c-3.797.47-6.769 1.1-8.418-1.877 0 0 .447-45.482-1.509-61.8-1.955-16.317 5.466-25.482 5.466-25.482z"/><path fill="#5cb8fc" d="m53.618 113.363-2.808 33.954c11.07 3.56 22.193 3.832 33.38 0l-1.03-15.997-1.037-9.332-.866-9.695s5.412 1.513 8.847-2.352c0 0-1.723-12.813-10.237-16.639-4.337-1.949-7.493-3.62-14.805-2.962-4.63.421-9.531.657-12.688 3.717-5.331 5.167-7.209 10.987-9.047 17.018-1.022 3.349 8.82 4.561 10.29 2.288z"/><path fill="#20154f" d="M83.075 62.121c-2.407-4.223-9.768-5.991-14.801-3.402 0 0-7.649.828-8.5 6.62 0 0-2.007 2.596-2.814 8.722-.21 1.594-4.1 3.728-3.757 7.674.4 4.598 5.827 7.083 9.69 4.558a4.757 4.757 0 0 0 2.075-2.921c1.295-5.183-.012-3.136.14-7.797 0 0 10.188 2.564 16.052-7.526 0 0 3.178-3.712 1.915-5.928z"/><path fill="#f2c3b3" d="M81.038 80.447c-2.014 5.789-6.464 4.892-6.464 4.892-.808 4.35 2.08 6.542 2.08 6.542-5.523 10.46-17.001.111-16.758-.996 7.893-3.62 4.25-12.907 4.25-12.907s-3.918-4.582-1.228-6.398c1.838-1.25 2.69-.387 3.642 2.148 9.386-2.679 8.933-8.778 8.933-8.778.52 2.191 5.313 2.878 5.667 3.1.587 3.752 1.052 8.999-.122 12.397z"/><path fill="#5cb8fc" d="M113.897 44.865H87.36a1.983 1.983 0 0 0-1.983 1.982V57.3c0 1.095.888 1.982 1.983 1.982h1.229v2.674c0 .563.689.837 1.075.427l2.922-3.1h21.311a1.983 1.983 0 0 0 1.983-1.983V46.848a1.983 1.983 0 0 0-1.983-1.983z"/><path fill="#fff" d="M91.092 54.314a.472.472 0 0 1-.145-.348v-4.64c0-.098.033-.184.102-.254a.33.33 0 0 1 .25-.106c.097 0 .182.036.253.106s.105.156.105.254v4.422h2.554c.1 0 .184.035.254.105s.105.154.105.254a.336.336 0 0 1-.105.25.357.357 0 0 1-.254.102h-2.773a.473.473 0 0 1-.346-.145zM96.008 54.279c-.302-.172-.535-.416-.7-.73s-.246-.676-.246-1.083.083-.767.247-1.082.397-.558.699-.73a2.1 2.1 0 0 1 1.054-.258c.396 0 .745.086 1.047.258.302.172.537.416.703.73.167.315.25.676.25 1.082s-.083.768-.25 1.083a1.785 1.785 0 0 1-.703.73 2.082 2.082 0 0 1-1.047.258 2.1 2.1 0 0 1-1.054-.258zm1.668-.54c.195-.099.356-.255.484-.468.127-.213.192-.484.192-.812 0-.323-.065-.592-.192-.805-.128-.213-.289-.37-.484-.465a1.388 1.388 0 0 0-1.235 0c-.195.096-.355.252-.48.465s-.188.482-.188.805c0 .328.063.6.188.812s.285.37.48.469a1.354 1.354 0 0 0 1.235 0zM100.999 56.216a3.022 3.022 0 0 1-.757-.289c-.094-.058-.14-.148-.14-.273 0-.084.029-.158.09-.223a.282.282 0 0 1 .222-.097c.041 0 .088.01.14.03.395.198.825.298 1.289.298.797 0 1.194-.426 1.194-1.274v-.523c-.369.394-.814.594-1.335.594a1.87 1.87 0 0 1-1.608-.918c-.188-.305-.282-.676-.282-1.114s.094-.808.282-1.113a1.872 1.872 0 0 1 1.608-.918c.52 0 .966.2 1.335.594v-.195a.36.36 0 0 1 .102-.254.336.336 0 0 1 .25-.106c.1 0 .183.035.254.106s.105.156.105.254v3.492c0 .656-.158 1.16-.477 1.515-.316.354-.77.532-1.358.532-.302 0-.606-.04-.914-.118zm1.5-2.562a2.28 2.28 0 0 0 .538-.422v-1.61c-.17-.177-.35-.318-.538-.421s-.403-.156-.648-.156c-.391 0-.71.119-.957.355s-.37.58-.37 1.027.122.791.37 1.028.566.355.957.355c.245 0 .46-.053.648-.156zM105.037 49.545a.384.384 0 0 1-.117-.282v-.03c0-.11.039-.204.117-.282s.172-.117.281-.117h.047c.11 0 .203.039.281.117s.118.172.118.281v.031c0 .11-.04.203-.118.282s-.171.117-.28.117h-.048a.384.384 0 0 1-.28-.117zm.047 4.851a.344.344 0 0 1-.102-.25v-3.351a.356.356 0 0 1 .61-.258.349.349 0 0 1 .101.258v3.351a.336.336 0 0 1-.105.25.357.357 0 0 1-.254.102.347.347 0 0 1-.25-.102zM107.03 54.396a.34.34 0 0 1-.102-.25v-3.351c0-.098.033-.184.101-.254a.332.332 0 0 1 .25-.106c.099 0 .184.035.254.106s.106.156.106.254v.32c.197-.219.41-.393.64-.524.229-.128.5-.195.813-.195.285 0 .535.069.746.203.21.137.371.32.483.555s.168.492.168.773v2.22a.336.336 0 0 1-.105.25c-.07.066-.155.1-.254.1a.344.344 0 0 1-.35-.35v-2.141c0-.635-.288-.954-.86-.954-.26 0-.494.069-.7.204-.205.134-.4.318-.581.546v2.344a.336.336 0 0 1-.106.25.359.359 0 0 1-.254.102.343.343 0 0 1-.25-.102z"/><path fill="#f4a998" d="M76.655 91.881c-5.524 10.46-17.002.111-16.759-.996 3.874-1.771 4.981-5.291 5.092-7.881 3.022 2.79 9.586 2.335 9.586 2.335-.808 4.35 2.08 6.542 2.08 6.542z"/><ellipse cx="78.684" cy="72.94" fill="#20154f" rx=".682" ry="1.131" transform="rotate(-9.472 78.684 72.94)"/><ellipse cx="72.114" cy="74.134" fill="#20154f" rx=".682" ry="1.131" transform="rotate(-9.472 72.114 74.134)"/><path fill="#20154f" d="M76.995 70.816a.25.25 0 0 1-.163-.44c.657-.567 1.623-.721 2.46-.392a.25.25 0 0 1-.184.465c-.654-.257-1.438-.135-1.95.307a.247.247 0 0 1-.163.06zM73.307 81.323c.38 2.295 3.95 2.145 4.359-.54-1.128.823-3.16.898-4.36.54zM76.144 79.26c-.263 0-.558-.025-.885-.075-.137-.02-.23-.148-.21-.284s.142-.234.284-.21c.976.149 1.632.054 1.81-.255.15-.259-.017-.736-.447-1.278-.728-.92-1.128-2.462-1.144-2.527a.25.25 0 0 1 .18-.304c.133-.03.27.047.304.18.004.015.39 1.505 1.053 2.34.578.73.752 1.383.487 1.84-.22.381-.701.572-1.432.572z"/><path fill="#f2c3b3" d="M74.051 125.514s1.217-2.176.449-2.827c-1.405-1.193-1.51 1.959-3.897 2.81"/><path fill="#20154f" d="m95.018 109.98-16.45.956a1.336 1.336 0 0 0-1.221 1.02l-5.868 24.35c-.21.872.481 1.7 1.377 1.647l16.449-.955a1.336 1.336 0 0 0 1.222-1.02l5.867-24.35c.21-.872-.48-1.7-1.376-1.648z"/><path fill="#f2c3b3" d="M43.391 112.166c1.11 2.324 8.328 3.125 10.078 1.383-.683 3.158-1.394 6.396-1.609 7.186 0 0 4.158.453 9.693 3.235 0 0 6.663 2.377 9.05 1.526l3.448.018s4.34-.166 5.06 1.066c.767 1.31.351 3.855-1.29 4.835-1.108.662-2.996.127-4.367-.159-3.402-.709-3.054-1.95-6.447-1.488-3.394.462-20.955-1.484-21.372-1.722-.417-.237-3.23-.365-3.704-3.52-.262-1.742.618-7.526 1.46-12.36z"/><path fill="#20154f" d="M235.963 162.642h-51.56a2.928 2.928 0 0 0-2.927 2.928v79.45a2.928 2.928 0 0 0 2.928 2.928h51.559a2.928 2.928 0 0 0 2.928-2.928v-79.45a2.928 2.928 0 0 0-2.928-2.928z"/><path fill="#38297a" d="M186.818 167.596h46.73v17.272h-46.73z" transform="rotate(-180 210.183 176.232)"/><path fill="#38297a" d="M186.818 187.973h46.73v13.228h-46.73z" transform="rotate(-180 210.183 194.587)"/><path fill="#20154f" d="M188.779 188.935h7.762v10.795h-7.762z" transform="rotate(-180 192.66 194.333)"/><circle cx="194.244" cy="190.994" r=".893" fill="#fe4c40"/><circle cx="191.077" cy="190.994" r=".893" fill="#7cd194"/><path fill="#ee984f" d="M190.183 197.539h4.954v.988h-4.954z" transform="rotate(-180 192.66 198.033)"/><path fill="#38297a" d="M186.818 202.794h46.73v8.876h-46.73z" transform="rotate(-180 210.183 207.232)"/><path fill="#38297a" d="M186.818 213.235h46.73v8.876h-46.73z" transform="rotate(-180 210.183 217.673)"/><path fill="#38297a" d="M186.818 223.676h46.73v8.876h-46.73z" transform="rotate(-180 210.183 228.115)"/><path fill="#38297a" d="M186.818 234.118h46.73v8.876h-46.73z" transform="rotate(-180 210.183 238.556)"/><path fill="#5cb8fc" d="M188.779 204.297h29.559v.825h-29.559z" transform="rotate(-180 203.559 204.71)"/><circle cx="223.27" cy="204.709" r=".412" fill="#5cb8fc"/><circle cx="203.22" cy="190.755" r="1.132" fill="#5cb8fc"/><path fill="#5cb8fc" d="M206.266 189.796h22.892v1.918h-22.892z" transform="rotate(-180 217.712 190.755)"/><circle cx="228.025" cy="204.709" r="1.132" fill="#ee984f"/><circle cx="225.104" cy="204.709" r=".412" fill="#5cb8fc"/><path fill="#20154f" d="M224.333 208.93h4.825v1.957h-4.825z" transform="rotate(-180 226.745 209.909)"/><path fill="#20154f" d="M217.222 208.93h4.825v1.957h-4.825z" transform="rotate(-180 219.635 209.909)"/><path fill="#20154f" d="M210.111 208.93h4.825v1.957h-4.825z" transform="rotate(-180 212.524 209.909)"/><path fill="#20154f" d="M203.001 208.93h4.825v1.957h-4.825z" transform="rotate(-180 205.413 209.909)"/><path fill="#20154f" d="M195.89 208.93h4.825v1.957h-4.825z" transform="rotate(-180 198.302 209.909)"/><path fill="#20154f" d="M188.779 208.93h4.825v1.957h-4.825z" transform="rotate(-180 191.191 209.909)"/><path fill="#5cb8fc" d="M188.779 214.696h29.559v.825h-29.559z" transform="rotate(-180 203.559 215.109)"/><circle cx="223.27" cy="215.109" r=".412" fill="#5cb8fc"/><circle cx="228.025" cy="215.109" r="1.132" fill="#ee984f"/><circle cx="225.104" cy="215.109" r=".412" fill="#5cb8fc"/><path fill="#20154f" d="M224.333 219.33h4.825v1.957h-4.825z" transform="rotate(-180 226.745 220.308)"/><path fill="#20154f" d="M217.222 219.33h4.825v1.957h-4.825z" transform="rotate(-180 219.635 220.308)"/><path fill="#20154f" d="M210.111 219.33h4.825v1.957h-4.825z" transform="rotate(-180 212.524 220.308)"/><path fill="#20154f" d="M203.001 219.33h4.825v1.957h-4.825z" transform="rotate(-180 205.413 220.308)"/><path fill="#20154f" d="M195.89 219.33h4.825v1.957h-4.825z" transform="rotate(-180 198.302 220.308)"/><path fill="#20154f" d="M188.779 219.33h4.825v1.957h-4.825z" transform="rotate(-180 191.191 220.308)"/><path fill="#5cb8fc" d="M188.779 225.095h29.559v.825h-29.559z" transform="rotate(-180 203.559 225.508)"/><circle cx="223.27" cy="225.508" r=".412" fill="#5cb8fc"/><circle cx="228.025" cy="225.508" r="1.132" fill="#ee984f"/><circle cx="225.104" cy="225.508" r=".412" fill="#5cb8fc"/><path fill="#20154f" d="M224.333 229.729h4.825v1.957h-4.825z" transform="rotate(-180 226.745 230.708)"/><path fill="#20154f" d="M217.222 229.729h4.825v1.957h-4.825z" transform="rotate(-180 219.635 230.708)"/><path fill="#20154f" d="M210.111 229.729h4.825v1.957h-4.825z" transform="rotate(-180 212.524 230.708)"/><path fill="#20154f" d="M203.001 229.729h4.825v1.957h-4.825z" transform="rotate(-180 205.413 230.708)"/><path fill="#20154f" d="M195.89 229.729h4.825v1.957h-4.825z" transform="rotate(-180 198.302 230.708)"/><path fill="#20154f" d="M188.779 229.729h4.825v1.957h-4.825z" transform="rotate(-180 191.191 230.708)"/><path fill="#5cb8fc" d="M188.779 235.495h29.559v.825h-29.559z" transform="rotate(-180 203.559 235.907)"/><circle cx="223.27" cy="235.907" r=".412" fill="#5cb8fc"/><circle cx="228.025" cy="235.907" r="1.132" fill="#ee984f"/><circle cx="225.104" cy="235.907" r=".412" fill="#5cb8fc"/><path fill="#20154f" d="M224.333 240.128h4.825v1.957h-4.825z" transform="rotate(-180 226.745 241.107)"/><path fill="#20154f" d="M217.222 240.128h4.825v1.957h-4.825z" transform="rotate(-180 219.635 241.107)"/><path fill="#20154f" d="M210.111 240.128h4.825v1.957h-4.825z" transform="rotate(-180 212.524 241.107)"/><path fill="#20154f" d="M203.001 240.128h4.825v1.957h-4.825z" transform="rotate(-180 205.413 241.107)"/><path fill="#20154f" d="M195.89 240.128h4.825v1.957h-4.825z" transform="rotate(-180 198.302 241.107)"/><path fill="#20154f" d="M188.779 240.128h4.825v1.957h-4.825z" transform="rotate(-180 191.191 241.107)"/><path fill="#20154f" d="M224.758 197.335h4.4v1.957h-4.4z" transform="rotate(-180 226.958 198.313)"/><path fill="#20154f" d="M218.274 197.335h4.4v1.957h-4.4z" transform="rotate(-180 220.473 198.313)"/><path fill="#20154f" d="M211.789 197.335h4.4v1.957h-4.4z" transform="rotate(-180 213.989 198.313)"/><path fill="#20154f" d="M205.305 197.335h4.4v1.957h-4.4z" transform="rotate(-180 207.505 198.313)"/><path fill="#20154f" d="M198.82 197.335h4.4v1.957h-4.4z" transform="rotate(-180 201.02 198.313)"/><circle cx="223.27" cy="194.333" r=".412" fill="#5cb8fc"/><circle cx="228.025" cy="194.333" r="1.132" fill="#ee984f"/><circle cx="225.104" cy="194.333" r=".412" fill="#5cb8fc"/><path fill="#5cb8fc" d="M198.302 170.54h23.762v5.879h-23.762z"/><circle cx="209.704" cy="180.938" r="1.648" fill="#ee984f"/><circle cx="205.631" cy="180.938" r=".635" fill="#7cd194"/><circle cx="203.266" cy="180.938" r=".635" fill="#7cd194"/><circle cx="213.778" cy="180.938" r=".635" fill="#fe4c40"/><circle cx="216.143" cy="180.938" r=".635" fill="#fe4c40"/><circle cx="229.746" cy="180.938" r="1.648" fill="#fe4c40"/><circle cx="225.673" cy="180.938" r=".635" fill="#ee984f"/><circle cx="223.308" cy="180.938" r=".635" fill="#ee984f"/><path fill="#bbcaea" d="M231.769 154.273v90.57a3.104 3.104 0 0 0 3.105 3.105h6.228a3.104 3.104 0 0 0 3.104-3.104l-.001-90.57a3.104 3.104 0 0 0-3.104-3.105h-6.228a3.104 3.104 0 0 0-3.104 3.104z"/><path fill="#d1dcf8" d="M231.769 154.273v90.57a3.104 3.104 0 0 0 3.105 3.105h1.046l-.001-96.779h-1.046a3.104 3.104 0 0 0-3.104 3.104z"/><path fill="#bbcaea" d="M44.419 154.273v90.57a3.104 3.104 0 0 0 3.105 3.105h6.228a3.104 3.104 0 0 0 3.104-3.104v-90.57a3.104 3.104 0 0 0-3.105-3.105h-6.228a3.104 3.104 0 0 0-3.104 3.104z"/><path fill="#d1dcf8" d="M44.419 154.273v90.57a3.104 3.104 0 0 0 3.105 3.105h1.046l-.001-96.779h-1.046a3.104 3.104 0 0 0-3.104 3.104z"/><path fill="#bbcaea" d="M248.954 144.95H39.67a3.104 3.104 0 0 0-3.104 3.105v6.228a3.104 3.104 0 0 0 3.104 3.104h209.283a3.104 3.104 0 0 0 3.104-3.104v-6.228a3.104 3.104 0 0 0-3.104-3.104z"/><path fill="#bbcaea" d="m103.519 155.675.001 89.169a3.104 3.104 0 0 0 3.104 3.104h6.229a3.104 3.104 0 0 0 3.104-3.104l-.002-89.17H103.52z"/><path fill="#d1dcf8" d="m103.519 155.675.001 89.169a3.104 3.104 0 0 0 3.104 3.104h1.046v-92.273h-4.151z"/><path fill="#bbcaea" d="M50.621 153.056h59.394v33.803H50.621z"/><path fill="#d1dcf8" d="M248.954 144.95H39.67a3.104 3.104 0 0 0-3.104 3.105v1.046h215.49v-1.046a3.104 3.104 0 0 0-3.103-3.104z"/><path fill="#20154f" d="M225.984 55.163h-92.097a8.645 8.645 0 0 0-8.645 8.645v71.066h109.387V63.808a8.645 8.645 0 0 0-8.645-8.645z"/><path fill="#fff" d="M230.525 135.144V63.808a4.547 4.547 0 0 0-4.541-4.541h-92.097a4.547 4.547 0 0 0-4.541 4.541v71.336h101.18z"/><path fill="#20154f" d="M241.727 135.964H118.144a.846.846 0 0 0-.77 1.195l3.304 7.295a.846.846 0 0 0 .77.497h116.975a.846.846 0 0 0 .77-.497l3.305-7.295a.846.846 0 0 0-.77-1.195z"/><path fill="#38297a" d="M241.991 138.315h-124.11a2 2 0 0 1-2-2v-2.883a2 2 0 0 1 2-2h124.11a2 2 0 0 1 2 2v2.883a2 2 0 0 1-2 2z"/><path fill="#d1dcf8" d="M138.88 55.163v56.754a5.149 5.149 0 0 0 5.148 5.15h71.815a5.149 5.149 0 0 0 5.149-5.15V55.163a585.735 585.735 0 0 0-82.113 0z"/><path fill="#fe4c40" d="M220.992 55.163v-5.15a5.149 5.149 0 0 0-5.15-5.148h-71.814a5.149 5.149 0 0 0-5.149 5.149v5.149h82.113z"/><circle cx="201.339" cy="50.014" r="1.78" fill="#ea241f"/><circle cx="207.714" cy="50.014" r="1.78" fill="#ea241f"/><circle cx="214.089" cy="50.014" r="1.78" fill="#ea241f"/><path fill="#ebf2ff" d="M202.92 97.403h-46.99c-.949 0-1.719.77-1.719 1.72v7.416c0 .95.77 1.72 1.72 1.72h46.99c.949 0 1.718-.77 1.718-1.72v-7.417c0-.95-.77-1.719-1.718-1.719z"/><path fill="#38297a" d="M161.738 105.03a.396.396 0 0 1-.132-.3c0-.039.079-.555.234-1.549-.78.634-1.188.96-1.227.98a.452.452 0 0 1-.585-.175.462.462 0 0 1-.058-.235c0-.165.068-.282.205-.35l1.46-.57-1.46-.57a.392.392 0 0 1-.205-.366.46.46 0 0 1 .059-.233c.097-.146.224-.219.38-.219.067 0 .136.02.204.058.039.02.448.346 1.227.98a55.465 55.465 0 0 1-.234-1.55c0-.117.045-.217.132-.299a.43.43 0 0 1 .307-.124c.117 0 .22.041.307.124a.395.395 0 0 1 .131.299c0 .04-.078.556-.234 1.55.78-.634 1.189-.96 1.228-.98a.321.321 0 0 1 .204-.058c.156 0 .283.073.38.219a.493.493 0 0 1 .059.22.426.426 0 0 1-.205.38l-1.46.568 1.46.57c.136.078.205.2.205.366 0 .068-.02.141-.059.22a.452.452 0 0 1-.584.175c-.04-.02-.448-.346-1.228-.98.156.994.234 1.51.234 1.549a.395.395 0 0 1-.131.3.432.432 0 0 1-.307.124.43.43 0 0 1-.307-.125zM168.69 105.03a.396.396 0 0 1-.131-.3c0-.039.078-.555.233-1.549-.779.634-1.188.96-1.227.98a.452.452 0 0 1-.585-.175.462.462 0 0 1-.058-.235c0-.165.068-.282.205-.35l1.461-.57-1.461-.57a.392.392 0 0 1-.205-.366.46.46 0 0 1 .059-.233c.097-.146.224-.219.38-.219.067 0 .136.02.204.058.039.02.448.346 1.227.98a55.538 55.538 0 0 1-.233-1.55c0-.117.044-.217.131-.299a.43.43 0 0 1 .307-.124c.117 0 .22.041.307.124a.395.395 0 0 1 .131.299c0 .04-.078.556-.233 1.55.779-.634 1.188-.96 1.227-.98a.321.321 0 0 1 .204-.058c.156 0 .283.073.38.219a.493.493 0 0 1 .059.22.426.426 0 0 1-.205.38l-1.46.568 1.46.57c.137.078.205.2.205.366 0 .068-.02.141-.059.22a.452.452 0 0 1-.584.175c-.039-.02-.448-.346-1.227-.98.155.994.233 1.51.233 1.549a.395.395 0 0 1-.131.3.432.432 0 0 1-.307.124.43.43 0 0 1-.307-.125zM175.643 105.03a.396.396 0 0 1-.132-.3c0-.039.078-.555.234-1.549-.78.634-1.189.96-1.228.98a.452.452 0 0 1-.585-.175.462.462 0 0 1-.057-.235c0-.165.068-.282.204-.35l1.461-.57-1.461-.57a.392.392 0 0 1-.204-.366.46.46 0 0 1 .058-.233c.097-.146.224-.219.38-.219.068 0 .136.02.204.058.04.02.448.346 1.228.98a55.465 55.465 0 0 1-.234-1.55c0-.117.044-.217.132-.299a.43.43 0 0 1 .306-.124c.117 0 .22.041.307.124a.395.395 0 0 1 .131.299c0 .04-.078.556-.233 1.55.779-.634 1.188-.96 1.227-.98a.321.321 0 0 1 .205-.058c.155 0 .282.073.38.219a.493.493 0 0 1 .058.22.426.426 0 0 1-.205.38l-1.46.568 1.46.57c.137.078.205.2.205.366 0 .068-.02.141-.059.22a.452.452 0 0 1-.584.175c-.039-.02-.448-.346-1.227-.98.155.994.233 1.51.233 1.549a.395.395 0 0 1-.13.3.432.432 0 0 1-.308.124.43.43 0 0 1-.306-.125zM182.595 105.03a.396.396 0 0 1-.132-.3c0-.039.078-.555.234-1.549-.78.634-1.189.96-1.227.98a.452.452 0 0 1-.585-.175.462.462 0 0 1-.058-.235c0-.165.068-.282.204-.35l1.461-.57-1.46-.57a.392.392 0 0 1-.205-.366.46.46 0 0 1 .058-.233c.097-.146.224-.219.38-.219.068 0 .136.02.205.058.038.02.447.346 1.227.98a55.538 55.538 0 0 1-.234-1.55c0-.117.044-.217.132-.299a.43.43 0 0 1 .307-.124c.116 0 .219.041.306.124a.395.395 0 0 1 .132.299c0 .04-.078.556-.234 1.55.78-.634 1.188-.96 1.227-.98a.321.321 0 0 1 .205-.058c.155 0 .282.073.38.219a.493.493 0 0 1 .058.22.426.426 0 0 1-.204.38l-1.461.568 1.46.57c.137.078.205.2.205.366 0 .068-.02.141-.058.22a.452.452 0 0 1-.585.175c-.039-.02-.448-.346-1.227-.98.156.994.234 1.51.234 1.549a.395.395 0 0 1-.132.3.432.432 0 0 1-.306.124.43.43 0 0 1-.307-.125zM189.547 105.03a.396.396 0 0 1-.132-.3c0-.039.078-.555.234-1.549-.78.634-1.189.96-1.227.98a.452.452 0 0 1-.585-.175.462.462 0 0 1-.058-.235c0-.165.068-.282.204-.35l1.462-.57-1.462-.57a.392.392 0 0 1-.204-.366.46.46 0 0 1 .058-.233c.098-.146.224-.219.38-.219.068 0 .136.02.205.058.038.02.448.346 1.227.98a55.465 55.465 0 0 1-.234-1.55c0-.117.044-.217.132-.299a.43.43 0 0 1 .307-.124c.116 0 .219.041.306.124a.395.395 0 0 1 .132.299c0 .04-.078.556-.234 1.55.78-.634 1.189-.96 1.228-.98a.321.321 0 0 1 .204-.058c.156 0 .282.073.38.219a.493.493 0 0 1 .059.22.426.426 0 0 1-.205.38l-1.461.568 1.46.57c.137.078.206.2.206.366 0 .068-.02.141-.06.22a.452.452 0 0 1-.583.175c-.04-.02-.449-.346-1.228-.98.156.994.234 1.51.234 1.549a.395.395 0 0 1-.132.3.432.432 0 0 1-.306.124.43.43 0 0 1-.307-.125zM196.5 105.03a.396.396 0 0 1-.133-.3c0-.039.078-.555.234-1.549-.78.634-1.188.96-1.227.98a.452.452 0 0 1-.585-.175.462.462 0 0 1-.058-.235c0-.165.068-.282.204-.35l1.462-.57-1.462-.57a.392.392 0 0 1-.204-.366.46.46 0 0 1 .058-.233c.098-.146.224-.219.38-.219.068 0 .137.02.205.058.039.02.448.346 1.227.98a55.538 55.538 0 0 1-.234-1.55c0-.117.044-.217.132-.299a.43.43 0 0 1 .307-.124c.117 0 .219.041.307.124a.395.395 0 0 1 .131.299c0 .04-.078.556-.234 1.55.78-.634 1.189-.96 1.228-.98a.321.321 0 0 1 .204-.058c.156 0 .283.073.38.219a.493.493 0 0 1 .059.22.426.426 0 0 1-.205.38l-1.461.568 1.46.57c.137.078.206.2.206.366 0 .068-.02.141-.06.22a.452.452 0 0 1-.583.175c-.04-.02-.448-.346-1.228-.98.156.994.234 1.51.234 1.549a.395.395 0 0 1-.131.3.432.432 0 0 1-.307.124.43.43 0 0 1-.307-.125zM180.434 63.028c-4.234-.284-7.77 3.08-7.77 7.255v5.943h2.69v-5.943a4.586 4.586 0 0 1 5.04-4.559c2.379.233 4.123 2.372 4.123 4.763v.054c0 .6.487 1.088 1.087 1.088h.515c.601 0 1.088-.488 1.088-1.088 0-3.87-2.912-7.254-6.773-7.513z"/><path fill="#38297a" d="M187.393 73.607h-14.915a2.5 2.5 0 0 0-2.5 2.5v11.371a2.5 2.5 0 0 0 2.5 2.5h14.915a2.5 2.5 0 0 0 2.5-2.5v-11.37a2.5 2.5 0 0 0-2.5-2.5z"/><path fill="#bbcaea" d="M182.35 79.748a2.415 2.415 0 0 1-1.517 2.241v4.263h-1.788v-4.255a2.425 2.425 0 0 1-1.524-2.249 2.412 2.412 0 0 1 2.414-2.415 2.412 2.412 0 0 1 2.415 2.415z"/><path fill="#d1dcf8" d="M288.962 247.948H40.157a3.59 3.59 0 0 0-3.59 3.59v.007a3.59 3.59 0 0 0 3.59 3.59h248.805a3.59 3.59 0 0 0 3.59-3.59v-.007a3.59 3.59 0 0 0-3.59-3.59z"/></svg>